%TF.GenerationSoftware,KiCad,Pcbnew,(6.0.5-0)*%
%TF.CreationDate,2022-05-22T21:56:00-04:00*%
%TF.ProjectId,Payload Board,5061796c-6f61-4642-9042-6f6172642e6b,rev?*%
%TF.SameCoordinates,Original*%
%TF.FileFunction,Paste,Top*%
%TF.FilePolarity,Positive*%
%FSLAX46Y46*%
G04 Gerber Fmt 4.6, Leading zero omitted, Abs format (unit mm)*
G04 Created by KiCad (PCBNEW (6.0.5-0)) date 2022-05-22 21:56:00*
%MOMM*%
%LPD*%
G01*
G04 APERTURE LIST*
G04 Aperture macros list*
%AMRoundRect*
0 Rectangle with rounded corners*
0 $1 Rounding radius*
0 $2 $3 $4 $5 $6 $7 $8 $9 X,Y pos of 4 corners*
0 Add a 4 corners polygon primitive as box body*
4,1,4,$2,$3,$4,$5,$6,$7,$8,$9,$2,$3,0*
0 Add four circle primitives for the rounded corners*
1,1,$1+$1,$2,$3*
1,1,$1+$1,$4,$5*
1,1,$1+$1,$6,$7*
1,1,$1+$1,$8,$9*
0 Add four rect primitives between the rounded corners*
20,1,$1+$1,$2,$3,$4,$5,0*
20,1,$1+$1,$4,$5,$6,$7,0*
20,1,$1+$1,$6,$7,$8,$9,0*
20,1,$1+$1,$8,$9,$2,$3,0*%
G04 Aperture macros list end*
%ADD10R,0.650000X0.400000*%
%ADD11R,1.600000X0.410000*%
%ADD12RoundRect,0.100000X-0.637500X-0.100000X0.637500X-0.100000X0.637500X0.100000X-0.637500X0.100000X0*%
%ADD13RoundRect,0.150000X-0.825000X-0.150000X0.825000X-0.150000X0.825000X0.150000X-0.825000X0.150000X0*%
%ADD14R,7.875000X2.000000*%
%ADD15RoundRect,0.200000X-0.200000X-0.275000X0.200000X-0.275000X0.200000X0.275000X-0.200000X0.275000X0*%
%ADD16RoundRect,0.225000X0.225000X0.250000X-0.225000X0.250000X-0.225000X-0.250000X0.225000X-0.250000X0*%
%ADD17RoundRect,0.225000X-0.250000X0.225000X-0.250000X-0.225000X0.250000X-0.225000X0.250000X0.225000X0*%
%ADD18RoundRect,0.225000X-0.225000X-0.250000X0.225000X-0.250000X0.225000X0.250000X-0.225000X0.250000X0*%
%ADD19RoundRect,0.200000X-0.275000X0.200000X-0.275000X-0.200000X0.275000X-0.200000X0.275000X0.200000X0*%
%ADD20RoundRect,0.200000X0.275000X-0.200000X0.275000X0.200000X-0.275000X0.200000X-0.275000X-0.200000X0*%
%ADD21RoundRect,0.200000X0.200000X0.275000X-0.200000X0.275000X-0.200000X-0.275000X0.200000X-0.275000X0*%
%ADD22R,0.700000X0.510000*%
%ADD23RoundRect,0.150000X-0.512500X-0.150000X0.512500X-0.150000X0.512500X0.150000X-0.512500X0.150000X0*%
G04 APERTURE END LIST*
D10*
%TO.C,U2*%
X128190000Y-75290000D03*
X128190000Y-75940000D03*
X128190000Y-76590000D03*
X130090000Y-76590000D03*
X130090000Y-75290000D03*
%TD*%
%TO.C,U3*%
X127830000Y-86960000D03*
X127830000Y-87610000D03*
X127830000Y-88260000D03*
X129730000Y-88260000D03*
X129730000Y-86960000D03*
%TD*%
D11*
%TO.C,U5*%
X85435700Y-74777500D03*
X85435700Y-75412500D03*
X85435700Y-76047500D03*
X85435700Y-76682500D03*
X85435700Y-77317500D03*
X85435700Y-77952500D03*
X85435700Y-78587500D03*
X85435700Y-79222500D03*
X90744300Y-79222500D03*
X90744300Y-78587500D03*
X90744300Y-77952500D03*
X90744300Y-77317500D03*
X90744300Y-76682500D03*
X90744300Y-76047500D03*
X90744300Y-75412500D03*
X90744300Y-74777500D03*
%TD*%
D12*
%TO.C,U6*%
X62877500Y-89245000D03*
X62877500Y-89895000D03*
X62877500Y-90545000D03*
X62877500Y-91195000D03*
X68602500Y-91195000D03*
X68602500Y-90545000D03*
X68602500Y-89895000D03*
X68602500Y-89245000D03*
%TD*%
D13*
%TO.C,U8*%
X62285000Y-75450000D03*
X62285000Y-76720000D03*
X62285000Y-77990000D03*
X62285000Y-79260000D03*
X62285000Y-80530000D03*
X62285000Y-81800000D03*
X62285000Y-83070000D03*
X67235000Y-83070000D03*
X67235000Y-81800000D03*
X67235000Y-80530000D03*
X67235000Y-79260000D03*
X67235000Y-77990000D03*
X67235000Y-76720000D03*
X67235000Y-75450000D03*
%TD*%
D14*
%TO.C,Y1*%
X100082500Y-77660000D03*
X111957500Y-77660000D03*
%TD*%
D15*
%TO.C,R6*%
X53795000Y-78040000D03*
X55445000Y-78040000D03*
%TD*%
D16*
%TO.C,C1*%
X123945000Y-77750000D03*
X122395000Y-77750000D03*
%TD*%
%TO.C,C2*%
X123915000Y-89920000D03*
X122365000Y-89920000D03*
%TD*%
%TO.C,C3*%
X123835000Y-102290000D03*
X122285000Y-102290000D03*
%TD*%
D17*
%TO.C,C4*%
X94830000Y-77645000D03*
X94830000Y-79195000D03*
%TD*%
D18*
%TO.C,C5*%
X70405000Y-88980000D03*
X71955000Y-88980000D03*
%TD*%
D17*
%TO.C,C6*%
X117030000Y-77795000D03*
X117030000Y-79345000D03*
%TD*%
D16*
%TO.C,C7*%
X72060000Y-75350000D03*
X70510000Y-75350000D03*
%TD*%
D18*
%TO.C,C8*%
X72295000Y-77850000D03*
X73845000Y-77850000D03*
%TD*%
D19*
%TO.C,R1*%
X72440000Y-101355000D03*
X72440000Y-103005000D03*
%TD*%
D20*
%TO.C,R2*%
X75090000Y-102985000D03*
X75090000Y-101335000D03*
%TD*%
%TO.C,R3*%
X77210000Y-102265000D03*
X77210000Y-100615000D03*
%TD*%
D19*
%TO.C,R4*%
X76693334Y-74597480D03*
X76693334Y-76247480D03*
%TD*%
D21*
%TO.C,R5*%
X94130000Y-74470000D03*
X92480000Y-74470000D03*
%TD*%
D15*
%TO.C,R7*%
X53775000Y-79640000D03*
X55425000Y-79640000D03*
%TD*%
%TO.C,R8*%
X69205000Y-77860000D03*
X70855000Y-77860000D03*
%TD*%
D18*
%TO.C,C9*%
X92605000Y-72620000D03*
X94155000Y-72620000D03*
%TD*%
D21*
%TO.C,R13*%
X68153334Y-101172480D03*
X66503334Y-101172480D03*
%TD*%
D20*
%TO.C,R17*%
X59738334Y-110557480D03*
X59738334Y-108907480D03*
%TD*%
D10*
%TO.C,U4*%
X127968334Y-99712480D03*
X127968334Y-100362480D03*
X127968334Y-101012480D03*
X129868334Y-101012480D03*
X129868334Y-99712480D03*
%TD*%
D22*
%TO.C,IC1*%
X57308334Y-68802480D03*
X57308334Y-69752480D03*
X57308334Y-70702480D03*
X59628334Y-70702480D03*
X59628334Y-68802480D03*
%TD*%
D19*
%TO.C,R16*%
X57988334Y-108947480D03*
X57988334Y-110597480D03*
%TD*%
D16*
%TO.C,C11*%
X80923334Y-102162480D03*
X79373334Y-102162480D03*
%TD*%
D21*
%TO.C,R9*%
X60938334Y-117352480D03*
X59288334Y-117352480D03*
%TD*%
D23*
%TO.C,U10*%
X84930834Y-96672480D03*
X84930834Y-97622480D03*
X84930834Y-98572480D03*
X87205834Y-98572480D03*
X87205834Y-97622480D03*
X87205834Y-96672480D03*
%TD*%
D21*
%TO.C,R11*%
X60813334Y-128962480D03*
X59163334Y-128962480D03*
%TD*%
%TO.C,R12*%
X60753334Y-134442480D03*
X59103334Y-134442480D03*
%TD*%
D19*
%TO.C,R15*%
X56388334Y-108947480D03*
X56388334Y-110597480D03*
%TD*%
D21*
%TO.C,R10*%
X60953334Y-123022480D03*
X59303334Y-123022480D03*
%TD*%
%TO.C,R14*%
X68133334Y-99232480D03*
X66483334Y-99232480D03*
%TD*%
D13*
%TO.C,U9*%
X58533334Y-97182480D03*
X58533334Y-98452480D03*
X58533334Y-99722480D03*
X58533334Y-100992480D03*
X58533334Y-102262480D03*
X58533334Y-103532480D03*
X58533334Y-104802480D03*
X63483334Y-104802480D03*
X63483334Y-103532480D03*
X63483334Y-102262480D03*
X63483334Y-100992480D03*
X63483334Y-99722480D03*
X63483334Y-98452480D03*
X63483334Y-97182480D03*
%TD*%
D18*
%TO.C,C10*%
X66553334Y-97162480D03*
X68103334Y-97162480D03*
%TD*%
M02*
