%TF.GenerationSoftware,KiCad,Pcbnew,(6.0.5-0)*%
%TF.CreationDate,2022-05-22T21:56:00-04:00*%
%TF.ProjectId,Payload Board,5061796c-6f61-4642-9042-6f6172642e6b,rev?*%
%TF.SameCoordinates,Original*%
%TF.FileFunction,Legend,Top*%
%TF.FilePolarity,Positive*%
%FSLAX46Y46*%
G04 Gerber Fmt 4.6, Leading zero omitted, Abs format (unit mm)*
G04 Created by KiCad (PCBNEW (6.0.5-0)) date 2022-05-22 21:56:00*
%MOMM*%
%LPD*%
G01*
G04 APERTURE LIST*
%ADD10C,0.150000*%
%ADD11C,0.120000*%
G04 APERTURE END LIST*
D10*
X140843095Y-141546289D02*
X140890714Y-141403432D01*
X140890714Y-141165337D01*
X140843095Y-141070099D01*
X140795476Y-141022480D01*
X140700238Y-140974860D01*
X140605000Y-140974860D01*
X140509762Y-141022480D01*
X140462143Y-141070099D01*
X140414524Y-141165337D01*
X140366905Y-141355813D01*
X140319286Y-141451051D01*
X140271667Y-141498670D01*
X140176429Y-141546289D01*
X140081191Y-141546289D01*
X139985953Y-141498670D01*
X139938334Y-141451051D01*
X139890714Y-141355813D01*
X139890714Y-141117718D01*
X139938334Y-140974860D01*
X140890714Y-140546289D02*
X140224048Y-140546289D01*
X139890714Y-140546289D02*
X139938334Y-140593908D01*
X139985953Y-140546289D01*
X139938334Y-140498670D01*
X139890714Y-140546289D01*
X139985953Y-140546289D01*
X140890714Y-139927241D02*
X140843095Y-140022480D01*
X140747857Y-140070099D01*
X139890714Y-140070099D01*
X140224048Y-139641527D02*
X140890714Y-139403432D01*
X140224048Y-139165337D01*
X140843095Y-138403432D02*
X140890714Y-138498670D01*
X140890714Y-138689146D01*
X140843095Y-138784384D01*
X140747857Y-138832003D01*
X140366905Y-138832003D01*
X140271667Y-138784384D01*
X140224048Y-138689146D01*
X140224048Y-138498670D01*
X140271667Y-138403432D01*
X140366905Y-138355813D01*
X140462143Y-138355813D01*
X140557381Y-138832003D01*
X140890714Y-137927241D02*
X140224048Y-137927241D01*
X140414524Y-137927241D02*
X140319286Y-137879622D01*
X140271667Y-137832003D01*
X140224048Y-137736765D01*
X140224048Y-137641527D01*
X140843095Y-137355813D02*
X140890714Y-137212956D01*
X140890714Y-136974860D01*
X140843095Y-136879622D01*
X140795476Y-136832003D01*
X140700238Y-136784384D01*
X140605000Y-136784384D01*
X140509762Y-136832003D01*
X140462143Y-136879622D01*
X140414524Y-136974860D01*
X140366905Y-137165337D01*
X140319286Y-137260575D01*
X140271667Y-137308194D01*
X140176429Y-137355813D01*
X140081191Y-137355813D01*
X139985953Y-137308194D01*
X139938334Y-137260575D01*
X139890714Y-137165337D01*
X139890714Y-136927241D01*
X139938334Y-136784384D01*
X140890714Y-135927241D02*
X140366905Y-135927241D01*
X140271667Y-135974860D01*
X140224048Y-136070099D01*
X140224048Y-136260575D01*
X140271667Y-136355813D01*
X140843095Y-135927241D02*
X140890714Y-136022480D01*
X140890714Y-136260575D01*
X140843095Y-136355813D01*
X140747857Y-136403432D01*
X140652619Y-136403432D01*
X140557381Y-136355813D01*
X140509762Y-136260575D01*
X140509762Y-136022480D01*
X140462143Y-135927241D01*
X140224048Y-135593908D02*
X140224048Y-135212956D01*
X139890714Y-135451051D02*
X140747857Y-135451051D01*
X140843095Y-135403432D01*
X140890714Y-135308194D01*
X140890714Y-135212956D01*
X140890714Y-134117718D02*
X139890714Y-134117718D01*
X139890714Y-133736765D01*
X139938334Y-133641527D01*
X139985953Y-133593908D01*
X140081191Y-133546289D01*
X140224048Y-133546289D01*
X140319286Y-133593908D01*
X140366905Y-133641527D01*
X140414524Y-133736765D01*
X140414524Y-134117718D01*
X140890714Y-132689146D02*
X140366905Y-132689146D01*
X140271667Y-132736765D01*
X140224048Y-132832003D01*
X140224048Y-133022480D01*
X140271667Y-133117718D01*
X140843095Y-132689146D02*
X140890714Y-132784384D01*
X140890714Y-133022480D01*
X140843095Y-133117718D01*
X140747857Y-133165337D01*
X140652619Y-133165337D01*
X140557381Y-133117718D01*
X140509762Y-133022480D01*
X140509762Y-132784384D01*
X140462143Y-132689146D01*
X140224048Y-132308194D02*
X140890714Y-132070099D01*
X140224048Y-131832003D02*
X140890714Y-132070099D01*
X141128810Y-132165337D01*
X141176429Y-132212956D01*
X141224048Y-132308194D01*
X140890714Y-131308194D02*
X140843095Y-131403432D01*
X140747857Y-131451051D01*
X139890714Y-131451051D01*
X140890714Y-130784384D02*
X140843095Y-130879622D01*
X140795476Y-130927241D01*
X140700238Y-130974860D01*
X140414524Y-130974860D01*
X140319286Y-130927241D01*
X140271667Y-130879622D01*
X140224048Y-130784384D01*
X140224048Y-130641527D01*
X140271667Y-130546289D01*
X140319286Y-130498670D01*
X140414524Y-130451051D01*
X140700238Y-130451051D01*
X140795476Y-130498670D01*
X140843095Y-130546289D01*
X140890714Y-130641527D01*
X140890714Y-130784384D01*
X140890714Y-129593908D02*
X140366905Y-129593908D01*
X140271667Y-129641527D01*
X140224048Y-129736765D01*
X140224048Y-129927241D01*
X140271667Y-130022480D01*
X140843095Y-129593908D02*
X140890714Y-129689146D01*
X140890714Y-129927241D01*
X140843095Y-130022480D01*
X140747857Y-130070099D01*
X140652619Y-130070099D01*
X140557381Y-130022480D01*
X140509762Y-129927241D01*
X140509762Y-129689146D01*
X140462143Y-129593908D01*
X140890714Y-128689146D02*
X139890714Y-128689146D01*
X140843095Y-128689146D02*
X140890714Y-128784384D01*
X140890714Y-128974860D01*
X140843095Y-129070099D01*
X140795476Y-129117718D01*
X140700238Y-129165337D01*
X140414524Y-129165337D01*
X140319286Y-129117718D01*
X140271667Y-129070099D01*
X140224048Y-128974860D01*
X140224048Y-128784384D01*
X140271667Y-128689146D01*
X140890714Y-127451051D02*
X139890714Y-127451051D01*
X140271667Y-127451051D02*
X140224048Y-127355813D01*
X140224048Y-127165337D01*
X140271667Y-127070099D01*
X140319286Y-127022480D01*
X140414524Y-126974860D01*
X140700238Y-126974860D01*
X140795476Y-127022480D01*
X140843095Y-127070099D01*
X140890714Y-127165337D01*
X140890714Y-127355813D01*
X140843095Y-127451051D01*
X140890714Y-126403432D02*
X140843095Y-126498670D01*
X140795476Y-126546289D01*
X140700238Y-126593908D01*
X140414524Y-126593908D01*
X140319286Y-126546289D01*
X140271667Y-126498670D01*
X140224048Y-126403432D01*
X140224048Y-126260575D01*
X140271667Y-126165337D01*
X140319286Y-126117718D01*
X140414524Y-126070099D01*
X140700238Y-126070099D01*
X140795476Y-126117718D01*
X140843095Y-126165337D01*
X140890714Y-126260575D01*
X140890714Y-126403432D01*
X140890714Y-125212956D02*
X140366905Y-125212956D01*
X140271667Y-125260575D01*
X140224048Y-125355813D01*
X140224048Y-125546289D01*
X140271667Y-125641527D01*
X140843095Y-125212956D02*
X140890714Y-125308194D01*
X140890714Y-125546289D01*
X140843095Y-125641527D01*
X140747857Y-125689146D01*
X140652619Y-125689146D01*
X140557381Y-125641527D01*
X140509762Y-125546289D01*
X140509762Y-125308194D01*
X140462143Y-125212956D01*
X140890714Y-124736765D02*
X140224048Y-124736765D01*
X140414524Y-124736765D02*
X140319286Y-124689146D01*
X140271667Y-124641527D01*
X140224048Y-124546289D01*
X140224048Y-124451051D01*
X140890714Y-123689146D02*
X139890714Y-123689146D01*
X140843095Y-123689146D02*
X140890714Y-123784384D01*
X140890714Y-123974860D01*
X140843095Y-124070099D01*
X140795476Y-124117718D01*
X140700238Y-124165337D01*
X140414524Y-124165337D01*
X140319286Y-124117718D01*
X140271667Y-124070099D01*
X140224048Y-123974860D01*
X140224048Y-123784384D01*
X140271667Y-123689146D01*
X140890714Y-121879622D02*
X140414524Y-122212956D01*
X140890714Y-122451051D02*
X139890714Y-122451051D01*
X139890714Y-122070099D01*
X139938334Y-121974860D01*
X139985953Y-121927241D01*
X140081191Y-121879622D01*
X140224048Y-121879622D01*
X140319286Y-121927241D01*
X140366905Y-121974860D01*
X140414524Y-122070099D01*
X140414524Y-122451051D01*
X140843095Y-121070099D02*
X140890714Y-121165337D01*
X140890714Y-121355813D01*
X140843095Y-121451051D01*
X140747857Y-121498670D01*
X140366905Y-121498670D01*
X140271667Y-121451051D01*
X140224048Y-121355813D01*
X140224048Y-121165337D01*
X140271667Y-121070099D01*
X140366905Y-121022480D01*
X140462143Y-121022480D01*
X140557381Y-121498670D01*
X140224048Y-120689146D02*
X140890714Y-120451051D01*
X140224048Y-120212956D01*
X140890714Y-118546289D02*
X140890714Y-119117718D01*
X140890714Y-118832003D02*
X139890714Y-118832003D01*
X140033572Y-118927241D01*
X140128810Y-119022480D01*
X140176429Y-119117718D01*
X140795476Y-118117718D02*
X140843095Y-118070099D01*
X140890714Y-118117718D01*
X140843095Y-118165337D01*
X140795476Y-118117718D01*
X140890714Y-118117718D01*
X139890714Y-117451051D02*
X139890714Y-117355813D01*
X139938334Y-117260575D01*
X139985953Y-117212956D01*
X140081191Y-117165337D01*
X140271667Y-117117718D01*
X140509762Y-117117718D01*
X140700238Y-117165337D01*
X140795476Y-117212956D01*
X140843095Y-117260575D01*
X140890714Y-117355813D01*
X140890714Y-117451051D01*
X140843095Y-117546289D01*
X140795476Y-117593908D01*
X140700238Y-117641527D01*
X140509762Y-117689146D01*
X140271667Y-117689146D01*
X140081191Y-117641527D01*
X139985953Y-117593908D01*
X139938334Y-117546289D01*
X139890714Y-117451051D01*
X139890714Y-115451051D02*
X139890714Y-115927241D01*
X140366905Y-115974860D01*
X140319286Y-115927241D01*
X140271667Y-115832003D01*
X140271667Y-115593908D01*
X140319286Y-115498670D01*
X140366905Y-115451051D01*
X140462143Y-115403432D01*
X140700238Y-115403432D01*
X140795476Y-115451051D01*
X140843095Y-115498670D01*
X140890714Y-115593908D01*
X140890714Y-115832003D01*
X140843095Y-115927241D01*
X140795476Y-115974860D01*
X139843095Y-114260575D02*
X141128810Y-115117718D01*
X139985953Y-113974860D02*
X139938334Y-113927241D01*
X139890714Y-113832003D01*
X139890714Y-113593908D01*
X139938334Y-113498670D01*
X139985953Y-113451051D01*
X140081191Y-113403432D01*
X140176429Y-113403432D01*
X140319286Y-113451051D01*
X140890714Y-114022480D01*
X140890714Y-113403432D01*
X140890714Y-112451051D02*
X140890714Y-113022480D01*
X140890714Y-112736765D02*
X139890714Y-112736765D01*
X140033572Y-112832003D01*
X140128810Y-112927241D01*
X140176429Y-113022480D01*
X139843095Y-111308194D02*
X141128810Y-112165337D01*
X139985953Y-111022480D02*
X139938334Y-110974860D01*
X139890714Y-110879622D01*
X139890714Y-110641527D01*
X139938334Y-110546289D01*
X139985953Y-110498670D01*
X140081191Y-110451051D01*
X140176429Y-110451051D01*
X140319286Y-110498670D01*
X140890714Y-111070099D01*
X140890714Y-110451051D01*
X139985953Y-110070099D02*
X139938334Y-110022480D01*
X139890714Y-109927241D01*
X139890714Y-109689146D01*
X139938334Y-109593908D01*
X139985953Y-109546289D01*
X140081191Y-109498670D01*
X140176429Y-109498670D01*
X140319286Y-109546289D01*
X140890714Y-110117718D01*
X140890714Y-109498670D01*
X140845714Y-108267718D02*
X139845714Y-108267718D01*
X140560000Y-107934384D01*
X139845714Y-107601051D01*
X140845714Y-107601051D01*
X140845714Y-106696289D02*
X140321905Y-106696289D01*
X140226667Y-106743908D01*
X140179048Y-106839146D01*
X140179048Y-107029622D01*
X140226667Y-107124860D01*
X140798095Y-106696289D02*
X140845714Y-106791527D01*
X140845714Y-107029622D01*
X140798095Y-107124860D01*
X140702857Y-107172480D01*
X140607619Y-107172480D01*
X140512381Y-107124860D01*
X140464762Y-107029622D01*
X140464762Y-106791527D01*
X140417143Y-106696289D01*
X140845714Y-105791527D02*
X139845714Y-105791527D01*
X140798095Y-105791527D02*
X140845714Y-105886765D01*
X140845714Y-106077241D01*
X140798095Y-106172480D01*
X140750476Y-106220099D01*
X140655238Y-106267718D01*
X140369524Y-106267718D01*
X140274286Y-106220099D01*
X140226667Y-106172480D01*
X140179048Y-106077241D01*
X140179048Y-105886765D01*
X140226667Y-105791527D01*
X140798095Y-104934384D02*
X140845714Y-105029622D01*
X140845714Y-105220099D01*
X140798095Y-105315337D01*
X140702857Y-105362956D01*
X140321905Y-105362956D01*
X140226667Y-105315337D01*
X140179048Y-105220099D01*
X140179048Y-105029622D01*
X140226667Y-104934384D01*
X140321905Y-104886765D01*
X140417143Y-104886765D01*
X140512381Y-105362956D01*
X140845714Y-103696289D02*
X139845714Y-103696289D01*
X140226667Y-103696289D02*
X140179048Y-103601051D01*
X140179048Y-103410575D01*
X140226667Y-103315337D01*
X140274286Y-103267718D01*
X140369524Y-103220099D01*
X140655238Y-103220099D01*
X140750476Y-103267718D01*
X140798095Y-103315337D01*
X140845714Y-103410575D01*
X140845714Y-103601051D01*
X140798095Y-103696289D01*
X140179048Y-102886765D02*
X140845714Y-102648670D01*
X140179048Y-102410575D02*
X140845714Y-102648670D01*
X141083810Y-102743908D01*
X141131429Y-102791527D01*
X141179048Y-102886765D01*
X140750476Y-101267718D02*
X140798095Y-101220099D01*
X140845714Y-101267718D01*
X140798095Y-101315337D01*
X140750476Y-101267718D01*
X140845714Y-101267718D01*
X140226667Y-101267718D02*
X140274286Y-101220099D01*
X140321905Y-101267718D01*
X140274286Y-101315337D01*
X140226667Y-101267718D01*
X140321905Y-101267718D01*
X140845714Y-100029622D02*
X139845714Y-100029622D01*
X139845714Y-99791527D01*
X139893334Y-99648670D01*
X139988572Y-99553432D01*
X140083810Y-99505813D01*
X140274286Y-99458194D01*
X140417143Y-99458194D01*
X140607619Y-99505813D01*
X140702857Y-99553432D01*
X140798095Y-99648670D01*
X140845714Y-99791527D01*
X140845714Y-100029622D01*
X140845714Y-98601051D02*
X140321905Y-98601051D01*
X140226667Y-98648670D01*
X140179048Y-98743908D01*
X140179048Y-98934384D01*
X140226667Y-99029622D01*
X140798095Y-98601051D02*
X140845714Y-98696289D01*
X140845714Y-98934384D01*
X140798095Y-99029622D01*
X140702857Y-99077241D01*
X140607619Y-99077241D01*
X140512381Y-99029622D01*
X140464762Y-98934384D01*
X140464762Y-98696289D01*
X140417143Y-98601051D01*
X140179048Y-98124860D02*
X140845714Y-98124860D01*
X140274286Y-98124860D02*
X140226667Y-98077241D01*
X140179048Y-97982003D01*
X140179048Y-97839146D01*
X140226667Y-97743908D01*
X140321905Y-97696289D01*
X140845714Y-97696289D01*
X140845714Y-97220099D02*
X140179048Y-97220099D01*
X139845714Y-97220099D02*
X139893334Y-97267718D01*
X139940953Y-97220099D01*
X139893334Y-97172480D01*
X139845714Y-97220099D01*
X139940953Y-97220099D01*
X140798095Y-96362956D02*
X140845714Y-96458194D01*
X140845714Y-96648670D01*
X140798095Y-96743908D01*
X140702857Y-96791527D01*
X140321905Y-96791527D01*
X140226667Y-96743908D01*
X140179048Y-96648670D01*
X140179048Y-96458194D01*
X140226667Y-96362956D01*
X140321905Y-96315337D01*
X140417143Y-96315337D01*
X140512381Y-96791527D01*
X140845714Y-95743908D02*
X140798095Y-95839146D01*
X140702857Y-95886765D01*
X139845714Y-95886765D01*
X139845714Y-94696289D02*
X140845714Y-94458194D01*
X140131429Y-94267718D01*
X140845714Y-94077241D01*
X139845714Y-93839146D01*
X140798095Y-93077241D02*
X140845714Y-93172480D01*
X140845714Y-93362956D01*
X140798095Y-93458194D01*
X140702857Y-93505813D01*
X140321905Y-93505813D01*
X140226667Y-93458194D01*
X140179048Y-93362956D01*
X140179048Y-93172480D01*
X140226667Y-93077241D01*
X140321905Y-93029622D01*
X140417143Y-93029622D01*
X140512381Y-93505813D01*
X140845714Y-92601051D02*
X139845714Y-92601051D01*
X140226667Y-92601051D02*
X140179048Y-92505813D01*
X140179048Y-92315337D01*
X140226667Y-92220099D01*
X140274286Y-92172480D01*
X140369524Y-92124860D01*
X140655238Y-92124860D01*
X140750476Y-92172480D01*
X140798095Y-92220099D01*
X140845714Y-92315337D01*
X140845714Y-92505813D01*
X140798095Y-92601051D01*
X140798095Y-91743908D02*
X140845714Y-91648670D01*
X140845714Y-91458194D01*
X140798095Y-91362956D01*
X140702857Y-91315337D01*
X140655238Y-91315337D01*
X140560000Y-91362956D01*
X140512381Y-91458194D01*
X140512381Y-91601051D01*
X140464762Y-91696289D01*
X140369524Y-91743908D01*
X140321905Y-91743908D01*
X140226667Y-91696289D01*
X140179048Y-91601051D01*
X140179048Y-91458194D01*
X140226667Y-91362956D01*
X140179048Y-91029622D02*
X140179048Y-90648670D01*
X139845714Y-90886765D02*
X140702857Y-90886765D01*
X140798095Y-90839146D01*
X140845714Y-90743908D01*
X140845714Y-90648670D01*
X140798095Y-89934384D02*
X140845714Y-90029622D01*
X140845714Y-90220099D01*
X140798095Y-90315337D01*
X140702857Y-90362956D01*
X140321905Y-90362956D01*
X140226667Y-90315337D01*
X140179048Y-90220099D01*
X140179048Y-90029622D01*
X140226667Y-89934384D01*
X140321905Y-89886765D01*
X140417143Y-89886765D01*
X140512381Y-90362956D01*
X140845714Y-89458194D02*
X140179048Y-89458194D01*
X140369524Y-89458194D02*
X140274286Y-89410575D01*
X140226667Y-89362956D01*
X140179048Y-89267718D01*
X140179048Y-89172480D01*
%TO.C,U2*%
X128378095Y-73392380D02*
X128378095Y-74201904D01*
X128425714Y-74297142D01*
X128473333Y-74344761D01*
X128568571Y-74392380D01*
X128759047Y-74392380D01*
X128854285Y-74344761D01*
X128901904Y-74297142D01*
X128949523Y-74201904D01*
X128949523Y-73392380D01*
X129378095Y-73487619D02*
X129425714Y-73440000D01*
X129520952Y-73392380D01*
X129759047Y-73392380D01*
X129854285Y-73440000D01*
X129901904Y-73487619D01*
X129949523Y-73582857D01*
X129949523Y-73678095D01*
X129901904Y-73820952D01*
X129330476Y-74392380D01*
X129949523Y-74392380D01*
%TO.C,U3*%
X128018095Y-85062380D02*
X128018095Y-85871904D01*
X128065714Y-85967142D01*
X128113333Y-86014761D01*
X128208571Y-86062380D01*
X128399047Y-86062380D01*
X128494285Y-86014761D01*
X128541904Y-85967142D01*
X128589523Y-85871904D01*
X128589523Y-85062380D01*
X128970476Y-85062380D02*
X129589523Y-85062380D01*
X129256190Y-85443333D01*
X129399047Y-85443333D01*
X129494285Y-85490952D01*
X129541904Y-85538571D01*
X129589523Y-85633809D01*
X129589523Y-85871904D01*
X129541904Y-85967142D01*
X129494285Y-86014761D01*
X129399047Y-86062380D01*
X129113333Y-86062380D01*
X129018095Y-86014761D01*
X128970476Y-85967142D01*
%TO.C,U5*%
X87426429Y-72184860D02*
X87426429Y-72994384D01*
X87474048Y-73089622D01*
X87521667Y-73137241D01*
X87616905Y-73184860D01*
X87807381Y-73184860D01*
X87902619Y-73137241D01*
X87950238Y-73089622D01*
X87997857Y-72994384D01*
X87997857Y-72184860D01*
X88950238Y-72184860D02*
X88474048Y-72184860D01*
X88426429Y-72661051D01*
X88474048Y-72613432D01*
X88569286Y-72565813D01*
X88807381Y-72565813D01*
X88902619Y-72613432D01*
X88950238Y-72661051D01*
X88997857Y-72756289D01*
X88997857Y-72994384D01*
X88950238Y-73089622D01*
X88902619Y-73137241D01*
X88807381Y-73184860D01*
X88569286Y-73184860D01*
X88474048Y-73137241D01*
X88426429Y-73089622D01*
%TO.C,U6*%
X64978095Y-87222380D02*
X64978095Y-88031904D01*
X65025714Y-88127142D01*
X65073333Y-88174761D01*
X65168571Y-88222380D01*
X65359047Y-88222380D01*
X65454285Y-88174761D01*
X65501904Y-88127142D01*
X65549523Y-88031904D01*
X65549523Y-87222380D01*
X66454285Y-87222380D02*
X66263809Y-87222380D01*
X66168571Y-87270000D01*
X66120952Y-87317619D01*
X66025714Y-87460476D01*
X65978095Y-87650952D01*
X65978095Y-88031904D01*
X66025714Y-88127142D01*
X66073333Y-88174761D01*
X66168571Y-88222380D01*
X66359047Y-88222380D01*
X66454285Y-88174761D01*
X66501904Y-88127142D01*
X66549523Y-88031904D01*
X66549523Y-87793809D01*
X66501904Y-87698571D01*
X66454285Y-87650952D01*
X66359047Y-87603333D01*
X66168571Y-87603333D01*
X66073333Y-87650952D01*
X66025714Y-87698571D01*
X65978095Y-87793809D01*
%TO.C,U8*%
X66146429Y-73534860D02*
X66146429Y-74344384D01*
X66194048Y-74439622D01*
X66241667Y-74487241D01*
X66336905Y-74534860D01*
X66527381Y-74534860D01*
X66622619Y-74487241D01*
X66670238Y-74439622D01*
X66717857Y-74344384D01*
X66717857Y-73534860D01*
X67336905Y-73963432D02*
X67241667Y-73915813D01*
X67194048Y-73868194D01*
X67146429Y-73772956D01*
X67146429Y-73725337D01*
X67194048Y-73630099D01*
X67241667Y-73582480D01*
X67336905Y-73534860D01*
X67527381Y-73534860D01*
X67622619Y-73582480D01*
X67670238Y-73630099D01*
X67717857Y-73725337D01*
X67717857Y-73772956D01*
X67670238Y-73868194D01*
X67622619Y-73915813D01*
X67527381Y-73963432D01*
X67336905Y-73963432D01*
X67241667Y-74011051D01*
X67194048Y-74058670D01*
X67146429Y-74153908D01*
X67146429Y-74344384D01*
X67194048Y-74439622D01*
X67241667Y-74487241D01*
X67336905Y-74534860D01*
X67527381Y-74534860D01*
X67622619Y-74487241D01*
X67670238Y-74439622D01*
X67717857Y-74344384D01*
X67717857Y-74153908D01*
X67670238Y-74058670D01*
X67622619Y-74011051D01*
X67527381Y-73963432D01*
%TO.C,U1*%
X96856429Y-105574860D02*
X96856429Y-106384384D01*
X96904048Y-106479622D01*
X96951667Y-106527241D01*
X97046905Y-106574860D01*
X97237381Y-106574860D01*
X97332619Y-106527241D01*
X97380238Y-106479622D01*
X97427857Y-106384384D01*
X97427857Y-105574860D01*
X98427857Y-106574860D02*
X97856429Y-106574860D01*
X98142143Y-106574860D02*
X98142143Y-105574860D01*
X98046905Y-105717718D01*
X97951667Y-105812956D01*
X97856429Y-105860575D01*
%TO.C,U7*%
X95718095Y-119692380D02*
X95718095Y-120501904D01*
X95765714Y-120597142D01*
X95813333Y-120644761D01*
X95908571Y-120692380D01*
X96099047Y-120692380D01*
X96194285Y-120644761D01*
X96241904Y-120597142D01*
X96289523Y-120501904D01*
X96289523Y-119692380D01*
X96670476Y-119692380D02*
X97337142Y-119692380D01*
X96908571Y-120692380D01*
%TO.C,Y1*%
X105622143Y-81188670D02*
X105622143Y-81664860D01*
X105288810Y-80664860D02*
X105622143Y-81188670D01*
X105955476Y-80664860D01*
X106812619Y-81664860D02*
X106241191Y-81664860D01*
X106526905Y-81664860D02*
X106526905Y-80664860D01*
X106431667Y-80807718D01*
X106336429Y-80902956D01*
X106241191Y-80950575D01*
%TO.C,R6*%
X57045714Y-76564146D02*
X56569524Y-76897480D01*
X57045714Y-77135575D02*
X56045714Y-77135575D01*
X56045714Y-76754622D01*
X56093334Y-76659384D01*
X56140953Y-76611765D01*
X56236191Y-76564146D01*
X56379048Y-76564146D01*
X56474286Y-76611765D01*
X56521905Y-76659384D01*
X56569524Y-76754622D01*
X56569524Y-77135575D01*
X56045714Y-75707003D02*
X56045714Y-75897480D01*
X56093334Y-75992718D01*
X56140953Y-76040337D01*
X56283810Y-76135575D01*
X56474286Y-76183194D01*
X56855238Y-76183194D01*
X56950476Y-76135575D01*
X56998095Y-76087956D01*
X57045714Y-75992718D01*
X57045714Y-75802241D01*
X56998095Y-75707003D01*
X56950476Y-75659384D01*
X56855238Y-75611765D01*
X56617143Y-75611765D01*
X56521905Y-75659384D01*
X56474286Y-75707003D01*
X56426667Y-75802241D01*
X56426667Y-75992718D01*
X56474286Y-76087956D01*
X56521905Y-76135575D01*
X56617143Y-76183194D01*
%TO.C,C1*%
X122161667Y-75749622D02*
X122114048Y-75797241D01*
X121971191Y-75844860D01*
X121875953Y-75844860D01*
X121733095Y-75797241D01*
X121637857Y-75702003D01*
X121590238Y-75606765D01*
X121542619Y-75416289D01*
X121542619Y-75273432D01*
X121590238Y-75082956D01*
X121637857Y-74987718D01*
X121733095Y-74892480D01*
X121875953Y-74844860D01*
X121971191Y-74844860D01*
X122114048Y-74892480D01*
X122161667Y-74940099D01*
X123114048Y-75844860D02*
X122542619Y-75844860D01*
X122828334Y-75844860D02*
X122828334Y-74844860D01*
X122733095Y-74987718D01*
X122637857Y-75082956D01*
X122542619Y-75130575D01*
%TO.C,C2*%
X122241667Y-91789622D02*
X122194048Y-91837241D01*
X122051191Y-91884860D01*
X121955953Y-91884860D01*
X121813095Y-91837241D01*
X121717857Y-91742003D01*
X121670238Y-91646765D01*
X121622619Y-91456289D01*
X121622619Y-91313432D01*
X121670238Y-91122956D01*
X121717857Y-91027718D01*
X121813095Y-90932480D01*
X121955953Y-90884860D01*
X122051191Y-90884860D01*
X122194048Y-90932480D01*
X122241667Y-90980099D01*
X122622619Y-90980099D02*
X122670238Y-90932480D01*
X122765476Y-90884860D01*
X123003572Y-90884860D01*
X123098810Y-90932480D01*
X123146429Y-90980099D01*
X123194048Y-91075337D01*
X123194048Y-91170575D01*
X123146429Y-91313432D01*
X122575000Y-91884860D01*
X123194048Y-91884860D01*
%TO.C,C3*%
X122351667Y-104249622D02*
X122304048Y-104297241D01*
X122161191Y-104344860D01*
X122065953Y-104344860D01*
X121923095Y-104297241D01*
X121827857Y-104202003D01*
X121780238Y-104106765D01*
X121732619Y-103916289D01*
X121732619Y-103773432D01*
X121780238Y-103582956D01*
X121827857Y-103487718D01*
X121923095Y-103392480D01*
X122065953Y-103344860D01*
X122161191Y-103344860D01*
X122304048Y-103392480D01*
X122351667Y-103440099D01*
X122685000Y-103344860D02*
X123304048Y-103344860D01*
X122970714Y-103725813D01*
X123113572Y-103725813D01*
X123208810Y-103773432D01*
X123256429Y-103821051D01*
X123304048Y-103916289D01*
X123304048Y-104154384D01*
X123256429Y-104249622D01*
X123208810Y-104297241D01*
X123113572Y-104344860D01*
X122827857Y-104344860D01*
X122732619Y-104297241D01*
X122685000Y-104249622D01*
%TO.C,C4*%
X95951667Y-81469622D02*
X95904048Y-81517241D01*
X95761191Y-81564860D01*
X95665953Y-81564860D01*
X95523095Y-81517241D01*
X95427857Y-81422003D01*
X95380238Y-81326765D01*
X95332619Y-81136289D01*
X95332619Y-80993432D01*
X95380238Y-80802956D01*
X95427857Y-80707718D01*
X95523095Y-80612480D01*
X95665953Y-80564860D01*
X95761191Y-80564860D01*
X95904048Y-80612480D01*
X95951667Y-80660099D01*
X96808810Y-80898194D02*
X96808810Y-81564860D01*
X96570714Y-80517241D02*
X96332619Y-81231527D01*
X96951667Y-81231527D01*
%TO.C,C5*%
X68691667Y-88199622D02*
X68644048Y-88247241D01*
X68501191Y-88294860D01*
X68405953Y-88294860D01*
X68263095Y-88247241D01*
X68167857Y-88152003D01*
X68120238Y-88056765D01*
X68072619Y-87866289D01*
X68072619Y-87723432D01*
X68120238Y-87532956D01*
X68167857Y-87437718D01*
X68263095Y-87342480D01*
X68405953Y-87294860D01*
X68501191Y-87294860D01*
X68644048Y-87342480D01*
X68691667Y-87390099D01*
X69596429Y-87294860D02*
X69120238Y-87294860D01*
X69072619Y-87771051D01*
X69120238Y-87723432D01*
X69215476Y-87675813D01*
X69453572Y-87675813D01*
X69548810Y-87723432D01*
X69596429Y-87771051D01*
X69644048Y-87866289D01*
X69644048Y-88104384D01*
X69596429Y-88199622D01*
X69548810Y-88247241D01*
X69453572Y-88294860D01*
X69215476Y-88294860D01*
X69120238Y-88247241D01*
X69072619Y-88199622D01*
%TO.C,C6*%
X116385476Y-81529146D02*
X116433095Y-81576765D01*
X116480714Y-81719622D01*
X116480714Y-81814860D01*
X116433095Y-81957718D01*
X116337857Y-82052956D01*
X116242619Y-82100575D01*
X116052143Y-82148194D01*
X115909286Y-82148194D01*
X115718810Y-82100575D01*
X115623572Y-82052956D01*
X115528334Y-81957718D01*
X115480714Y-81814860D01*
X115480714Y-81719622D01*
X115528334Y-81576765D01*
X115575953Y-81529146D01*
X115480714Y-80672003D02*
X115480714Y-80862480D01*
X115528334Y-80957718D01*
X115575953Y-81005337D01*
X115718810Y-81100575D01*
X115909286Y-81148194D01*
X116290238Y-81148194D01*
X116385476Y-81100575D01*
X116433095Y-81052956D01*
X116480714Y-80957718D01*
X116480714Y-80767241D01*
X116433095Y-80672003D01*
X116385476Y-80624384D01*
X116290238Y-80576765D01*
X116052143Y-80576765D01*
X115956905Y-80624384D01*
X115909286Y-80672003D01*
X115861667Y-80767241D01*
X115861667Y-80957718D01*
X115909286Y-81052956D01*
X115956905Y-81100575D01*
X116052143Y-81148194D01*
%TO.C,C7*%
X69281667Y-73999622D02*
X69234048Y-74047241D01*
X69091191Y-74094860D01*
X68995953Y-74094860D01*
X68853095Y-74047241D01*
X68757857Y-73952003D01*
X68710238Y-73856765D01*
X68662619Y-73666289D01*
X68662619Y-73523432D01*
X68710238Y-73332956D01*
X68757857Y-73237718D01*
X68853095Y-73142480D01*
X68995953Y-73094860D01*
X69091191Y-73094860D01*
X69234048Y-73142480D01*
X69281667Y-73190099D01*
X69615000Y-73094860D02*
X70281667Y-73094860D01*
X69853095Y-74094860D01*
%TO.C,C8*%
X76371667Y-78119622D02*
X76324048Y-78167241D01*
X76181191Y-78214860D01*
X76085953Y-78214860D01*
X75943095Y-78167241D01*
X75847857Y-78072003D01*
X75800238Y-77976765D01*
X75752619Y-77786289D01*
X75752619Y-77643432D01*
X75800238Y-77452956D01*
X75847857Y-77357718D01*
X75943095Y-77262480D01*
X76085953Y-77214860D01*
X76181191Y-77214860D01*
X76324048Y-77262480D01*
X76371667Y-77310099D01*
X76943095Y-77643432D02*
X76847857Y-77595813D01*
X76800238Y-77548194D01*
X76752619Y-77452956D01*
X76752619Y-77405337D01*
X76800238Y-77310099D01*
X76847857Y-77262480D01*
X76943095Y-77214860D01*
X77133572Y-77214860D01*
X77228810Y-77262480D01*
X77276429Y-77310099D01*
X77324048Y-77405337D01*
X77324048Y-77452956D01*
X77276429Y-77548194D01*
X77228810Y-77595813D01*
X77133572Y-77643432D01*
X76943095Y-77643432D01*
X76847857Y-77691051D01*
X76800238Y-77738670D01*
X76752619Y-77833908D01*
X76752619Y-78024384D01*
X76800238Y-78119622D01*
X76847857Y-78167241D01*
X76943095Y-78214860D01*
X77133572Y-78214860D01*
X77228810Y-78167241D01*
X77276429Y-78119622D01*
X77324048Y-78024384D01*
X77324048Y-77833908D01*
X77276429Y-77738670D01*
X77228810Y-77691051D01*
X77133572Y-77643432D01*
%TO.C,R1*%
X73680714Y-98749146D02*
X73204524Y-99082480D01*
X73680714Y-99320575D02*
X72680714Y-99320575D01*
X72680714Y-98939622D01*
X72728334Y-98844384D01*
X72775953Y-98796765D01*
X72871191Y-98749146D01*
X73014048Y-98749146D01*
X73109286Y-98796765D01*
X73156905Y-98844384D01*
X73204524Y-98939622D01*
X73204524Y-99320575D01*
X73680714Y-97796765D02*
X73680714Y-98368194D01*
X73680714Y-98082480D02*
X72680714Y-98082480D01*
X72823572Y-98177718D01*
X72918810Y-98272956D01*
X72966429Y-98368194D01*
%TO.C,R2*%
X75670714Y-98319146D02*
X75194524Y-98652480D01*
X75670714Y-98890575D02*
X74670714Y-98890575D01*
X74670714Y-98509622D01*
X74718334Y-98414384D01*
X74765953Y-98366765D01*
X74861191Y-98319146D01*
X75004048Y-98319146D01*
X75099286Y-98366765D01*
X75146905Y-98414384D01*
X75194524Y-98509622D01*
X75194524Y-98890575D01*
X74765953Y-97938194D02*
X74718334Y-97890575D01*
X74670714Y-97795337D01*
X74670714Y-97557241D01*
X74718334Y-97462003D01*
X74765953Y-97414384D01*
X74861191Y-97366765D01*
X74956429Y-97366765D01*
X75099286Y-97414384D01*
X75670714Y-97985813D01*
X75670714Y-97366765D01*
%TO.C,R3*%
X77590714Y-98269146D02*
X77114524Y-98602480D01*
X77590714Y-98840575D02*
X76590714Y-98840575D01*
X76590714Y-98459622D01*
X76638334Y-98364384D01*
X76685953Y-98316765D01*
X76781191Y-98269146D01*
X76924048Y-98269146D01*
X77019286Y-98316765D01*
X77066905Y-98364384D01*
X77114524Y-98459622D01*
X77114524Y-98840575D01*
X76590714Y-97935813D02*
X76590714Y-97316765D01*
X76971667Y-97650099D01*
X76971667Y-97507241D01*
X77019286Y-97412003D01*
X77066905Y-97364384D01*
X77162143Y-97316765D01*
X77400238Y-97316765D01*
X77495476Y-97364384D01*
X77543095Y-97412003D01*
X77590714Y-97507241D01*
X77590714Y-97792956D01*
X77543095Y-97888194D01*
X77495476Y-97935813D01*
%TO.C,R4*%
X78628194Y-76530812D02*
X78152004Y-76864146D01*
X78628194Y-77102241D02*
X77628194Y-77102241D01*
X77628194Y-76721288D01*
X77675814Y-76626050D01*
X77723433Y-76578431D01*
X77818671Y-76530812D01*
X77961528Y-76530812D01*
X78056766Y-76578431D01*
X78104385Y-76626050D01*
X78152004Y-76721288D01*
X78152004Y-77102241D01*
X77961528Y-75673669D02*
X78628194Y-75673669D01*
X77580575Y-75911765D02*
X78294861Y-76149860D01*
X78294861Y-75530812D01*
%TO.C,R5*%
X93881667Y-76424860D02*
X93548334Y-75948670D01*
X93310238Y-76424860D02*
X93310238Y-75424860D01*
X93691191Y-75424860D01*
X93786429Y-75472480D01*
X93834048Y-75520099D01*
X93881667Y-75615337D01*
X93881667Y-75758194D01*
X93834048Y-75853432D01*
X93786429Y-75901051D01*
X93691191Y-75948670D01*
X93310238Y-75948670D01*
X94786429Y-75424860D02*
X94310238Y-75424860D01*
X94262619Y-75901051D01*
X94310238Y-75853432D01*
X94405476Y-75805813D01*
X94643572Y-75805813D01*
X94738810Y-75853432D01*
X94786429Y-75901051D01*
X94834048Y-75996289D01*
X94834048Y-76234384D01*
X94786429Y-76329622D01*
X94738810Y-76377241D01*
X94643572Y-76424860D01*
X94405476Y-76424860D01*
X94310238Y-76377241D01*
X94262619Y-76329622D01*
%TO.C,R7*%
X57620714Y-82764146D02*
X57144524Y-83097480D01*
X57620714Y-83335575D02*
X56620714Y-83335575D01*
X56620714Y-82954622D01*
X56668334Y-82859384D01*
X56715953Y-82811765D01*
X56811191Y-82764146D01*
X56954048Y-82764146D01*
X57049286Y-82811765D01*
X57096905Y-82859384D01*
X57144524Y-82954622D01*
X57144524Y-83335575D01*
X56620714Y-82430813D02*
X56620714Y-81764146D01*
X57620714Y-82192718D01*
%TO.C,R8*%
X69821667Y-80284860D02*
X69488334Y-79808670D01*
X69250238Y-80284860D02*
X69250238Y-79284860D01*
X69631191Y-79284860D01*
X69726429Y-79332480D01*
X69774048Y-79380099D01*
X69821667Y-79475337D01*
X69821667Y-79618194D01*
X69774048Y-79713432D01*
X69726429Y-79761051D01*
X69631191Y-79808670D01*
X69250238Y-79808670D01*
X70393095Y-79713432D02*
X70297857Y-79665813D01*
X70250238Y-79618194D01*
X70202619Y-79522956D01*
X70202619Y-79475337D01*
X70250238Y-79380099D01*
X70297857Y-79332480D01*
X70393095Y-79284860D01*
X70583572Y-79284860D01*
X70678810Y-79332480D01*
X70726429Y-79380099D01*
X70774048Y-79475337D01*
X70774048Y-79522956D01*
X70726429Y-79618194D01*
X70678810Y-79665813D01*
X70583572Y-79713432D01*
X70393095Y-79713432D01*
X70297857Y-79761051D01*
X70250238Y-79808670D01*
X70202619Y-79903908D01*
X70202619Y-80094384D01*
X70250238Y-80189622D01*
X70297857Y-80237241D01*
X70393095Y-80284860D01*
X70583572Y-80284860D01*
X70678810Y-80237241D01*
X70726429Y-80189622D01*
X70774048Y-80094384D01*
X70774048Y-79903908D01*
X70726429Y-79808670D01*
X70678810Y-79761051D01*
X70583572Y-79713432D01*
%TO.C,J1*%
X133245000Y-110914860D02*
X133245000Y-111629146D01*
X133197381Y-111772003D01*
X133102143Y-111867241D01*
X132959286Y-111914860D01*
X132864048Y-111914860D01*
X134245000Y-111914860D02*
X133673572Y-111914860D01*
X133959286Y-111914860D02*
X133959286Y-110914860D01*
X133864048Y-111057718D01*
X133768810Y-111152956D01*
X133673572Y-111200575D01*
%TO.C,H1*%
X63320714Y-67684384D02*
X62320714Y-67684384D01*
X62796905Y-67684384D02*
X62796905Y-67112956D01*
X63320714Y-67112956D02*
X62320714Y-67112956D01*
X63320714Y-66112956D02*
X63320714Y-66684384D01*
X63320714Y-66398670D02*
X62320714Y-66398670D01*
X62463572Y-66493908D01*
X62558810Y-66589146D01*
X62606429Y-66684384D01*
%TO.C,H2*%
X131950714Y-65194384D02*
X130950714Y-65194384D01*
X131426905Y-65194384D02*
X131426905Y-64622956D01*
X131950714Y-64622956D02*
X130950714Y-64622956D01*
X131045953Y-64194384D02*
X130998334Y-64146765D01*
X130950714Y-64051527D01*
X130950714Y-63813432D01*
X130998334Y-63718194D01*
X131045953Y-63670575D01*
X131141191Y-63622956D01*
X131236429Y-63622956D01*
X131379286Y-63670575D01*
X131950714Y-64242003D01*
X131950714Y-63622956D01*
%TO.C,C9*%
X93213333Y-71547142D02*
X93165714Y-71594761D01*
X93022857Y-71642380D01*
X92927619Y-71642380D01*
X92784761Y-71594761D01*
X92689523Y-71499523D01*
X92641904Y-71404285D01*
X92594285Y-71213809D01*
X92594285Y-71070952D01*
X92641904Y-70880476D01*
X92689523Y-70785238D01*
X92784761Y-70690000D01*
X92927619Y-70642380D01*
X93022857Y-70642380D01*
X93165714Y-70690000D01*
X93213333Y-70737619D01*
X93689523Y-71642380D02*
X93880000Y-71642380D01*
X93975238Y-71594761D01*
X94022857Y-71547142D01*
X94118095Y-71404285D01*
X94165714Y-71213809D01*
X94165714Y-70832857D01*
X94118095Y-70737619D01*
X94070476Y-70690000D01*
X93975238Y-70642380D01*
X93784761Y-70642380D01*
X93689523Y-70690000D01*
X93641904Y-70737619D01*
X93594285Y-70832857D01*
X93594285Y-71070952D01*
X93641904Y-71166190D01*
X93689523Y-71213809D01*
X93784761Y-71261428D01*
X93975238Y-71261428D01*
X94070476Y-71213809D01*
X94118095Y-71166190D01*
X94165714Y-71070952D01*
%TO.C,D3*%
X51750238Y-129434860D02*
X51750238Y-128434860D01*
X51988334Y-128434860D01*
X52131191Y-128482480D01*
X52226429Y-128577718D01*
X52274048Y-128672956D01*
X52321667Y-128863432D01*
X52321667Y-129006289D01*
X52274048Y-129196765D01*
X52226429Y-129292003D01*
X52131191Y-129387241D01*
X51988334Y-129434860D01*
X51750238Y-129434860D01*
X52655000Y-128434860D02*
X53274048Y-128434860D01*
X52940714Y-128815813D01*
X53083572Y-128815813D01*
X53178810Y-128863432D01*
X53226429Y-128911051D01*
X53274048Y-129006289D01*
X53274048Y-129244384D01*
X53226429Y-129339622D01*
X53178810Y-129387241D01*
X53083572Y-129434860D01*
X52797857Y-129434860D01*
X52702619Y-129387241D01*
X52655000Y-129339622D01*
%TO.C,R13*%
X66455476Y-103814860D02*
X66122143Y-103338670D01*
X65884048Y-103814860D02*
X65884048Y-102814860D01*
X66265000Y-102814860D01*
X66360238Y-102862480D01*
X66407857Y-102910099D01*
X66455476Y-103005337D01*
X66455476Y-103148194D01*
X66407857Y-103243432D01*
X66360238Y-103291051D01*
X66265000Y-103338670D01*
X65884048Y-103338670D01*
X67407857Y-103814860D02*
X66836429Y-103814860D01*
X67122143Y-103814860D02*
X67122143Y-102814860D01*
X67026905Y-102957718D01*
X66931667Y-103052956D01*
X66836429Y-103100575D01*
X67741191Y-102814860D02*
X68360238Y-102814860D01*
X68026905Y-103195813D01*
X68169762Y-103195813D01*
X68265000Y-103243432D01*
X68312619Y-103291051D01*
X68360238Y-103386289D01*
X68360238Y-103624384D01*
X68312619Y-103719622D01*
X68265000Y-103767241D01*
X68169762Y-103814860D01*
X67884048Y-103814860D01*
X67788810Y-103767241D01*
X67741191Y-103719622D01*
%TO.C,R17*%
X60130714Y-114155337D02*
X59654524Y-114488670D01*
X60130714Y-114726765D02*
X59130714Y-114726765D01*
X59130714Y-114345813D01*
X59178334Y-114250575D01*
X59225953Y-114202956D01*
X59321191Y-114155337D01*
X59464048Y-114155337D01*
X59559286Y-114202956D01*
X59606905Y-114250575D01*
X59654524Y-114345813D01*
X59654524Y-114726765D01*
X60130714Y-113202956D02*
X60130714Y-113774384D01*
X60130714Y-113488670D02*
X59130714Y-113488670D01*
X59273572Y-113583908D01*
X59368810Y-113679146D01*
X59416429Y-113774384D01*
X59130714Y-112869622D02*
X59130714Y-112202956D01*
X60130714Y-112631527D01*
%TO.C,U4*%
X128156429Y-97814860D02*
X128156429Y-98624384D01*
X128204048Y-98719622D01*
X128251667Y-98767241D01*
X128346905Y-98814860D01*
X128537381Y-98814860D01*
X128632619Y-98767241D01*
X128680238Y-98719622D01*
X128727857Y-98624384D01*
X128727857Y-97814860D01*
X129632619Y-98148194D02*
X129632619Y-98814860D01*
X129394524Y-97767241D02*
X129156429Y-98481527D01*
X129775476Y-98481527D01*
%TO.C,IC1*%
X57492143Y-67754860D02*
X57492143Y-66754860D01*
X58539762Y-67659622D02*
X58492143Y-67707241D01*
X58349286Y-67754860D01*
X58254048Y-67754860D01*
X58111191Y-67707241D01*
X58015953Y-67612003D01*
X57968334Y-67516765D01*
X57920714Y-67326289D01*
X57920714Y-67183432D01*
X57968334Y-66992956D01*
X58015953Y-66897718D01*
X58111191Y-66802480D01*
X58254048Y-66754860D01*
X58349286Y-66754860D01*
X58492143Y-66802480D01*
X58539762Y-66850099D01*
X59492143Y-67754860D02*
X58920714Y-67754860D01*
X59206429Y-67754860D02*
X59206429Y-66754860D01*
X59111191Y-66897718D01*
X59015953Y-66992956D01*
X58920714Y-67040575D01*
%TO.C,R16*%
X58340714Y-114275337D02*
X57864524Y-114608670D01*
X58340714Y-114846765D02*
X57340714Y-114846765D01*
X57340714Y-114465813D01*
X57388334Y-114370575D01*
X57435953Y-114322956D01*
X57531191Y-114275337D01*
X57674048Y-114275337D01*
X57769286Y-114322956D01*
X57816905Y-114370575D01*
X57864524Y-114465813D01*
X57864524Y-114846765D01*
X58340714Y-113322956D02*
X58340714Y-113894384D01*
X58340714Y-113608670D02*
X57340714Y-113608670D01*
X57483572Y-113703908D01*
X57578810Y-113799146D01*
X57626429Y-113894384D01*
X57340714Y-112465813D02*
X57340714Y-112656289D01*
X57388334Y-112751527D01*
X57435953Y-112799146D01*
X57578810Y-112894384D01*
X57769286Y-112942003D01*
X58150238Y-112942003D01*
X58245476Y-112894384D01*
X58293095Y-112846765D01*
X58340714Y-112751527D01*
X58340714Y-112561051D01*
X58293095Y-112465813D01*
X58245476Y-112418194D01*
X58150238Y-112370575D01*
X57912143Y-112370575D01*
X57816905Y-112418194D01*
X57769286Y-112465813D01*
X57721667Y-112561051D01*
X57721667Y-112751527D01*
X57769286Y-112846765D01*
X57816905Y-112894384D01*
X57912143Y-112942003D01*
%TO.C,C11*%
X79755476Y-106629622D02*
X79707857Y-106677241D01*
X79565000Y-106724860D01*
X79469762Y-106724860D01*
X79326905Y-106677241D01*
X79231667Y-106582003D01*
X79184048Y-106486765D01*
X79136429Y-106296289D01*
X79136429Y-106153432D01*
X79184048Y-105962956D01*
X79231667Y-105867718D01*
X79326905Y-105772480D01*
X79469762Y-105724860D01*
X79565000Y-105724860D01*
X79707857Y-105772480D01*
X79755476Y-105820099D01*
X80707857Y-106724860D02*
X80136429Y-106724860D01*
X80422143Y-106724860D02*
X80422143Y-105724860D01*
X80326905Y-105867718D01*
X80231667Y-105962956D01*
X80136429Y-106010575D01*
X81660238Y-106724860D02*
X81088810Y-106724860D01*
X81374524Y-106724860D02*
X81374524Y-105724860D01*
X81279286Y-105867718D01*
X81184048Y-105962956D01*
X81088810Y-106010575D01*
%TO.C,R9*%
X59971667Y-119784860D02*
X59638334Y-119308670D01*
X59400238Y-119784860D02*
X59400238Y-118784860D01*
X59781191Y-118784860D01*
X59876429Y-118832480D01*
X59924048Y-118880099D01*
X59971667Y-118975337D01*
X59971667Y-119118194D01*
X59924048Y-119213432D01*
X59876429Y-119261051D01*
X59781191Y-119308670D01*
X59400238Y-119308670D01*
X60447857Y-119784860D02*
X60638334Y-119784860D01*
X60733572Y-119737241D01*
X60781191Y-119689622D01*
X60876429Y-119546765D01*
X60924048Y-119356289D01*
X60924048Y-118975337D01*
X60876429Y-118880099D01*
X60828810Y-118832480D01*
X60733572Y-118784860D01*
X60543095Y-118784860D01*
X60447857Y-118832480D01*
X60400238Y-118880099D01*
X60352619Y-118975337D01*
X60352619Y-119213432D01*
X60400238Y-119308670D01*
X60447857Y-119356289D01*
X60543095Y-119403908D01*
X60733572Y-119403908D01*
X60828810Y-119356289D01*
X60876429Y-119308670D01*
X60924048Y-119213432D01*
%TO.C,D1*%
X51930238Y-117574860D02*
X51930238Y-116574860D01*
X52168334Y-116574860D01*
X52311191Y-116622480D01*
X52406429Y-116717718D01*
X52454048Y-116812956D01*
X52501667Y-117003432D01*
X52501667Y-117146289D01*
X52454048Y-117336765D01*
X52406429Y-117432003D01*
X52311191Y-117527241D01*
X52168334Y-117574860D01*
X51930238Y-117574860D01*
X53454048Y-117574860D02*
X52882619Y-117574860D01*
X53168334Y-117574860D02*
X53168334Y-116574860D01*
X53073095Y-116717718D01*
X52977857Y-116812956D01*
X52882619Y-116860575D01*
%TO.C,U10*%
X84830238Y-94674860D02*
X84830238Y-95484384D01*
X84877857Y-95579622D01*
X84925476Y-95627241D01*
X85020714Y-95674860D01*
X85211191Y-95674860D01*
X85306429Y-95627241D01*
X85354048Y-95579622D01*
X85401667Y-95484384D01*
X85401667Y-94674860D01*
X86401667Y-95674860D02*
X85830238Y-95674860D01*
X86115953Y-95674860D02*
X86115953Y-94674860D01*
X86020714Y-94817718D01*
X85925476Y-94912956D01*
X85830238Y-94960575D01*
X87020714Y-94674860D02*
X87115953Y-94674860D01*
X87211191Y-94722480D01*
X87258810Y-94770099D01*
X87306429Y-94865337D01*
X87354048Y-95055813D01*
X87354048Y-95293908D01*
X87306429Y-95484384D01*
X87258810Y-95579622D01*
X87211191Y-95627241D01*
X87115953Y-95674860D01*
X87020714Y-95674860D01*
X86925476Y-95627241D01*
X86877857Y-95579622D01*
X86830238Y-95484384D01*
X86782619Y-95293908D01*
X86782619Y-95055813D01*
X86830238Y-94865337D01*
X86877857Y-94770099D01*
X86925476Y-94722480D01*
X87020714Y-94674860D01*
%TO.C,R11*%
X60195476Y-131464860D02*
X59862143Y-130988670D01*
X59624048Y-131464860D02*
X59624048Y-130464860D01*
X60005000Y-130464860D01*
X60100238Y-130512480D01*
X60147857Y-130560099D01*
X60195476Y-130655337D01*
X60195476Y-130798194D01*
X60147857Y-130893432D01*
X60100238Y-130941051D01*
X60005000Y-130988670D01*
X59624048Y-130988670D01*
X61147857Y-131464860D02*
X60576429Y-131464860D01*
X60862143Y-131464860D02*
X60862143Y-130464860D01*
X60766905Y-130607718D01*
X60671667Y-130702956D01*
X60576429Y-130750575D01*
X62100238Y-131464860D02*
X61528810Y-131464860D01*
X61814524Y-131464860D02*
X61814524Y-130464860D01*
X61719286Y-130607718D01*
X61624048Y-130702956D01*
X61528810Y-130750575D01*
%TO.C,R12*%
X60125476Y-136614860D02*
X59792143Y-136138670D01*
X59554048Y-136614860D02*
X59554048Y-135614860D01*
X59935000Y-135614860D01*
X60030238Y-135662480D01*
X60077857Y-135710099D01*
X60125476Y-135805337D01*
X60125476Y-135948194D01*
X60077857Y-136043432D01*
X60030238Y-136091051D01*
X59935000Y-136138670D01*
X59554048Y-136138670D01*
X61077857Y-136614860D02*
X60506429Y-136614860D01*
X60792143Y-136614860D02*
X60792143Y-135614860D01*
X60696905Y-135757718D01*
X60601667Y-135852956D01*
X60506429Y-135900575D01*
X61458810Y-135710099D02*
X61506429Y-135662480D01*
X61601667Y-135614860D01*
X61839762Y-135614860D01*
X61935000Y-135662480D01*
X61982619Y-135710099D01*
X62030238Y-135805337D01*
X62030238Y-135900575D01*
X61982619Y-136043432D01*
X61411191Y-136614860D01*
X62030238Y-136614860D01*
%TO.C,R15*%
X56710714Y-114175337D02*
X56234524Y-114508670D01*
X56710714Y-114746765D02*
X55710714Y-114746765D01*
X55710714Y-114365813D01*
X55758334Y-114270575D01*
X55805953Y-114222956D01*
X55901191Y-114175337D01*
X56044048Y-114175337D01*
X56139286Y-114222956D01*
X56186905Y-114270575D01*
X56234524Y-114365813D01*
X56234524Y-114746765D01*
X56710714Y-113222956D02*
X56710714Y-113794384D01*
X56710714Y-113508670D02*
X55710714Y-113508670D01*
X55853572Y-113603908D01*
X55948810Y-113699146D01*
X55996429Y-113794384D01*
X55710714Y-112318194D02*
X55710714Y-112794384D01*
X56186905Y-112842003D01*
X56139286Y-112794384D01*
X56091667Y-112699146D01*
X56091667Y-112461051D01*
X56139286Y-112365813D01*
X56186905Y-112318194D01*
X56282143Y-112270575D01*
X56520238Y-112270575D01*
X56615476Y-112318194D01*
X56663095Y-112365813D01*
X56710714Y-112461051D01*
X56710714Y-112699146D01*
X56663095Y-112794384D01*
X56615476Y-112842003D01*
%TO.C,R10*%
X60125476Y-125654860D02*
X59792143Y-125178670D01*
X59554048Y-125654860D02*
X59554048Y-124654860D01*
X59935000Y-124654860D01*
X60030238Y-124702480D01*
X60077857Y-124750099D01*
X60125476Y-124845337D01*
X60125476Y-124988194D01*
X60077857Y-125083432D01*
X60030238Y-125131051D01*
X59935000Y-125178670D01*
X59554048Y-125178670D01*
X61077857Y-125654860D02*
X60506429Y-125654860D01*
X60792143Y-125654860D02*
X60792143Y-124654860D01*
X60696905Y-124797718D01*
X60601667Y-124892956D01*
X60506429Y-124940575D01*
X61696905Y-124654860D02*
X61792143Y-124654860D01*
X61887381Y-124702480D01*
X61935000Y-124750099D01*
X61982619Y-124845337D01*
X62030238Y-125035813D01*
X62030238Y-125273908D01*
X61982619Y-125464384D01*
X61935000Y-125559622D01*
X61887381Y-125607241D01*
X61792143Y-125654860D01*
X61696905Y-125654860D01*
X61601667Y-125607241D01*
X61554048Y-125559622D01*
X61506429Y-125464384D01*
X61458810Y-125273908D01*
X61458810Y-125035813D01*
X61506429Y-124845337D01*
X61554048Y-124750099D01*
X61601667Y-124702480D01*
X61696905Y-124654860D01*
%TO.C,R14*%
X70235476Y-99714860D02*
X69902143Y-99238670D01*
X69664048Y-99714860D02*
X69664048Y-98714860D01*
X70045000Y-98714860D01*
X70140238Y-98762480D01*
X70187857Y-98810099D01*
X70235476Y-98905337D01*
X70235476Y-99048194D01*
X70187857Y-99143432D01*
X70140238Y-99191051D01*
X70045000Y-99238670D01*
X69664048Y-99238670D01*
X71187857Y-99714860D02*
X70616429Y-99714860D01*
X70902143Y-99714860D02*
X70902143Y-98714860D01*
X70806905Y-98857718D01*
X70711667Y-98952956D01*
X70616429Y-99000575D01*
X72045000Y-99048194D02*
X72045000Y-99714860D01*
X71806905Y-98667241D02*
X71568810Y-99381527D01*
X72187857Y-99381527D01*
%TO.C,U9*%
X60246429Y-95164860D02*
X60246429Y-95974384D01*
X60294048Y-96069622D01*
X60341667Y-96117241D01*
X60436905Y-96164860D01*
X60627381Y-96164860D01*
X60722619Y-96117241D01*
X60770238Y-96069622D01*
X60817857Y-95974384D01*
X60817857Y-95164860D01*
X61341667Y-96164860D02*
X61532143Y-96164860D01*
X61627381Y-96117241D01*
X61675000Y-96069622D01*
X61770238Y-95926765D01*
X61817857Y-95736289D01*
X61817857Y-95355337D01*
X61770238Y-95260099D01*
X61722619Y-95212480D01*
X61627381Y-95164860D01*
X61436905Y-95164860D01*
X61341667Y-95212480D01*
X61294048Y-95260099D01*
X61246429Y-95355337D01*
X61246429Y-95593432D01*
X61294048Y-95688670D01*
X61341667Y-95736289D01*
X61436905Y-95783908D01*
X61627381Y-95783908D01*
X61722619Y-95736289D01*
X61770238Y-95688670D01*
X61817857Y-95593432D01*
%TO.C,D2*%
X51900238Y-123494860D02*
X51900238Y-122494860D01*
X52138334Y-122494860D01*
X52281191Y-122542480D01*
X52376429Y-122637718D01*
X52424048Y-122732956D01*
X52471667Y-122923432D01*
X52471667Y-123066289D01*
X52424048Y-123256765D01*
X52376429Y-123352003D01*
X52281191Y-123447241D01*
X52138334Y-123494860D01*
X51900238Y-123494860D01*
X52852619Y-122590099D02*
X52900238Y-122542480D01*
X52995476Y-122494860D01*
X53233572Y-122494860D01*
X53328810Y-122542480D01*
X53376429Y-122590099D01*
X53424048Y-122685337D01*
X53424048Y-122780575D01*
X53376429Y-122923432D01*
X52805000Y-123494860D01*
X53424048Y-123494860D01*
%TO.C,C10*%
X66685476Y-96089622D02*
X66637857Y-96137241D01*
X66495000Y-96184860D01*
X66399762Y-96184860D01*
X66256905Y-96137241D01*
X66161667Y-96042003D01*
X66114048Y-95946765D01*
X66066429Y-95756289D01*
X66066429Y-95613432D01*
X66114048Y-95422956D01*
X66161667Y-95327718D01*
X66256905Y-95232480D01*
X66399762Y-95184860D01*
X66495000Y-95184860D01*
X66637857Y-95232480D01*
X66685476Y-95280099D01*
X67637857Y-96184860D02*
X67066429Y-96184860D01*
X67352143Y-96184860D02*
X67352143Y-95184860D01*
X67256905Y-95327718D01*
X67161667Y-95422956D01*
X67066429Y-95470575D01*
X68256905Y-95184860D02*
X68352143Y-95184860D01*
X68447381Y-95232480D01*
X68495000Y-95280099D01*
X68542619Y-95375337D01*
X68590238Y-95565813D01*
X68590238Y-95803908D01*
X68542619Y-95994384D01*
X68495000Y-96089622D01*
X68447381Y-96137241D01*
X68352143Y-96184860D01*
X68256905Y-96184860D01*
X68161667Y-96137241D01*
X68114048Y-96089622D01*
X68066429Y-95994384D01*
X68018810Y-95803908D01*
X68018810Y-95565813D01*
X68066429Y-95375337D01*
X68114048Y-95280099D01*
X68161667Y-95232480D01*
X68256905Y-95184860D01*
%TO.C,D4*%
X51680238Y-134864860D02*
X51680238Y-133864860D01*
X51918334Y-133864860D01*
X52061191Y-133912480D01*
X52156429Y-134007718D01*
X52204048Y-134102956D01*
X52251667Y-134293432D01*
X52251667Y-134436289D01*
X52204048Y-134626765D01*
X52156429Y-134722003D01*
X52061191Y-134817241D01*
X51918334Y-134864860D01*
X51680238Y-134864860D01*
X53108810Y-134198194D02*
X53108810Y-134864860D01*
X52870714Y-133817241D02*
X52632619Y-134531527D01*
X53251667Y-134531527D01*
D11*
%TO.C,U2*%
X128440000Y-77100000D02*
X129840000Y-77100000D01*
X129840000Y-74780000D02*
X127940000Y-74780000D01*
%TO.C,U3*%
X128080000Y-88770000D02*
X129480000Y-88770000D01*
X129480000Y-86450000D02*
X127580000Y-86450000D01*
D10*
%TO.C,U5*%
X86235700Y-79675000D02*
X89944300Y-79675000D01*
X84565000Y-74275000D02*
X89948600Y-74275000D01*
D11*
%TO.C,U6*%
X65740000Y-91830000D02*
X63540000Y-91830000D01*
X65740000Y-88610000D02*
X62140000Y-88610000D01*
X65740000Y-88610000D02*
X67940000Y-88610000D01*
X65740000Y-91830000D02*
X67940000Y-91830000D01*
%TO.C,U8*%
X64760000Y-83695000D02*
X62810000Y-83695000D01*
X64760000Y-83695000D02*
X66710000Y-83695000D01*
X64760000Y-74825000D02*
X61310000Y-74825000D01*
X64760000Y-74825000D02*
X66710000Y-74825000D01*
%TO.C,U1*%
X121960000Y-112220000D02*
X121960000Y-113550000D01*
X62740000Y-131010000D02*
X63940000Y-131010000D01*
X91660000Y-137510000D02*
X110890000Y-137510000D01*
X62740000Y-113890000D02*
X62740000Y-131010000D01*
X63940000Y-113890000D02*
X62740000Y-113890000D01*
X121960000Y-108350000D02*
X71040000Y-108350000D01*
X83540000Y-139310000D02*
X91660000Y-139310000D01*
X67000000Y-137510000D02*
X70940000Y-137510000D01*
X119360000Y-110950000D02*
X119360000Y-113550000D01*
X79060000Y-137510000D02*
X83540000Y-137510000D01*
X79060000Y-139310000D02*
X79060000Y-137510000D01*
X71040000Y-108350000D02*
X71040000Y-113550000D01*
X119360000Y-113550000D02*
X71040000Y-113550000D01*
X91660000Y-139310000D02*
X91660000Y-137510000D01*
X70940000Y-137510000D02*
X70940000Y-139310000D01*
X121960000Y-110950000D02*
X119360000Y-110950000D01*
X63940000Y-131010000D02*
X63940000Y-134450000D01*
X121960000Y-113550000D02*
X120630000Y-113550000D01*
X110890000Y-138210000D02*
X122310000Y-138210000D01*
X121960000Y-108350000D02*
X121960000Y-110950000D01*
X70940000Y-139310000D02*
X79060000Y-139310000D01*
X83540000Y-137510000D02*
X83540000Y-139310000D01*
X122310000Y-138210000D02*
X122310000Y-137510000D01*
X129060000Y-110450000D02*
X129060000Y-134450000D01*
X63940000Y-113890000D02*
X63940000Y-110450000D01*
X122310000Y-137510000D02*
X126000000Y-137510000D01*
X67000000Y-107390000D02*
X126000000Y-107390000D01*
X110890000Y-137510000D02*
X110890000Y-138210000D01*
X129060000Y-110450000D02*
G75*
G03*
X126000000Y-107390000I-3059999J1D01*
G01*
X126000000Y-137510000D02*
G75*
G03*
X129060000Y-134450000I0J3060000D01*
G01*
X67000000Y-107390000D02*
G75*
G03*
X63940000Y-110450000I-1J-3059999D01*
G01*
X63940000Y-134450000D02*
G75*
G03*
X67000000Y-137510000I3060000J0D01*
G01*
%TO.C,U7*%
X91930000Y-90790000D02*
G75*
G03*
X91930000Y-90790000I-350000J0D01*
G01*
%TO.C,Y1*%
X111920000Y-75110000D02*
X95945000Y-75110000D01*
X95945000Y-80210000D02*
X111920000Y-80210000D01*
X95945000Y-75110000D02*
X95945000Y-80210000D01*
%TO.C,R6*%
X54382742Y-78562500D02*
X54857258Y-78562500D01*
X54382742Y-77517500D02*
X54857258Y-77517500D01*
%TO.C,C1*%
X123310580Y-77240000D02*
X123029420Y-77240000D01*
X123310580Y-78260000D02*
X123029420Y-78260000D01*
%TO.C,C2*%
X123280580Y-90430000D02*
X122999420Y-90430000D01*
X123280580Y-89410000D02*
X122999420Y-89410000D01*
%TO.C,C3*%
X123200580Y-101780000D02*
X122919420Y-101780000D01*
X123200580Y-102800000D02*
X122919420Y-102800000D01*
%TO.C,C4*%
X95340000Y-78279420D02*
X95340000Y-78560580D01*
X94320000Y-78279420D02*
X94320000Y-78560580D01*
%TO.C,C5*%
X71039420Y-88470000D02*
X71320580Y-88470000D01*
X71039420Y-89490000D02*
X71320580Y-89490000D01*
%TO.C,C6*%
X117540000Y-78429420D02*
X117540000Y-78710580D01*
X116520000Y-78429420D02*
X116520000Y-78710580D01*
%TO.C,C7*%
X71425580Y-75860000D02*
X71144420Y-75860000D01*
X71425580Y-74840000D02*
X71144420Y-74840000D01*
%TO.C,C8*%
X72929420Y-77340000D02*
X73210580Y-77340000D01*
X72929420Y-78360000D02*
X73210580Y-78360000D01*
%TO.C,R1*%
X71917500Y-101942742D02*
X71917500Y-102417258D01*
X72962500Y-101942742D02*
X72962500Y-102417258D01*
%TO.C,R2*%
X75612500Y-102397258D02*
X75612500Y-101922742D01*
X74567500Y-102397258D02*
X74567500Y-101922742D01*
%TO.C,R3*%
X76687500Y-101677258D02*
X76687500Y-101202742D01*
X77732500Y-101677258D02*
X77732500Y-101202742D01*
%TO.C,R4*%
X77215834Y-75185222D02*
X77215834Y-75659738D01*
X76170834Y-75185222D02*
X76170834Y-75659738D01*
%TO.C,R5*%
X93542258Y-74992500D02*
X93067742Y-74992500D01*
X93542258Y-73947500D02*
X93067742Y-73947500D01*
%TO.C,R7*%
X54362742Y-80162500D02*
X54837258Y-80162500D01*
X54362742Y-79117500D02*
X54837258Y-79117500D01*
%TO.C,R8*%
X69792742Y-77337500D02*
X70267258Y-77337500D01*
X69792742Y-78382500D02*
X70267258Y-78382500D01*
%TO.C,J1*%
X135250000Y-110040000D02*
X136580000Y-110040000D01*
X135250000Y-111370000D02*
X135250000Y-110040000D01*
X135250000Y-112640000D02*
X137910000Y-112640000D01*
X137910000Y-112640000D02*
X137910000Y-130480000D01*
X135250000Y-130480000D02*
X137910000Y-130480000D01*
X135250000Y-112640000D02*
X135250000Y-130480000D01*
%TO.C,H1*%
X64118128Y-69471662D02*
X65448128Y-69471662D01*
X64118128Y-68141662D02*
X64118128Y-69471662D01*
X130278128Y-64271662D02*
X130278128Y-69471662D01*
X64118128Y-64271662D02*
X64118128Y-66871662D01*
X64118128Y-64271662D02*
X130278128Y-64271662D01*
X66718128Y-69471662D02*
X130278128Y-69471662D01*
X130278128Y-69411662D02*
X130278128Y-64211662D01*
X66718128Y-66871662D02*
X66718128Y-69471662D01*
X64118128Y-66871662D02*
X66718128Y-66871662D01*
%TO.C,H2*%
X64118128Y-63061662D02*
X64118128Y-64391662D01*
X64118128Y-59191662D02*
X130278128Y-59191662D01*
X130278128Y-59191662D02*
X130278128Y-64391662D01*
X66718128Y-61791662D02*
X66718128Y-64391662D01*
X130278128Y-64331662D02*
X130278128Y-59131662D01*
X64118128Y-61791662D02*
X66718128Y-61791662D01*
X64118128Y-64391662D02*
X65448128Y-64391662D01*
X64118128Y-59191662D02*
X64118128Y-61791662D01*
X66718128Y-64391662D02*
X130278128Y-64391662D01*
%TO.C,C9*%
X93239420Y-73130000D02*
X93520580Y-73130000D01*
X93239420Y-72110000D02*
X93520580Y-72110000D01*
%TO.C,D3*%
X54383334Y-127736480D02*
X54383334Y-127892480D01*
X54383334Y-130052480D02*
X54383334Y-130208480D01*
X54902373Y-130052480D02*
G75*
G03*
X56984464Y-130052317I1040961J1080000D01*
G01*
X57615669Y-127893872D02*
G75*
G03*
X54383334Y-127736964I-1672335J-1078608D01*
G01*
X56984464Y-127892643D02*
G75*
G03*
X54902373Y-127892480I-1041130J-1079837D01*
G01*
X54383334Y-130207996D02*
G75*
G03*
X57615669Y-130051088I1560000J1235516D01*
G01*
%TO.C,R13*%
X67565592Y-101694980D02*
X67091076Y-101694980D01*
X67565592Y-100649980D02*
X67091076Y-100649980D01*
%TO.C,R17*%
X59215834Y-109969738D02*
X59215834Y-109495222D01*
X60260834Y-109969738D02*
X60260834Y-109495222D01*
%TO.C,U4*%
X129618334Y-99202480D02*
X127718334Y-99202480D01*
X128218334Y-101522480D02*
X129618334Y-101522480D01*
%TO.C,IC1*%
X59268334Y-68152480D02*
X56968334Y-68152480D01*
X57668334Y-71352480D02*
X59268334Y-71352480D01*
%TO.C,R16*%
X58510834Y-109535222D02*
X58510834Y-110009738D01*
X57465834Y-109535222D02*
X57465834Y-110009738D01*
%TO.C,C11*%
X80288914Y-102672480D02*
X80007754Y-102672480D01*
X80288914Y-101652480D02*
X80007754Y-101652480D01*
%TO.C,R9*%
X60350592Y-117874980D02*
X59876076Y-117874980D01*
X60350592Y-116829980D02*
X59876076Y-116829980D01*
%TO.C,D1*%
X54483334Y-118402480D02*
X54483334Y-118558480D01*
X54483334Y-116086480D02*
X54483334Y-116242480D01*
X57084464Y-116242643D02*
G75*
G03*
X55002373Y-116242480I-1041130J-1079837D01*
G01*
X57715669Y-116243872D02*
G75*
G03*
X54483334Y-116086964I-1672335J-1078608D01*
G01*
X54483334Y-118557996D02*
G75*
G03*
X57715669Y-118401088I1560000J1235516D01*
G01*
X55002373Y-118402480D02*
G75*
G03*
X57084464Y-118402317I1040961J1080000D01*
G01*
%TO.C,U10*%
X86068334Y-96062480D02*
X84268334Y-96062480D01*
X86068334Y-99182480D02*
X85268334Y-99182480D01*
X86068334Y-99182480D02*
X86868334Y-99182480D01*
X86068334Y-96062480D02*
X86868334Y-96062480D01*
%TO.C,R11*%
X60225592Y-128439980D02*
X59751076Y-128439980D01*
X60225592Y-129484980D02*
X59751076Y-129484980D01*
%TO.C,R12*%
X60165592Y-133919980D02*
X59691076Y-133919980D01*
X60165592Y-134964980D02*
X59691076Y-134964980D01*
%TO.C,R15*%
X55865834Y-109535222D02*
X55865834Y-110009738D01*
X56910834Y-109535222D02*
X56910834Y-110009738D01*
%TO.C,R10*%
X60365592Y-122499980D02*
X59891076Y-122499980D01*
X60365592Y-123544980D02*
X59891076Y-123544980D01*
%TO.C,R14*%
X67545592Y-99754980D02*
X67071076Y-99754980D01*
X67545592Y-98709980D02*
X67071076Y-98709980D01*
%TO.C,U9*%
X61008334Y-105427480D02*
X59058334Y-105427480D01*
X61008334Y-96557480D02*
X62958334Y-96557480D01*
X61008334Y-96557480D02*
X57558334Y-96557480D01*
X61008334Y-105427480D02*
X62958334Y-105427480D01*
%TO.C,D2*%
X54453334Y-121826480D02*
X54453334Y-121982480D01*
X54453334Y-124142480D02*
X54453334Y-124298480D01*
X57685669Y-121983872D02*
G75*
G03*
X54453334Y-121826964I-1672335J-1078608D01*
G01*
X57054464Y-121982643D02*
G75*
G03*
X54972373Y-121982480I-1041130J-1079837D01*
G01*
X54453334Y-124297996D02*
G75*
G03*
X57685669Y-124141088I1560000J1235516D01*
G01*
X54972373Y-124142480D02*
G75*
G03*
X57054464Y-124142317I1040961J1080000D01*
G01*
%TO.C,C10*%
X67187754Y-97672480D02*
X67468914Y-97672480D01*
X67187754Y-96652480D02*
X67468914Y-96652480D01*
%TO.C,D4*%
X54303334Y-133176480D02*
X54303334Y-133332480D01*
X54303334Y-135492480D02*
X54303334Y-135648480D01*
X57535669Y-133333872D02*
G75*
G03*
X54303334Y-133176964I-1672335J-1078608D01*
G01*
X54303334Y-135647996D02*
G75*
G03*
X57535669Y-135491088I1560000J1235516D01*
G01*
X54822373Y-135492480D02*
G75*
G03*
X56904464Y-135492317I1040961J1080000D01*
G01*
X56904464Y-133332643D02*
G75*
G03*
X54822373Y-133332480I-1041130J-1079837D01*
G01*
%TD*%
M02*
