%TF.GenerationSoftware,KiCad,Pcbnew,8.0.1*%
%TF.CreationDate,2024-06-13T14:26:34-04:00*%
%TF.ProjectId,Payload Board,5061796c-6f61-4642-9042-6f6172642e6b,rev?*%
%TF.SameCoordinates,Original*%
%TF.FileFunction,Profile,NP*%
%FSLAX46Y46*%
G04 Gerber Fmt 4.6, Leading zero omitted, Abs format (unit mm)*
G04 Created by KiCad (PCBNEW 8.0.1) date 2024-06-13 14:26:34*
%MOMM*%
%LPD*%
G01*
G04 APERTURE LIST*
%TA.AperFunction,Profile*%
%ADD10C,0.100000*%
%TD*%
%TA.AperFunction,Profile*%
%ADD11C,0.200000*%
%TD*%
G04 APERTURE END LIST*
D10*
X141648128Y-138249162D02*
G75*
G02*
X144823128Y-138249162I1587500J0D01*
G01*
D11*
X107863128Y-149539462D02*
X107863128Y-150072862D01*
X52671928Y-151266662D02*
G75*
G02*
X51478138Y-150072862I-28J1193762D01*
G01*
X107863128Y-56575462D02*
X107863128Y-57108862D01*
X53383128Y-94357962D02*
X53383128Y-112290362D01*
D10*
X48303128Y-151266662D02*
X48303128Y-143828662D01*
D11*
X86349328Y-55381662D02*
G75*
G02*
X87543138Y-56575462I-28J-1193838D01*
G01*
X88736928Y-148345662D02*
X106669328Y-148345662D01*
D10*
X141648128Y-109166162D02*
X141648128Y-132089662D01*
X137076128Y-71193162D02*
G75*
G02*
X140251128Y-71193162I1587500J0D01*
G01*
X141648128Y-86115662D02*
X141648128Y-103006662D01*
D11*
X87543128Y-57108862D02*
X87543128Y-56575462D01*
X87543128Y-149539462D02*
G75*
G02*
X88736928Y-148345728I1193772J-38D01*
G01*
D10*
X157522975Y-151266662D02*
X144822975Y-151266662D01*
X51478128Y-137669162D02*
G75*
G02*
X48303128Y-137669162I-1587500J0D01*
G01*
X48303128Y-137669162D02*
X48303128Y-91441162D01*
X51478128Y-85281662D02*
X51507318Y-66765662D01*
X143631532Y-75193662D02*
X140251128Y-75193662D01*
X144823128Y-132089662D02*
X144823128Y-109166162D01*
D11*
X106669328Y-58302662D02*
X88736928Y-58302662D01*
X52671928Y-55381662D02*
X86349328Y-55381662D01*
X87543128Y-150072862D02*
X87543128Y-149539462D01*
D10*
X140251128Y-65033662D02*
X140258595Y-55381662D01*
X48332318Y-66765662D02*
G75*
G02*
X51507318Y-66765662I1587500J0D01*
G01*
D11*
X52430628Y-93188803D02*
G75*
G02*
X51478063Y-92019644I241272J1169203D01*
G01*
X138269928Y-78368662D02*
G75*
G02*
X137076138Y-77174862I-28J1193762D01*
G01*
D10*
X144823128Y-132089662D02*
G75*
G02*
X141648128Y-132089662I-1587500J0D01*
G01*
X141647975Y-79557901D02*
X141648128Y-79956162D01*
X51507318Y-60606162D02*
G75*
G02*
X48332318Y-60606162I-1587500J0D01*
G01*
X51478128Y-137669162D02*
X51478128Y-114628680D01*
D11*
X87543128Y-150072862D02*
G75*
G02*
X86349328Y-151266728I-1193828J-38D01*
G01*
X51478128Y-56575462D02*
G75*
G02*
X52671928Y-55381728I1193772J-38D01*
G01*
D10*
X144823128Y-79956162D02*
X144825179Y-76382901D01*
D11*
X107863128Y-56575462D02*
G75*
G02*
X109056928Y-55381728I1193772J-38D01*
G01*
D10*
X141648128Y-138249162D02*
X141647975Y-150068301D01*
X51478128Y-92019644D02*
X51478128Y-91441162D01*
D11*
X53383128Y-112290362D02*
G75*
G02*
X52430640Y-113459579I-1193828J-38D01*
G01*
D10*
X144823128Y-103006662D02*
X144823128Y-86115662D01*
X38778128Y-55381662D02*
X38778128Y-151266662D01*
D11*
X107863128Y-57108862D02*
G75*
G02*
X106669328Y-58302728I-1193828J-38D01*
G01*
D10*
X144823128Y-79956162D02*
G75*
G02*
X141648128Y-79956162I-1587500J0D01*
G01*
X144823128Y-103006662D02*
G75*
G02*
X141648128Y-103006662I-1587500J0D01*
G01*
X48303128Y-91441162D02*
G75*
G02*
X51478128Y-91441162I1587500J0D01*
G01*
X140251128Y-65033662D02*
G75*
G02*
X137076128Y-65033662I-1587500J0D01*
G01*
X140251128Y-75193662D02*
X140251128Y-71193162D01*
X141648128Y-86115662D02*
G75*
G02*
X144823128Y-86115662I1587500J0D01*
G01*
X137076128Y-77174862D02*
X137076128Y-71193162D01*
D11*
X135882328Y-55381662D02*
G75*
G02*
X137076138Y-56575462I-28J-1193838D01*
G01*
X140454328Y-78368662D02*
G75*
G02*
X141647946Y-79557901I4372J-1189238D01*
G01*
X109056928Y-55381662D02*
X135882328Y-55381662D01*
D10*
X144822975Y-151266662D02*
X144823128Y-138249162D01*
X144822975Y-55381662D02*
X157522975Y-55381662D01*
X51507318Y-60606162D02*
X51478128Y-56575462D01*
D11*
X106669328Y-148345662D02*
G75*
G02*
X107863138Y-149539462I-28J-1193838D01*
G01*
D10*
X51478128Y-143828662D02*
X51478128Y-150072862D01*
D11*
X143631532Y-75193663D02*
G75*
G02*
X144825137Y-76382901I2168J-1191437D01*
G01*
D10*
X48303128Y-55381662D02*
X38778128Y-55381662D01*
X157522975Y-55381662D02*
X157522975Y-151266662D01*
D11*
X140454328Y-78368662D02*
X138269928Y-78368662D01*
D10*
X51478128Y-85281662D02*
G75*
G02*
X48303128Y-85281662I-1587500J0D01*
G01*
X141648128Y-109166162D02*
G75*
G02*
X144823128Y-109166162I1587500J0D01*
G01*
D11*
X86349328Y-151266662D02*
X52671928Y-151266662D01*
X52430628Y-93188804D02*
G75*
G02*
X53383142Y-94357962I-241328J-1169196D01*
G01*
D10*
X48332318Y-60606162D02*
X48303128Y-55381662D01*
X48303128Y-85281662D02*
X48332318Y-66765662D01*
D11*
X51478128Y-114628680D02*
G75*
G02*
X52430636Y-113459562I1193772J-20D01*
G01*
X88736928Y-58302662D02*
G75*
G02*
X87543138Y-57108862I-28J1193762D01*
G01*
X109056928Y-151266662D02*
G75*
G02*
X107863138Y-150072862I-28J1193762D01*
G01*
X140454328Y-151266662D02*
X109056928Y-151266662D01*
D10*
X140258595Y-55381662D02*
X144822975Y-55381662D01*
X38778128Y-151266662D02*
X48303128Y-151266662D01*
D11*
X141647975Y-150068301D02*
G75*
G02*
X140454328Y-151266666I-1198275J-99D01*
G01*
D10*
X48303128Y-143828662D02*
G75*
G02*
X51478128Y-143828662I1587500J0D01*
G01*
X137076128Y-65033662D02*
X137076128Y-56575462D01*
M02*
