%TF.GenerationSoftware,KiCad,Pcbnew,8.0.1*%
%TF.CreationDate,2024-06-13T14:26:34-04:00*%
%TF.ProjectId,Payload Board,5061796c-6f61-4642-9042-6f6172642e6b,rev?*%
%TF.SameCoordinates,Original*%
%TF.FileFunction,Soldermask,Bot*%
%TF.FilePolarity,Negative*%
%FSLAX46Y46*%
G04 Gerber Fmt 4.6, Leading zero omitted, Abs format (unit mm)*
G04 Created by KiCad (PCBNEW 8.0.1) date 2024-06-13 14:26:34*
%MOMM*%
%LPD*%
G01*
G04 APERTURE LIST*
%ADD10C,6.650000*%
%ADD11R,1.700000X1.700000*%
%ADD12O,1.700000X1.700000*%
%ADD13C,6.300000*%
%ADD14C,1.700000*%
%ADD15C,5.000000*%
%ADD16C,6.400000*%
%ADD17R,1.800000X1.800000*%
%ADD18C,1.800000*%
G04 APERTURE END LIST*
D10*
%TO.C,U1*%
X125500000Y-110950000D03*
X67500000Y-110950000D03*
X125500000Y-133950000D03*
X67500000Y-133950000D03*
D11*
X120630000Y-112220000D03*
D12*
X120630000Y-109680000D03*
X118090000Y-112220000D03*
X118090000Y-109680000D03*
X115550000Y-112220000D03*
X115550000Y-109680000D03*
X113010000Y-112220000D03*
X113010000Y-109680000D03*
X110470000Y-112220000D03*
X110470000Y-109680000D03*
X107930000Y-112220000D03*
X107930000Y-109680000D03*
X105390000Y-112220000D03*
X105390000Y-109680000D03*
X102850000Y-112220000D03*
X102850000Y-109680000D03*
X100310000Y-112220000D03*
X100310000Y-109680000D03*
X97770000Y-112220000D03*
X97770000Y-109680000D03*
X95230000Y-112220000D03*
X95230000Y-109680000D03*
X92690000Y-112220000D03*
X92690000Y-109680000D03*
X90150000Y-112220000D03*
X90150000Y-109680000D03*
X87610000Y-112220000D03*
X87610000Y-109680000D03*
X85070000Y-112220000D03*
X85070000Y-109680000D03*
X82530000Y-112220000D03*
X82530000Y-109680000D03*
X79990000Y-112220000D03*
X79990000Y-109680000D03*
X77450000Y-112220000D03*
X77450000Y-109680000D03*
X74910000Y-112220000D03*
X74910000Y-109680000D03*
X72370000Y-112220000D03*
X72370000Y-109680000D03*
%TD*%
D13*
%TO.C,U7*%
X110233128Y-117086662D03*
X110233128Y-89586662D03*
D14*
X103333128Y-89586662D03*
X100793128Y-89586662D03*
X98253128Y-89586662D03*
X95713128Y-89586662D03*
X93173128Y-89586662D03*
D13*
X82733128Y-117086662D03*
X82733128Y-89586662D03*
D14*
X93211462Y-87069142D03*
X95751462Y-87069142D03*
X98291462Y-87069142D03*
X100831462Y-87069142D03*
X103371462Y-87069142D03*
%TD*%
D11*
%TO.C,J1*%
X136580000Y-111370000D03*
D12*
X136580000Y-113910000D03*
X136580000Y-116450000D03*
X136580000Y-118990000D03*
X136580000Y-121530000D03*
X136580000Y-124070000D03*
X136580000Y-126610000D03*
X136580000Y-129150000D03*
%TD*%
D11*
%TO.C,H1*%
X65448128Y-68081662D03*
D12*
X65448128Y-65541662D03*
X67988128Y-68081662D03*
X67988128Y-65531662D03*
X70528128Y-68081662D03*
X70528128Y-65531662D03*
X73068128Y-68081662D03*
X73068128Y-65531662D03*
X75608128Y-68081662D03*
X75608128Y-65531662D03*
X78148128Y-68081662D03*
X78148128Y-65531662D03*
X80688128Y-68081662D03*
X80688128Y-65531662D03*
X83228128Y-68081662D03*
X83228128Y-65531662D03*
X85768128Y-68081662D03*
X85768128Y-65531662D03*
X88308128Y-68081662D03*
X88308128Y-65531662D03*
X90848128Y-68081662D03*
X90848128Y-65531662D03*
X93388128Y-68081662D03*
X93388128Y-65531662D03*
X95928128Y-68081662D03*
X95928128Y-65531662D03*
X98468128Y-68081662D03*
X98468128Y-65531662D03*
X101008128Y-68081662D03*
X101008128Y-65531662D03*
X103548128Y-68081662D03*
X103548128Y-65531662D03*
X106088128Y-68081662D03*
X106088128Y-65531662D03*
X108628128Y-68081662D03*
X108628128Y-65531662D03*
X111168128Y-68081662D03*
X111168128Y-65531662D03*
X113708128Y-68081662D03*
X113708128Y-65531662D03*
X116248128Y-68081662D03*
X116248128Y-65531662D03*
X118788128Y-68081662D03*
X118788128Y-65531662D03*
X121328128Y-68081662D03*
X121328128Y-65531662D03*
X123868128Y-68081662D03*
X123868128Y-65531662D03*
X126408128Y-68081662D03*
X126408128Y-65531662D03*
X128948128Y-68081662D03*
X128948128Y-65531662D03*
%TD*%
D11*
%TO.C,H2*%
X65448128Y-63001662D03*
D12*
X65448128Y-60461662D03*
X67988128Y-63001662D03*
X67988128Y-60451662D03*
X70528128Y-63001662D03*
X70528128Y-60451662D03*
X73068128Y-63001662D03*
X73068128Y-60451662D03*
X75608128Y-63001662D03*
X75608128Y-60451662D03*
X78148128Y-63001662D03*
X78148128Y-60451662D03*
X80688128Y-63001662D03*
X80688128Y-60451662D03*
X83228128Y-63001662D03*
X83228128Y-60451662D03*
X85768128Y-63001662D03*
X85768128Y-60451662D03*
X88308128Y-63001662D03*
X88308128Y-60451662D03*
X90848128Y-63001662D03*
X90848128Y-60451662D03*
X93388128Y-63001662D03*
X93388128Y-60451662D03*
X95928128Y-63001662D03*
X95928128Y-60451662D03*
X98468128Y-63001662D03*
X98468128Y-60451662D03*
X101008128Y-63001662D03*
X101008128Y-60451662D03*
X103548128Y-63001662D03*
X103548128Y-60451662D03*
X106088128Y-63001662D03*
X106088128Y-60451662D03*
X108628128Y-63001662D03*
X108628128Y-60451662D03*
X111168128Y-63001662D03*
X111168128Y-60451662D03*
X113708128Y-63001662D03*
X113708128Y-60451662D03*
X116248128Y-63001662D03*
X116248128Y-60451662D03*
X118788128Y-63001662D03*
X118788128Y-60451662D03*
X121328128Y-63001662D03*
X121328128Y-60451662D03*
X123868128Y-63001662D03*
X123868128Y-60451662D03*
X126408128Y-63001662D03*
X126408128Y-60451662D03*
X128948128Y-63001662D03*
X128948128Y-60451662D03*
%TD*%
D15*
%TO.C,M4*%
X134028128Y-60461662D03*
%TD*%
D16*
%TO.C,M3*%
X60368128Y-60461662D03*
%TD*%
D17*
%TO.C,D3*%
X54673334Y-128972480D03*
D18*
X57213334Y-128972480D03*
%TD*%
D16*
%TO.C,M1*%
X56558128Y-146186662D03*
%TD*%
D17*
%TO.C,D1*%
X54773334Y-117322480D03*
D18*
X57313334Y-117322480D03*
%TD*%
D16*
%TO.C,M2*%
X136603128Y-146126662D03*
%TD*%
D17*
%TO.C,D2*%
X54743334Y-123062480D03*
D18*
X57283334Y-123062480D03*
%TD*%
D17*
%TO.C,D4*%
X54593334Y-134412480D03*
D18*
X57133334Y-134412480D03*
%TD*%
M02*
