%TF.GenerationSoftware,KiCad,Pcbnew,8.0.1*%
%TF.CreationDate,2024-06-14T09:09:15-04:00*%
%TF.ProjectId,Payload Board,5061796c-6f61-4642-9042-6f6172642e6b,rev?*%
%TF.SameCoordinates,Original*%
%TF.FileFunction,Drillmap*%
%TF.FilePolarity,Positive*%
%FSLAX45Y45*%
G04 Gerber Fmt 4.5, Leading zero omitted, Abs format (unit mm)*
G04 Created by KiCad (PCBNEW 8.0.1) date 2024-06-14 09:09:15*
%MOMM*%
%LPD*%
G01*
G04 APERTURE LIST*
%ADD10C,0.100000*%
%ADD11C,0.200000*%
%ADD12C,0.210000*%
%ADD13C,0.270000*%
%ADD14C,0.275000*%
%ADD15C,0.320000*%
G04 APERTURE END LIST*
D10*
X14164813Y-13824916D02*
G75*
G02*
X14482313Y-13824916I158750J0D01*
G01*
D11*
X10786313Y-14953946D02*
X10786313Y-15007286D01*
X5267193Y-15126666D02*
G75*
G02*
X5147814Y-15007286I-3J119376D01*
G01*
X10786313Y-5657546D02*
X10786313Y-5710886D01*
X5338313Y-9435796D02*
X5338313Y-11229036D01*
D10*
X4830313Y-15126666D02*
X4830313Y-14382866D01*
D11*
X8634933Y-5538166D02*
G75*
G02*
X8754314Y-5657546I-3J-119384D01*
G01*
X8873693Y-14834566D02*
X10666933Y-14834566D01*
D10*
X14164813Y-10916616D02*
X14164813Y-13208966D01*
X13707613Y-7119316D02*
G75*
G02*
X14025113Y-7119316I158750J0D01*
G01*
X14164813Y-8611566D02*
X14164813Y-10300666D01*
D11*
X8754313Y-5710886D02*
X8754313Y-5657546D01*
X8754313Y-14953946D02*
G75*
G02*
X8873693Y-14834573I119377J-4D01*
G01*
D10*
X15752297Y-15126666D02*
X14482297Y-15126666D01*
X5147813Y-13766916D02*
G75*
G02*
X4830313Y-13766916I-158750J0D01*
G01*
X4830313Y-13766916D02*
X4830313Y-9144116D01*
X5147813Y-8528166D02*
X5150732Y-6676566D01*
X14363153Y-7519366D02*
X14025113Y-7519366D01*
X14482313Y-13208966D02*
X14482313Y-10916616D01*
D11*
X10666933Y-5830266D02*
X8873693Y-5830266D01*
X5267193Y-5538166D02*
X8634933Y-5538166D01*
X8754313Y-15007286D02*
X8754313Y-14953946D01*
D10*
X14025113Y-6503366D02*
X14025859Y-5538166D01*
X4833232Y-6676566D02*
G75*
G02*
X5150732Y-6676566I158750J0D01*
G01*
D11*
X5243063Y-9318880D02*
G75*
G02*
X5147806Y-9201964I24127J116920D01*
G01*
X13826993Y-7836866D02*
G75*
G02*
X13707614Y-7717486I-3J119376D01*
G01*
D10*
X14482313Y-13208966D02*
G75*
G02*
X14164813Y-13208966I-158750J0D01*
G01*
X14164797Y-7955790D02*
X14164813Y-7995616D01*
X5150732Y-6060616D02*
G75*
G02*
X4833232Y-6060616I-158750J0D01*
G01*
X5147813Y-13766916D02*
X5147813Y-11462868D01*
D11*
X8754313Y-15007286D02*
G75*
G02*
X8634933Y-15126673I-119383J-4D01*
G01*
X5147813Y-5657546D02*
G75*
G02*
X5267193Y-5538173I119377J-4D01*
G01*
D10*
X14482313Y-7995616D02*
X14482518Y-7638290D01*
D11*
X10786313Y-5657546D02*
G75*
G02*
X10905693Y-5538173I119377J-4D01*
G01*
D10*
X14164813Y-13824916D02*
X14164797Y-15006830D01*
X5147813Y-9201964D02*
X5147813Y-9144116D01*
D11*
X5338313Y-11229036D02*
G75*
G02*
X5243064Y-11345958I-119383J-4D01*
G01*
D10*
X14482313Y-10300666D02*
X14482313Y-8611566D01*
X3877813Y-5538166D02*
X3877813Y-15126666D01*
D11*
X10786313Y-5710886D02*
G75*
G02*
X10666933Y-5830273I-119383J-4D01*
G01*
D10*
X14482313Y-7995616D02*
G75*
G02*
X14164813Y-7995616I-158750J0D01*
G01*
X14482313Y-10300666D02*
G75*
G02*
X14164813Y-10300666I-158750J0D01*
G01*
X4830313Y-9144116D02*
G75*
G02*
X5147813Y-9144116I158750J0D01*
G01*
X14025113Y-6503366D02*
G75*
G02*
X13707613Y-6503366I-158750J0D01*
G01*
X14025113Y-7519366D02*
X14025113Y-7119316D01*
X14164813Y-8611566D02*
G75*
G02*
X14482313Y-8611566I158750J0D01*
G01*
X13707613Y-7717486D02*
X13707613Y-7119316D01*
D11*
X13588233Y-5538166D02*
G75*
G02*
X13707614Y-5657546I-3J-119384D01*
G01*
X14045433Y-7836866D02*
G75*
G02*
X14164795Y-7955790I437J-118924D01*
G01*
X10905693Y-5538166D02*
X13588233Y-5538166D01*
D10*
X14482297Y-15126666D02*
X14482313Y-13824916D01*
X14482297Y-5538166D02*
X15752297Y-5538166D01*
X5150732Y-6060616D02*
X5147813Y-5657546D01*
D11*
X10666933Y-14834566D02*
G75*
G02*
X10786314Y-14953946I-3J-119384D01*
G01*
D10*
X5147813Y-14382866D02*
X5147813Y-15007286D01*
D11*
X14363153Y-7519366D02*
G75*
G02*
X14482514Y-7638290I217J-119144D01*
G01*
D10*
X4830313Y-5538166D02*
X3877813Y-5538166D01*
X15752297Y-5538166D02*
X15752297Y-15126666D01*
D11*
X14045433Y-7836866D02*
X13826993Y-7836866D01*
D10*
X5147813Y-8528166D02*
G75*
G02*
X4830313Y-8528166I-158750J0D01*
G01*
X14164813Y-10916616D02*
G75*
G02*
X14482313Y-10916616I158750J0D01*
G01*
D11*
X8634933Y-15126666D02*
X5267193Y-15126666D01*
X5243063Y-9318880D02*
G75*
G02*
X5338314Y-9435796I-24133J-116920D01*
G01*
D10*
X4833232Y-6060616D02*
X4830313Y-5538166D01*
X4830313Y-8528166D02*
X4833232Y-6676566D01*
D11*
X5147813Y-11462868D02*
G75*
G02*
X5243064Y-11345956I119377J-2D01*
G01*
X8873693Y-5830266D02*
G75*
G02*
X8754314Y-5710886I-3J119376D01*
G01*
X10905693Y-15126666D02*
G75*
G02*
X10786314Y-15007286I-3J119376D01*
G01*
X14045433Y-15126666D02*
X10905693Y-15126666D01*
D10*
X14025859Y-5538166D02*
X14482297Y-5538166D01*
X3877813Y-15126666D02*
X4830313Y-15126666D01*
D11*
X14164797Y-15006830D02*
G75*
G02*
X14045433Y-15126667I-119828J-10D01*
G01*
D10*
X4830313Y-14382866D02*
G75*
G02*
X5147813Y-14382866I158750J0D01*
G01*
X13707613Y-6503366D02*
X13707613Y-5657546D01*
D11*
D10*
X5281833Y-8347248D02*
X5321833Y-8387248D01*
X5321833Y-8347248D02*
X5281833Y-8387248D01*
X5368916Y-5876831D02*
X5408916Y-5916831D01*
X5408916Y-5876831D02*
X5368916Y-5916831D01*
X5375833Y-6011248D02*
X5415833Y-6051248D01*
X5415833Y-6011248D02*
X5375833Y-6051248D01*
X5434333Y-8352248D02*
X5474333Y-8392248D01*
X5474333Y-8352248D02*
X5434333Y-8392248D01*
X5440833Y-8111248D02*
X5480833Y-8151248D01*
X5480833Y-8111248D02*
X5440833Y-8151248D01*
X5452048Y-6092490D02*
X5492048Y-6132490D01*
X5492048Y-6092490D02*
X5452048Y-6132490D01*
X5496833Y-9421248D02*
X5536833Y-9461248D01*
X5536833Y-9421248D02*
X5496833Y-9461248D01*
X5505833Y-10251248D02*
X5545833Y-10291248D01*
X5545833Y-10251248D02*
X5505833Y-10291248D01*
X5506941Y-9207248D02*
X5546941Y-9247248D01*
X5546941Y-9207248D02*
X5506941Y-9247248D01*
X5513283Y-7457248D02*
X5553283Y-7497248D01*
X5553283Y-7457248D02*
X5513283Y-7497248D01*
X5513283Y-7567248D02*
X5553283Y-7607248D01*
X5553283Y-7567248D02*
X5513283Y-7607248D01*
X5581283Y-9897698D02*
X5621283Y-9937698D01*
X5621283Y-9897698D02*
X5581283Y-9937698D01*
X5590833Y-6951248D02*
X5630833Y-6991248D01*
X5630833Y-6951248D02*
X5590833Y-6991248D01*
X5651832Y-10480248D02*
X5691832Y-10520248D01*
X5691832Y-10480248D02*
X5651832Y-10520248D01*
X5651833Y-10207248D02*
X5691833Y-10247248D01*
X5691833Y-10207248D02*
X5651833Y-10247248D01*
X5653833Y-10076248D02*
X5693833Y-10116248D01*
X5693833Y-10076248D02*
X5653833Y-10116248D01*
X5710813Y-6328666D02*
X5750813Y-6368666D01*
X5750813Y-6328666D02*
X5710813Y-6368666D01*
X5770313Y-9268166D02*
X5810313Y-9308166D01*
X5810313Y-9268166D02*
X5770313Y-9308166D01*
X5792833Y-10669248D02*
X5832833Y-10709248D01*
X5832833Y-10669248D02*
X5792833Y-10709248D01*
X5809050Y-8571248D02*
X5849050Y-8611248D01*
X5849050Y-8571248D02*
X5809050Y-8611248D01*
X5832833Y-7231248D02*
X5872833Y-7271248D01*
X5872833Y-7231248D02*
X5832833Y-7271248D01*
X5868833Y-9439248D02*
X5908833Y-9479248D01*
X5908833Y-9439248D02*
X5868833Y-9479248D01*
X5940000Y-8984000D02*
X5980000Y-9024000D01*
X5980000Y-8984000D02*
X5940000Y-9024000D01*
X5954000Y-8353000D02*
X5994000Y-8393000D01*
X5994000Y-8353000D02*
X5954000Y-8393000D01*
X6000313Y-7698166D02*
X6040313Y-7738166D01*
X6040313Y-7698166D02*
X6000313Y-7738166D01*
X6004845Y-9119950D02*
X6044845Y-9159950D01*
X6044845Y-9119950D02*
X6004845Y-9159950D01*
X6046000Y-8975000D02*
X6086000Y-9015000D01*
X6086000Y-8975000D02*
X6046000Y-9015000D01*
X6061833Y-13206248D02*
X6101833Y-13246248D01*
X6101833Y-13206248D02*
X6061833Y-13246248D01*
X6065833Y-12700248D02*
X6105833Y-12740248D01*
X6105833Y-12700248D02*
X6065833Y-12740248D01*
X6067833Y-7078248D02*
X6107833Y-7118248D01*
X6107833Y-7078248D02*
X6067833Y-7118248D01*
X6074833Y-11537248D02*
X6114833Y-11577248D01*
X6114833Y-11537248D02*
X6074833Y-11577248D01*
X6074833Y-12101248D02*
X6114833Y-12141248D01*
X6114833Y-12101248D02*
X6074833Y-12141248D01*
X6091833Y-9579554D02*
X6131833Y-9619554D01*
X6131833Y-9579554D02*
X6091833Y-9619554D01*
X6104715Y-9115942D02*
X6144715Y-9155942D01*
X6144715Y-9115942D02*
X6104715Y-9155942D01*
X6115813Y-6408666D02*
X6155813Y-6448666D01*
X6155813Y-6408666D02*
X6115813Y-6448666D01*
X6146833Y-11192248D02*
X6186833Y-11232248D01*
X6186833Y-11192248D02*
X6146833Y-11232248D01*
X6163283Y-10632248D02*
X6203283Y-10672248D01*
X6203283Y-10632248D02*
X6163283Y-10672248D01*
X6220313Y-9278166D02*
X6260313Y-9318166D01*
X6260313Y-9278166D02*
X6220313Y-9318166D01*
X6290313Y-8768166D02*
X6330313Y-8808166D01*
X6330313Y-8768166D02*
X6290313Y-8808166D01*
X6296833Y-7372248D02*
X6336833Y-7412248D01*
X6336833Y-7372248D02*
X6296833Y-7412248D01*
X6304333Y-9542248D02*
X6344333Y-9582248D01*
X6344333Y-9542248D02*
X6304333Y-9582248D01*
X6305813Y-6568666D02*
X6345813Y-6608666D01*
X6345813Y-6568666D02*
X6305813Y-6608666D01*
X6359532Y-7124947D02*
X6399532Y-7164947D01*
X6399532Y-7124947D02*
X6359532Y-7164947D01*
X6475813Y-5658666D02*
X6515813Y-5698666D01*
X6515813Y-5658666D02*
X6475813Y-5698666D01*
X6506833Y-9874748D02*
X6546833Y-9914748D01*
X6546833Y-9874748D02*
X6506833Y-9914748D01*
X6540833Y-8426348D02*
X6580833Y-8466348D01*
X6580833Y-8426348D02*
X6540833Y-8466348D01*
X6746833Y-7252248D02*
X6786833Y-7292248D01*
X6786833Y-7252248D02*
X6746833Y-7292248D01*
X6840313Y-8758166D02*
X6880313Y-8798166D01*
X6880313Y-8758166D02*
X6840313Y-8798166D01*
X6894000Y-7589000D02*
X6934000Y-7629000D01*
X6934000Y-7589000D02*
X6894000Y-7629000D01*
X6922833Y-9755248D02*
X6962833Y-9795248D01*
X6962833Y-9755248D02*
X6922833Y-9795248D01*
X6964833Y-10194248D02*
X7004833Y-10234248D01*
X7004833Y-10194248D02*
X6964833Y-10234248D01*
X7019000Y-8753000D02*
X7059000Y-8793000D01*
X7059000Y-8753000D02*
X7019000Y-8793000D01*
X7022311Y-9745543D02*
X7062311Y-9785543D01*
X7062311Y-9745543D02*
X7022311Y-9785543D01*
X7035000Y-7375000D02*
X7075000Y-7415000D01*
X7075000Y-7375000D02*
X7035000Y-7415000D01*
X7086000Y-10327000D02*
X7126000Y-10367000D01*
X7126000Y-10327000D02*
X7086000Y-10367000D01*
X7120313Y-8378166D02*
X7160313Y-8418166D01*
X7160313Y-8378166D02*
X7120313Y-8418166D01*
X7212554Y-7113781D02*
X7252554Y-7153781D01*
X7252554Y-7113781D02*
X7212554Y-7153781D01*
X7224000Y-9985000D02*
X7264000Y-10025000D01*
X7264000Y-9985000D02*
X7224000Y-10025000D01*
X7305000Y-7405000D02*
X7345000Y-7445000D01*
X7345000Y-7405000D02*
X7305000Y-7445000D01*
X7308000Y-8877000D02*
X7348000Y-8917000D01*
X7348000Y-8877000D02*
X7308000Y-8917000D01*
X7327000Y-7515000D02*
X7367000Y-7555000D01*
X7367000Y-7515000D02*
X7327000Y-7555000D01*
X7345000Y-10321000D02*
X7385000Y-10361000D01*
X7385000Y-10321000D02*
X7345000Y-10361000D01*
X7390313Y-10618166D02*
X7430313Y-10658166D01*
X7430313Y-10618166D02*
X7390313Y-10658166D01*
X7416255Y-7039724D02*
X7456255Y-7079724D01*
X7456255Y-7039724D02*
X7416255Y-7079724D01*
X7417395Y-7395564D02*
X7457395Y-7435564D01*
X7457395Y-7395564D02*
X7417395Y-7435564D01*
X7495000Y-9919000D02*
X7535000Y-9959000D01*
X7535000Y-9919000D02*
X7495000Y-9959000D01*
X7506000Y-8035000D02*
X7546000Y-8075000D01*
X7546000Y-8035000D02*
X7506000Y-8075000D01*
X7511000Y-8161000D02*
X7551000Y-8201000D01*
X7551000Y-8161000D02*
X7511000Y-8201000D01*
X7518833Y-8294248D02*
X7558833Y-8334248D01*
X7558833Y-8294248D02*
X7518833Y-8334248D01*
X7519833Y-8625248D02*
X7559833Y-8665248D01*
X7559833Y-8625248D02*
X7519833Y-8665248D01*
X7604000Y-10313000D02*
X7644000Y-10353000D01*
X7644000Y-10313000D02*
X7604000Y-10353000D01*
X7615813Y-7152998D02*
X7655813Y-7192998D01*
X7655813Y-7152998D02*
X7615813Y-7192998D01*
X7661833Y-7774748D02*
X7701833Y-7814748D01*
X7701833Y-7774748D02*
X7661833Y-7814748D01*
X7671833Y-7928248D02*
X7711833Y-7968248D01*
X7711833Y-7928248D02*
X7671833Y-7968248D01*
X7676450Y-9920248D02*
X7716450Y-9960248D01*
X7716450Y-9920248D02*
X7676450Y-9960248D01*
X7690833Y-8990248D02*
X7730833Y-9030248D01*
X7730833Y-8990248D02*
X7690833Y-9030248D01*
X7700313Y-8798166D02*
X7740313Y-8838166D01*
X7740313Y-8798166D02*
X7700313Y-8838166D01*
X7779833Y-9758450D02*
X7819833Y-9798450D01*
X7819833Y-9758450D02*
X7779833Y-9798450D01*
X7789000Y-9031000D02*
X7829000Y-9071000D01*
X7829000Y-9031000D02*
X7789000Y-9071000D01*
X7861500Y-9427903D02*
X7901500Y-9467903D01*
X7901500Y-9427903D02*
X7861500Y-9467903D01*
X7869000Y-9122000D02*
X7909000Y-9162000D01*
X7909000Y-9122000D02*
X7869000Y-9162000D01*
X7881833Y-7357248D02*
X7921833Y-7397248D01*
X7921833Y-7357248D02*
X7881833Y-7397248D01*
X7908833Y-10342248D02*
X7948833Y-10382248D01*
X7948833Y-10342248D02*
X7908833Y-10382248D01*
X7909833Y-10038248D02*
X7949833Y-10078248D01*
X7949833Y-10038248D02*
X7909833Y-10078248D01*
X7950803Y-9382951D02*
X7990803Y-9422951D01*
X7990803Y-9382951D02*
X7950803Y-9422951D01*
X8028833Y-9625698D02*
X8068833Y-9665698D01*
X8068833Y-9625698D02*
X8028833Y-9665698D01*
X8031833Y-10472248D02*
X8071833Y-10512248D01*
X8071833Y-10472248D02*
X8031833Y-10512248D01*
X8084000Y-8035000D02*
X8124000Y-8075000D01*
X8124000Y-8035000D02*
X8084000Y-8075000D01*
X8130313Y-8388166D02*
X8170313Y-8428166D01*
X8170313Y-8388166D02*
X8130313Y-8428166D01*
X8161000Y-8159000D02*
X8201000Y-8199000D01*
X8201000Y-8159000D02*
X8161000Y-8199000D01*
X8173833Y-10315248D02*
X8213833Y-10355248D01*
X8213833Y-10315248D02*
X8173833Y-10355248D01*
X8242000Y-8263000D02*
X8282000Y-8303000D01*
X8282000Y-8263000D02*
X8242000Y-8303000D01*
X8306833Y-9742248D02*
X8346833Y-9782248D01*
X8346833Y-9742248D02*
X8306833Y-9782248D01*
X8385813Y-7438666D02*
X8425813Y-7478666D01*
X8425813Y-7438666D02*
X8385813Y-7478666D01*
X8490313Y-8398166D02*
X8530313Y-8438166D01*
X8530313Y-8398166D02*
X8490313Y-8438166D01*
X8610313Y-9178166D02*
X8650313Y-9218166D01*
X8650313Y-9178166D02*
X8610313Y-9218166D01*
X8644333Y-8734748D02*
X8684333Y-8774748D01*
X8684333Y-8734748D02*
X8644333Y-8774748D01*
X8725813Y-8038666D02*
X8765813Y-8078666D01*
X8765813Y-8038666D02*
X8725813Y-8078666D01*
X8840313Y-8328166D02*
X8880313Y-8368166D01*
X8880313Y-8328166D02*
X8840313Y-8368166D01*
X8850313Y-8118166D02*
X8890313Y-8158166D01*
X8890313Y-8118166D02*
X8850313Y-8158166D01*
X8905813Y-7958666D02*
X8945813Y-7998666D01*
X8945813Y-7958666D02*
X8905813Y-7998666D01*
X8970313Y-9028166D02*
X9010313Y-9068166D01*
X9010313Y-9028166D02*
X8970313Y-9068166D01*
X9010313Y-8428166D02*
X9050313Y-8468166D01*
X9050313Y-8428166D02*
X9010313Y-8468166D01*
X9016979Y-8591500D02*
X9056979Y-8631500D01*
X9056979Y-8591500D02*
X9016979Y-8631500D01*
X9020313Y-9308166D02*
X9060313Y-9348166D01*
X9060313Y-9308166D02*
X9020313Y-9348166D01*
X9210313Y-8428166D02*
X9250313Y-8468166D01*
X9250313Y-8428166D02*
X9210313Y-8468166D01*
X9430313Y-9068166D02*
X9470313Y-9108166D01*
X9470313Y-9068166D02*
X9430313Y-9108166D01*
X9477833Y-9857248D02*
X9517833Y-9897248D01*
X9517833Y-9857248D02*
X9477833Y-9897248D01*
X9537833Y-9758450D02*
X9577833Y-9798450D01*
X9577833Y-9758450D02*
X9537833Y-9798450D01*
X9570833Y-9160248D02*
X9610833Y-9200248D01*
X9610833Y-9160248D02*
X9570833Y-9200248D01*
X9645833Y-12394248D02*
X9685833Y-12434248D01*
X9685833Y-12394248D02*
X9645833Y-12434248D01*
X9750313Y-7657666D02*
X9790313Y-7697666D01*
X9790313Y-7657666D02*
X9750313Y-7697666D01*
X9750833Y-9147248D02*
X9790833Y-9187248D01*
X9790833Y-9147248D02*
X9750833Y-9187248D01*
X9770313Y-8048166D02*
X9810313Y-8088166D01*
X9810313Y-8048166D02*
X9770313Y-8088166D01*
X9777833Y-12416248D02*
X9817833Y-12456248D01*
X9817833Y-12416248D02*
X9777833Y-12456248D01*
X9865813Y-7678666D02*
X9905813Y-7718666D01*
X9905813Y-7678666D02*
X9865813Y-7718666D01*
X9970313Y-8138166D02*
X10010313Y-8178166D01*
X10010313Y-8138166D02*
X9970313Y-8178166D01*
X10022833Y-9883248D02*
X10062833Y-9923248D01*
X10062833Y-9883248D02*
X10022833Y-9923248D01*
X10106493Y-7417986D02*
X10146493Y-7457986D01*
X10146493Y-7417986D02*
X10106493Y-7457986D01*
X10160313Y-8428166D02*
X10200313Y-8468166D01*
X10200313Y-8428166D02*
X10160313Y-8468166D01*
X10186000Y-9165000D02*
X10226000Y-9205000D01*
X10226000Y-9165000D02*
X10186000Y-9205000D01*
X10526000Y-9456000D02*
X10566000Y-9496000D01*
X10566000Y-9456000D02*
X10526000Y-9496000D01*
X10553833Y-12186248D02*
X10593833Y-12226248D01*
X10593833Y-12186248D02*
X10553833Y-12226248D01*
X10878000Y-9852000D02*
X10918000Y-9892000D01*
X10918000Y-9852000D02*
X10878000Y-9892000D01*
X11126000Y-9686000D02*
X11166000Y-9726000D01*
X11166000Y-9686000D02*
X11126000Y-9726000D01*
X11397492Y-8973480D02*
X11437492Y-9013480D01*
X11437492Y-8973480D02*
X11397492Y-9013480D01*
X11404000Y-10633000D02*
X11444000Y-10673000D01*
X11444000Y-10633000D02*
X11404000Y-10673000D01*
X11510000Y-9550000D02*
X11550000Y-9590000D01*
X11550000Y-9550000D02*
X11510000Y-9590000D01*
X11525000Y-9141500D02*
X11565000Y-9181500D01*
X11565000Y-9141500D02*
X11525000Y-9181500D01*
X11614000Y-9068000D02*
X11654000Y-9108000D01*
X11654000Y-9068000D02*
X11614000Y-9108000D01*
X11649863Y-7092950D02*
X11689863Y-7132950D01*
X11689863Y-7092950D02*
X11649863Y-7132950D01*
X11876500Y-8854000D02*
X11916500Y-8894000D01*
X11916500Y-8854000D02*
X11876500Y-8894000D01*
X11897239Y-7020450D02*
X11937239Y-7060450D01*
X11937239Y-7020450D02*
X11897239Y-7060450D01*
X11898915Y-9143085D02*
X11938915Y-9183085D01*
X11938915Y-9143085D02*
X11898915Y-9183085D01*
X11949000Y-7621000D02*
X11989000Y-7661000D01*
X11989000Y-7621000D02*
X11949000Y-7661000D01*
X11952500Y-10034000D02*
X11992500Y-10074000D01*
X11992500Y-10034000D02*
X11952500Y-10074000D01*
X12021500Y-7370000D02*
X12061500Y-7410000D01*
X12061500Y-7370000D02*
X12021500Y-7410000D01*
X12230313Y-9608166D02*
X12270313Y-9648166D01*
X12270313Y-9608166D02*
X12230313Y-9648166D01*
X12270313Y-8428166D02*
X12310313Y-8468166D01*
X12310313Y-8428166D02*
X12270313Y-8468166D01*
X12382000Y-7506000D02*
X12422000Y-7546000D01*
X12422000Y-7506000D02*
X12382000Y-7546000D01*
X12385000Y-9953000D02*
X12425000Y-9993000D01*
X12425000Y-9953000D02*
X12385000Y-9993000D01*
X12395000Y-8715000D02*
X12435000Y-8755000D01*
X12435000Y-8715000D02*
X12395000Y-8755000D01*
X12556833Y-8181248D02*
X12596833Y-8221248D01*
X12596833Y-8181248D02*
X12556833Y-8221248D01*
X12800313Y-7268166D02*
X12840313Y-7308166D01*
X12840313Y-7268166D02*
X12800313Y-7308166D01*
X13325813Y-8668666D02*
X13365813Y-8708666D01*
X13365813Y-8668666D02*
X13325813Y-8708666D01*
X13335813Y-8818666D02*
X13375813Y-8858666D01*
X13375813Y-8818666D02*
X13335813Y-8858666D01*
X13345813Y-10108666D02*
X13385813Y-10148666D01*
X13385813Y-10108666D02*
X13345813Y-10148666D01*
X13355813Y-9948666D02*
X13395813Y-9988666D01*
X13395813Y-9948666D02*
X13355813Y-9988666D01*
X13380813Y-7666166D02*
X13420813Y-7706166D01*
X13420813Y-7666166D02*
X13380813Y-7706166D01*
X13383313Y-7511166D02*
X13423313Y-7551166D01*
X13423313Y-7511166D02*
X13383313Y-7551166D01*
X5504333Y-13441248D02*
G75*
G02*
X5414333Y-13441248I-45000J0D01*
G01*
X5414333Y-13441248D02*
G75*
G02*
X5504333Y-13441248I45000J0D01*
G01*
X5512333Y-12897248D02*
G75*
G02*
X5422333Y-12897248I-45000J0D01*
G01*
X5422333Y-12897248D02*
G75*
G02*
X5512333Y-12897248I45000J0D01*
G01*
X5519333Y-12306248D02*
G75*
G02*
X5429333Y-12306248I-45000J0D01*
G01*
X5429333Y-12306248D02*
G75*
G02*
X5519333Y-12306248I45000J0D01*
G01*
X5522333Y-11732248D02*
G75*
G02*
X5432333Y-11732248I-45000J0D01*
G01*
X5432333Y-11732248D02*
G75*
G02*
X5522333Y-11732248I45000J0D01*
G01*
X5758333Y-13441248D02*
G75*
G02*
X5668333Y-13441248I-45000J0D01*
G01*
X5668333Y-13441248D02*
G75*
G02*
X5758333Y-13441248I45000J0D01*
G01*
X5766333Y-12897248D02*
G75*
G02*
X5676333Y-12897248I-45000J0D01*
G01*
X5676333Y-12897248D02*
G75*
G02*
X5766333Y-12897248I45000J0D01*
G01*
X5773333Y-12306248D02*
G75*
G02*
X5683333Y-12306248I-45000J0D01*
G01*
X5683333Y-12306248D02*
G75*
G02*
X5773333Y-12306248I45000J0D01*
G01*
X5776333Y-11732248D02*
G75*
G02*
X5686333Y-11732248I-45000J0D01*
G01*
X5686333Y-11732248D02*
G75*
G02*
X5776333Y-11732248I45000J0D01*
G01*
X6544813Y-5996166D02*
X6544813Y-6096166D01*
X6494813Y-6046166D02*
X6594813Y-6046166D01*
X6544813Y-6250166D02*
X6544813Y-6350166D01*
X6494813Y-6300166D02*
X6594813Y-6300166D01*
X6544813Y-6504166D02*
X6544813Y-6604166D01*
X6494813Y-6554166D02*
X6594813Y-6554166D01*
X6544813Y-6758166D02*
X6544813Y-6858166D01*
X6494813Y-6808166D02*
X6594813Y-6808166D01*
X6798813Y-5995166D02*
X6798813Y-6095166D01*
X6748813Y-6045166D02*
X6848813Y-6045166D01*
X6798813Y-6250166D02*
X6798813Y-6350166D01*
X6748813Y-6300166D02*
X6848813Y-6300166D01*
X6798813Y-6503166D02*
X6798813Y-6603166D01*
X6748813Y-6553166D02*
X6848813Y-6553166D01*
X6798813Y-6758166D02*
X6798813Y-6858166D01*
X6748813Y-6808166D02*
X6848813Y-6808166D01*
X7052813Y-5995166D02*
X7052813Y-6095166D01*
X7002813Y-6045166D02*
X7102813Y-6045166D01*
X7052813Y-6250166D02*
X7052813Y-6350166D01*
X7002813Y-6300166D02*
X7102813Y-6300166D01*
X7052813Y-6503166D02*
X7052813Y-6603166D01*
X7002813Y-6553166D02*
X7102813Y-6553166D01*
X7052813Y-6758166D02*
X7052813Y-6858166D01*
X7002813Y-6808166D02*
X7102813Y-6808166D01*
X7237000Y-10918000D02*
X7237000Y-11018000D01*
X7187000Y-10968000D02*
X7287000Y-10968000D01*
X7237000Y-11172000D02*
X7237000Y-11272000D01*
X7187000Y-11222000D02*
X7287000Y-11222000D01*
X7306813Y-5995166D02*
X7306813Y-6095166D01*
X7256813Y-6045166D02*
X7356813Y-6045166D01*
X7306813Y-6250166D02*
X7306813Y-6350166D01*
X7256813Y-6300166D02*
X7356813Y-6300166D01*
X7306813Y-6503166D02*
X7306813Y-6603166D01*
X7256813Y-6553166D02*
X7356813Y-6553166D01*
X7306813Y-6758166D02*
X7306813Y-6858166D01*
X7256813Y-6808166D02*
X7356813Y-6808166D01*
X7491000Y-10918000D02*
X7491000Y-11018000D01*
X7441000Y-10968000D02*
X7541000Y-10968000D01*
X7491000Y-11172000D02*
X7491000Y-11272000D01*
X7441000Y-11222000D02*
X7541000Y-11222000D01*
X7560813Y-5995166D02*
X7560813Y-6095166D01*
X7510813Y-6045166D02*
X7610813Y-6045166D01*
X7560813Y-6250166D02*
X7560813Y-6350166D01*
X7510813Y-6300166D02*
X7610813Y-6300166D01*
X7560813Y-6503166D02*
X7560813Y-6603166D01*
X7510813Y-6553166D02*
X7610813Y-6553166D01*
X7560813Y-6758166D02*
X7560813Y-6858166D01*
X7510813Y-6808166D02*
X7610813Y-6808166D01*
X7745000Y-10918000D02*
X7745000Y-11018000D01*
X7695000Y-10968000D02*
X7795000Y-10968000D01*
X7745000Y-11172000D02*
X7745000Y-11272000D01*
X7695000Y-11222000D02*
X7795000Y-11222000D01*
X7814813Y-5995166D02*
X7814813Y-6095166D01*
X7764813Y-6045166D02*
X7864813Y-6045166D01*
X7814813Y-6250166D02*
X7814813Y-6350166D01*
X7764813Y-6300166D02*
X7864813Y-6300166D01*
X7814813Y-6503166D02*
X7814813Y-6603166D01*
X7764813Y-6553166D02*
X7864813Y-6553166D01*
X7814813Y-6758166D02*
X7814813Y-6858166D01*
X7764813Y-6808166D02*
X7864813Y-6808166D01*
X7999000Y-10918000D02*
X7999000Y-11018000D01*
X7949000Y-10968000D02*
X8049000Y-10968000D01*
X7999000Y-11172000D02*
X7999000Y-11272000D01*
X7949000Y-11222000D02*
X8049000Y-11222000D01*
X8068813Y-5995166D02*
X8068813Y-6095166D01*
X8018813Y-6045166D02*
X8118813Y-6045166D01*
X8068813Y-6250166D02*
X8068813Y-6350166D01*
X8018813Y-6300166D02*
X8118813Y-6300166D01*
X8068813Y-6503166D02*
X8068813Y-6603166D01*
X8018813Y-6553166D02*
X8118813Y-6553166D01*
X8068813Y-6758166D02*
X8068813Y-6858166D01*
X8018813Y-6808166D02*
X8118813Y-6808166D01*
X8253000Y-10918000D02*
X8253000Y-11018000D01*
X8203000Y-10968000D02*
X8303000Y-10968000D01*
X8253000Y-11172000D02*
X8253000Y-11272000D01*
X8203000Y-11222000D02*
X8303000Y-11222000D01*
X8322813Y-5995166D02*
X8322813Y-6095166D01*
X8272813Y-6045166D02*
X8372813Y-6045166D01*
X8322813Y-6250166D02*
X8322813Y-6350166D01*
X8272813Y-6300166D02*
X8372813Y-6300166D01*
X8322813Y-6503166D02*
X8322813Y-6603166D01*
X8272813Y-6553166D02*
X8372813Y-6553166D01*
X8322813Y-6758166D02*
X8322813Y-6858166D01*
X8272813Y-6808166D02*
X8372813Y-6808166D01*
X8507000Y-10918000D02*
X8507000Y-11018000D01*
X8457000Y-10968000D02*
X8557000Y-10968000D01*
X8507000Y-11172000D02*
X8507000Y-11272000D01*
X8457000Y-11222000D02*
X8557000Y-11222000D01*
X8576813Y-5995166D02*
X8576813Y-6095166D01*
X8526813Y-6045166D02*
X8626813Y-6045166D01*
X8576813Y-6250166D02*
X8576813Y-6350166D01*
X8526813Y-6300166D02*
X8626813Y-6300166D01*
X8576813Y-6503166D02*
X8576813Y-6603166D01*
X8526813Y-6553166D02*
X8626813Y-6553166D01*
X8576813Y-6758166D02*
X8576813Y-6858166D01*
X8526813Y-6808166D02*
X8626813Y-6808166D01*
X8761000Y-10918000D02*
X8761000Y-11018000D01*
X8711000Y-10968000D02*
X8811000Y-10968000D01*
X8761000Y-11172000D02*
X8761000Y-11272000D01*
X8711000Y-11222000D02*
X8811000Y-11222000D01*
X8830813Y-5995166D02*
X8830813Y-6095166D01*
X8780813Y-6045166D02*
X8880813Y-6045166D01*
X8830813Y-6250166D02*
X8830813Y-6350166D01*
X8780813Y-6300166D02*
X8880813Y-6300166D01*
X8830813Y-6503166D02*
X8830813Y-6603166D01*
X8780813Y-6553166D02*
X8880813Y-6553166D01*
X8830813Y-6758166D02*
X8830813Y-6858166D01*
X8780813Y-6808166D02*
X8880813Y-6808166D01*
X9015000Y-10918000D02*
X9015000Y-11018000D01*
X8965000Y-10968000D02*
X9065000Y-10968000D01*
X9015000Y-11172000D02*
X9015000Y-11272000D01*
X8965000Y-11222000D02*
X9065000Y-11222000D01*
X9084813Y-5995166D02*
X9084813Y-6095166D01*
X9034813Y-6045166D02*
X9134813Y-6045166D01*
X9084813Y-6250166D02*
X9084813Y-6350166D01*
X9034813Y-6300166D02*
X9134813Y-6300166D01*
X9084813Y-6503166D02*
X9084813Y-6603166D01*
X9034813Y-6553166D02*
X9134813Y-6553166D01*
X9084813Y-6758166D02*
X9084813Y-6858166D01*
X9034813Y-6808166D02*
X9134813Y-6808166D01*
X9269000Y-10918000D02*
X9269000Y-11018000D01*
X9219000Y-10968000D02*
X9319000Y-10968000D01*
X9269000Y-11172000D02*
X9269000Y-11272000D01*
X9219000Y-11222000D02*
X9319000Y-11222000D01*
X9317313Y-8908666D02*
X9317313Y-9008666D01*
X9267313Y-8958666D02*
X9367313Y-8958666D01*
X9321146Y-8656914D02*
X9321146Y-8756914D01*
X9271146Y-8706914D02*
X9371146Y-8706914D01*
X9338813Y-5995166D02*
X9338813Y-6095166D01*
X9288813Y-6045166D02*
X9388813Y-6045166D01*
X9338813Y-6250166D02*
X9338813Y-6350166D01*
X9288813Y-6300166D02*
X9388813Y-6300166D01*
X9338813Y-6503166D02*
X9338813Y-6603166D01*
X9288813Y-6553166D02*
X9388813Y-6553166D01*
X9338813Y-6758166D02*
X9338813Y-6858166D01*
X9288813Y-6808166D02*
X9388813Y-6808166D01*
X9523000Y-10918000D02*
X9523000Y-11018000D01*
X9473000Y-10968000D02*
X9573000Y-10968000D01*
X9523000Y-11172000D02*
X9523000Y-11272000D01*
X9473000Y-11222000D02*
X9573000Y-11222000D01*
X9571313Y-8908666D02*
X9571313Y-9008666D01*
X9521313Y-8958666D02*
X9621313Y-8958666D01*
X9575146Y-8656914D02*
X9575146Y-8756914D01*
X9525146Y-8706914D02*
X9625146Y-8706914D01*
X9592813Y-5995166D02*
X9592813Y-6095166D01*
X9542813Y-6045166D02*
X9642813Y-6045166D01*
X9592813Y-6250166D02*
X9592813Y-6350166D01*
X9542813Y-6300166D02*
X9642813Y-6300166D01*
X9592813Y-6503166D02*
X9592813Y-6603166D01*
X9542813Y-6553166D02*
X9642813Y-6553166D01*
X9592813Y-6758166D02*
X9592813Y-6858166D01*
X9542813Y-6808166D02*
X9642813Y-6808166D01*
X9777000Y-10918000D02*
X9777000Y-11018000D01*
X9727000Y-10968000D02*
X9827000Y-10968000D01*
X9777000Y-11172000D02*
X9777000Y-11272000D01*
X9727000Y-11222000D02*
X9827000Y-11222000D01*
X9825313Y-8908666D02*
X9825313Y-9008666D01*
X9775313Y-8958666D02*
X9875313Y-8958666D01*
X9829146Y-8656914D02*
X9829146Y-8756914D01*
X9779146Y-8706914D02*
X9879146Y-8706914D01*
X9846813Y-5995166D02*
X9846813Y-6095166D01*
X9796813Y-6045166D02*
X9896813Y-6045166D01*
X9846813Y-6250166D02*
X9846813Y-6350166D01*
X9796813Y-6300166D02*
X9896813Y-6300166D01*
X9846813Y-6503166D02*
X9846813Y-6603166D01*
X9796813Y-6553166D02*
X9896813Y-6553166D01*
X9846813Y-6758166D02*
X9846813Y-6858166D01*
X9796813Y-6808166D02*
X9896813Y-6808166D01*
X10031000Y-10918000D02*
X10031000Y-11018000D01*
X9981000Y-10968000D02*
X10081000Y-10968000D01*
X10031000Y-11172000D02*
X10031000Y-11272000D01*
X9981000Y-11222000D02*
X10081000Y-11222000D01*
X10079313Y-8908666D02*
X10079313Y-9008666D01*
X10029313Y-8958666D02*
X10129313Y-8958666D01*
X10083146Y-8656914D02*
X10083146Y-8756914D01*
X10033146Y-8706914D02*
X10133146Y-8706914D01*
X10100813Y-5995166D02*
X10100813Y-6095166D01*
X10050813Y-6045166D02*
X10150813Y-6045166D01*
X10100813Y-6250166D02*
X10100813Y-6350166D01*
X10050813Y-6300166D02*
X10150813Y-6300166D01*
X10100813Y-6503166D02*
X10100813Y-6603166D01*
X10050813Y-6553166D02*
X10150813Y-6553166D01*
X10100813Y-6758166D02*
X10100813Y-6858166D01*
X10050813Y-6808166D02*
X10150813Y-6808166D01*
X10285000Y-10918000D02*
X10285000Y-11018000D01*
X10235000Y-10968000D02*
X10335000Y-10968000D01*
X10285000Y-11172000D02*
X10285000Y-11272000D01*
X10235000Y-11222000D02*
X10335000Y-11222000D01*
X10333313Y-8908666D02*
X10333313Y-9008666D01*
X10283313Y-8958666D02*
X10383313Y-8958666D01*
X10337146Y-8656914D02*
X10337146Y-8756914D01*
X10287146Y-8706914D02*
X10387146Y-8706914D01*
X10354813Y-5995166D02*
X10354813Y-6095166D01*
X10304813Y-6045166D02*
X10404813Y-6045166D01*
X10354813Y-6250166D02*
X10354813Y-6350166D01*
X10304813Y-6300166D02*
X10404813Y-6300166D01*
X10354813Y-6503166D02*
X10354813Y-6603166D01*
X10304813Y-6553166D02*
X10404813Y-6553166D01*
X10354813Y-6758166D02*
X10354813Y-6858166D01*
X10304813Y-6808166D02*
X10404813Y-6808166D01*
X10539000Y-10918000D02*
X10539000Y-11018000D01*
X10489000Y-10968000D02*
X10589000Y-10968000D01*
X10539000Y-11172000D02*
X10539000Y-11272000D01*
X10489000Y-11222000D02*
X10589000Y-11222000D01*
X10608813Y-5995166D02*
X10608813Y-6095166D01*
X10558813Y-6045166D02*
X10658813Y-6045166D01*
X10608813Y-6250166D02*
X10608813Y-6350166D01*
X10558813Y-6300166D02*
X10658813Y-6300166D01*
X10608813Y-6503166D02*
X10608813Y-6603166D01*
X10558813Y-6553166D02*
X10658813Y-6553166D01*
X10608813Y-6758166D02*
X10608813Y-6858166D01*
X10558813Y-6808166D02*
X10658813Y-6808166D01*
X10793000Y-10918000D02*
X10793000Y-11018000D01*
X10743000Y-10968000D02*
X10843000Y-10968000D01*
X10793000Y-11172000D02*
X10793000Y-11272000D01*
X10743000Y-11222000D02*
X10843000Y-11222000D01*
X10862813Y-5995166D02*
X10862813Y-6095166D01*
X10812813Y-6045166D02*
X10912813Y-6045166D01*
X10862813Y-6250166D02*
X10862813Y-6350166D01*
X10812813Y-6300166D02*
X10912813Y-6300166D01*
X10862813Y-6503166D02*
X10862813Y-6603166D01*
X10812813Y-6553166D02*
X10912813Y-6553166D01*
X10862813Y-6758166D02*
X10862813Y-6858166D01*
X10812813Y-6808166D02*
X10912813Y-6808166D01*
X11047000Y-10918000D02*
X11047000Y-11018000D01*
X10997000Y-10968000D02*
X11097000Y-10968000D01*
X11047000Y-11172000D02*
X11047000Y-11272000D01*
X10997000Y-11222000D02*
X11097000Y-11222000D01*
X11116813Y-5995166D02*
X11116813Y-6095166D01*
X11066813Y-6045166D02*
X11166813Y-6045166D01*
X11116813Y-6250166D02*
X11116813Y-6350166D01*
X11066813Y-6300166D02*
X11166813Y-6300166D01*
X11116813Y-6503166D02*
X11116813Y-6603166D01*
X11066813Y-6553166D02*
X11166813Y-6553166D01*
X11116813Y-6758166D02*
X11116813Y-6858166D01*
X11066813Y-6808166D02*
X11166813Y-6808166D01*
X11301000Y-10918000D02*
X11301000Y-11018000D01*
X11251000Y-10968000D02*
X11351000Y-10968000D01*
X11301000Y-11172000D02*
X11301000Y-11272000D01*
X11251000Y-11222000D02*
X11351000Y-11222000D01*
X11370813Y-5995166D02*
X11370813Y-6095166D01*
X11320813Y-6045166D02*
X11420813Y-6045166D01*
X11370813Y-6250166D02*
X11370813Y-6350166D01*
X11320813Y-6300166D02*
X11420813Y-6300166D01*
X11370813Y-6503166D02*
X11370813Y-6603166D01*
X11320813Y-6553166D02*
X11420813Y-6553166D01*
X11370813Y-6758166D02*
X11370813Y-6858166D01*
X11320813Y-6808166D02*
X11420813Y-6808166D01*
X11555000Y-10918000D02*
X11555000Y-11018000D01*
X11505000Y-10968000D02*
X11605000Y-10968000D01*
X11555000Y-11172000D02*
X11555000Y-11272000D01*
X11505000Y-11222000D02*
X11605000Y-11222000D01*
X11624813Y-5995166D02*
X11624813Y-6095166D01*
X11574813Y-6045166D02*
X11674813Y-6045166D01*
X11624813Y-6250166D02*
X11624813Y-6350166D01*
X11574813Y-6300166D02*
X11674813Y-6300166D01*
X11624813Y-6503166D02*
X11624813Y-6603166D01*
X11574813Y-6553166D02*
X11674813Y-6553166D01*
X11624813Y-6758166D02*
X11624813Y-6858166D01*
X11574813Y-6808166D02*
X11674813Y-6808166D01*
X11809000Y-10918000D02*
X11809000Y-11018000D01*
X11759000Y-10968000D02*
X11859000Y-10968000D01*
X11809000Y-11172000D02*
X11809000Y-11272000D01*
X11759000Y-11222000D02*
X11859000Y-11222000D01*
X11878813Y-5995166D02*
X11878813Y-6095166D01*
X11828813Y-6045166D02*
X11928813Y-6045166D01*
X11878813Y-6250166D02*
X11878813Y-6350166D01*
X11828813Y-6300166D02*
X11928813Y-6300166D01*
X11878813Y-6503166D02*
X11878813Y-6603166D01*
X11828813Y-6553166D02*
X11928813Y-6553166D01*
X11878813Y-6758166D02*
X11878813Y-6858166D01*
X11828813Y-6808166D02*
X11928813Y-6808166D01*
X12063000Y-10918000D02*
X12063000Y-11018000D01*
X12013000Y-10968000D02*
X12113000Y-10968000D01*
X12063000Y-11172000D02*
X12063000Y-11272000D01*
X12013000Y-11222000D02*
X12113000Y-11222000D01*
X12132813Y-5995166D02*
X12132813Y-6095166D01*
X12082813Y-6045166D02*
X12182813Y-6045166D01*
X12132813Y-6250166D02*
X12132813Y-6350166D01*
X12082813Y-6300166D02*
X12182813Y-6300166D01*
X12132813Y-6503166D02*
X12132813Y-6603166D01*
X12082813Y-6553166D02*
X12182813Y-6553166D01*
X12132813Y-6758166D02*
X12132813Y-6858166D01*
X12082813Y-6808166D02*
X12182813Y-6808166D01*
X12386813Y-5995166D02*
X12386813Y-6095166D01*
X12336813Y-6045166D02*
X12436813Y-6045166D01*
X12386813Y-6250166D02*
X12386813Y-6350166D01*
X12336813Y-6300166D02*
X12436813Y-6300166D01*
X12386813Y-6503166D02*
X12386813Y-6603166D01*
X12336813Y-6553166D02*
X12436813Y-6553166D01*
X12386813Y-6758166D02*
X12386813Y-6858166D01*
X12336813Y-6808166D02*
X12436813Y-6808166D01*
X12640813Y-5995166D02*
X12640813Y-6095166D01*
X12590813Y-6045166D02*
X12690813Y-6045166D01*
X12640813Y-6250166D02*
X12640813Y-6350166D01*
X12590813Y-6300166D02*
X12690813Y-6300166D01*
X12640813Y-6503166D02*
X12640813Y-6603166D01*
X12590813Y-6553166D02*
X12690813Y-6553166D01*
X12640813Y-6758166D02*
X12640813Y-6858166D01*
X12590813Y-6808166D02*
X12690813Y-6808166D01*
X12894813Y-5995166D02*
X12894813Y-6095166D01*
X12844813Y-6045166D02*
X12944813Y-6045166D01*
X12894813Y-6250166D02*
X12894813Y-6350166D01*
X12844813Y-6300166D02*
X12944813Y-6300166D01*
X12894813Y-6503166D02*
X12894813Y-6603166D01*
X12844813Y-6553166D02*
X12944813Y-6553166D01*
X12894813Y-6758166D02*
X12894813Y-6858166D01*
X12844813Y-6808166D02*
X12944813Y-6808166D01*
X13658000Y-11087000D02*
X13658000Y-11187000D01*
X13608000Y-11137000D02*
X13708000Y-11137000D01*
X13658000Y-11341000D02*
X13658000Y-11441000D01*
X13608000Y-11391000D02*
X13708000Y-11391000D01*
X13658000Y-11595000D02*
X13658000Y-11695000D01*
X13608000Y-11645000D02*
X13708000Y-11645000D01*
X13658000Y-11849000D02*
X13658000Y-11949000D01*
X13608000Y-11899000D02*
X13708000Y-11899000D01*
X13658000Y-12103000D02*
X13658000Y-12203000D01*
X13608000Y-12153000D02*
X13708000Y-12153000D01*
X13658000Y-12357000D02*
X13658000Y-12457000D01*
X13608000Y-12407000D02*
X13708000Y-12407000D01*
X13658000Y-12611000D02*
X13658000Y-12711000D01*
X13608000Y-12661000D02*
X13708000Y-12661000D01*
X13658000Y-12865000D02*
X13658000Y-12965000D01*
X13608000Y-12915000D02*
X13708000Y-12915000D01*
D12*
X8347560Y-9032913D02*
X8347560Y-8884419D01*
X8199066Y-8884419D01*
X8199066Y-9032913D01*
X8347560Y-9032913D01*
X8347560Y-11782913D02*
X8347560Y-11634419D01*
X8199066Y-11634419D01*
X8199066Y-11782913D01*
X8347560Y-11782913D01*
X11097560Y-9032913D02*
X11097560Y-8884419D01*
X10949066Y-8884419D01*
X10949066Y-9032913D01*
X11097560Y-9032913D01*
X11097560Y-11782913D02*
X11097560Y-11634419D01*
X10949066Y-11634419D01*
X10949066Y-11782913D01*
X11097560Y-11782913D01*
D13*
X6750000Y-11230000D02*
X6885000Y-11095000D01*
X6750000Y-10960000D01*
X6615000Y-11095000D01*
X6750000Y-11230000D01*
X6750000Y-13530000D02*
X6885000Y-13395000D01*
X6750000Y-13260000D01*
X6615000Y-13395000D01*
X6750000Y-13530000D01*
X12550000Y-13530000D02*
X12685000Y-13395000D01*
X12550000Y-13260000D01*
X12415000Y-13395000D01*
X12550000Y-13530000D01*
D14*
X12412500Y-10957500D02*
X12687500Y-11232500D01*
X12687500Y-10957500D02*
X12412500Y-11232500D01*
X12687500Y-11095000D02*
G75*
G02*
X12412500Y-11095000I-137500J0D01*
G01*
X12412500Y-11095000D02*
G75*
G02*
X12687500Y-11095000I137500J0D01*
G01*
D15*
X5495813Y-14458666D02*
X5815813Y-14778666D01*
X5815813Y-14458666D02*
X5495813Y-14778666D01*
X5655813Y-14458666D02*
X5655813Y-14778666D01*
X5495813Y-14618666D02*
X5815813Y-14618666D01*
X5876813Y-5886166D02*
X6196813Y-6206166D01*
X6196813Y-5886166D02*
X5876813Y-6206166D01*
X6036813Y-5886166D02*
X6036813Y-6206166D01*
X5876813Y-6046166D02*
X6196813Y-6046166D01*
X13242813Y-5886166D02*
X13562813Y-6206166D01*
X13562813Y-5886166D02*
X13242813Y-6206166D01*
X13402813Y-5886166D02*
X13402813Y-6206166D01*
X13242813Y-6046166D02*
X13562813Y-6046166D01*
X13500313Y-14452666D02*
X13820313Y-14772666D01*
X13820313Y-14452666D02*
X13500313Y-14772666D01*
X13660313Y-14452666D02*
X13660313Y-14772666D01*
X13500313Y-14612666D02*
X13820313Y-14612666D01*
D11*
X4133590Y-15448150D02*
X4133590Y-15248150D01*
X4133590Y-15248150D02*
X4181209Y-15248150D01*
X4181209Y-15248150D02*
X4209780Y-15257674D01*
X4209780Y-15257674D02*
X4228828Y-15276721D01*
X4228828Y-15276721D02*
X4238352Y-15295769D01*
X4238352Y-15295769D02*
X4247875Y-15333864D01*
X4247875Y-15333864D02*
X4247875Y-15362436D01*
X4247875Y-15362436D02*
X4238352Y-15400531D01*
X4238352Y-15400531D02*
X4228828Y-15419578D01*
X4228828Y-15419578D02*
X4209780Y-15438626D01*
X4209780Y-15438626D02*
X4181209Y-15448150D01*
X4181209Y-15448150D02*
X4133590Y-15448150D01*
X4333590Y-15448150D02*
X4333590Y-15314817D01*
X4333590Y-15352912D02*
X4343113Y-15333864D01*
X4343113Y-15333864D02*
X4352637Y-15324340D01*
X4352637Y-15324340D02*
X4371685Y-15314817D01*
X4371685Y-15314817D02*
X4390733Y-15314817D01*
X4457399Y-15448150D02*
X4457399Y-15314817D01*
X4457399Y-15248150D02*
X4447875Y-15257674D01*
X4447875Y-15257674D02*
X4457399Y-15267198D01*
X4457399Y-15267198D02*
X4466923Y-15257674D01*
X4466923Y-15257674D02*
X4457399Y-15248150D01*
X4457399Y-15248150D02*
X4457399Y-15267198D01*
X4581209Y-15448150D02*
X4562161Y-15438626D01*
X4562161Y-15438626D02*
X4552637Y-15419578D01*
X4552637Y-15419578D02*
X4552637Y-15248150D01*
X4685971Y-15448150D02*
X4666923Y-15438626D01*
X4666923Y-15438626D02*
X4657399Y-15419578D01*
X4657399Y-15419578D02*
X4657399Y-15248150D01*
X4914542Y-15448150D02*
X4914542Y-15248150D01*
X4914542Y-15248150D02*
X4981209Y-15391007D01*
X4981209Y-15391007D02*
X5047875Y-15248150D01*
X5047875Y-15248150D02*
X5047875Y-15448150D01*
X5228828Y-15448150D02*
X5228828Y-15343388D01*
X5228828Y-15343388D02*
X5219304Y-15324340D01*
X5219304Y-15324340D02*
X5200256Y-15314817D01*
X5200256Y-15314817D02*
X5162161Y-15314817D01*
X5162161Y-15314817D02*
X5143113Y-15324340D01*
X5228828Y-15438626D02*
X5209780Y-15448150D01*
X5209780Y-15448150D02*
X5162161Y-15448150D01*
X5162161Y-15448150D02*
X5143113Y-15438626D01*
X5143113Y-15438626D02*
X5133590Y-15419578D01*
X5133590Y-15419578D02*
X5133590Y-15400531D01*
X5133590Y-15400531D02*
X5143113Y-15381483D01*
X5143113Y-15381483D02*
X5162161Y-15371959D01*
X5162161Y-15371959D02*
X5209780Y-15371959D01*
X5209780Y-15371959D02*
X5228828Y-15362436D01*
X5324066Y-15314817D02*
X5324066Y-15514817D01*
X5324066Y-15324340D02*
X5343113Y-15314817D01*
X5343113Y-15314817D02*
X5381209Y-15314817D01*
X5381209Y-15314817D02*
X5400256Y-15324340D01*
X5400256Y-15324340D02*
X5409780Y-15333864D01*
X5409780Y-15333864D02*
X5419304Y-15352912D01*
X5419304Y-15352912D02*
X5419304Y-15410055D01*
X5419304Y-15410055D02*
X5409780Y-15429102D01*
X5409780Y-15429102D02*
X5400256Y-15438626D01*
X5400256Y-15438626D02*
X5381209Y-15448150D01*
X5381209Y-15448150D02*
X5343113Y-15448150D01*
X5343113Y-15448150D02*
X5324066Y-15438626D01*
X5505018Y-15429102D02*
X5514542Y-15438626D01*
X5514542Y-15438626D02*
X5505018Y-15448150D01*
X5505018Y-15448150D02*
X5495494Y-15438626D01*
X5495494Y-15438626D02*
X5505018Y-15429102D01*
X5505018Y-15429102D02*
X5505018Y-15448150D01*
X5505018Y-15324340D02*
X5514542Y-15333864D01*
X5514542Y-15333864D02*
X5505018Y-15343388D01*
X5505018Y-15343388D02*
X5495494Y-15333864D01*
X5495494Y-15333864D02*
X5505018Y-15324340D01*
X5505018Y-15324340D02*
X5505018Y-15343388D01*
D10*
X3832813Y-15756666D02*
X3872813Y-15796666D01*
X3872813Y-15756666D02*
X3832813Y-15796666D01*
D11*
X4171685Y-15668150D02*
X4190732Y-15668150D01*
X4190732Y-15668150D02*
X4209780Y-15677674D01*
X4209780Y-15677674D02*
X4219304Y-15687198D01*
X4219304Y-15687198D02*
X4228828Y-15706245D01*
X4228828Y-15706245D02*
X4238352Y-15744340D01*
X4238352Y-15744340D02*
X4238352Y-15791959D01*
X4238352Y-15791959D02*
X4228828Y-15830055D01*
X4228828Y-15830055D02*
X4219304Y-15849102D01*
X4219304Y-15849102D02*
X4209780Y-15858626D01*
X4209780Y-15858626D02*
X4190732Y-15868150D01*
X4190732Y-15868150D02*
X4171685Y-15868150D01*
X4171685Y-15868150D02*
X4152637Y-15858626D01*
X4152637Y-15858626D02*
X4143113Y-15849102D01*
X4143113Y-15849102D02*
X4133590Y-15830055D01*
X4133590Y-15830055D02*
X4124066Y-15791959D01*
X4124066Y-15791959D02*
X4124066Y-15744340D01*
X4124066Y-15744340D02*
X4133590Y-15706245D01*
X4133590Y-15706245D02*
X4143113Y-15687198D01*
X4143113Y-15687198D02*
X4152637Y-15677674D01*
X4152637Y-15677674D02*
X4171685Y-15668150D01*
X4324066Y-15849102D02*
X4333590Y-15858626D01*
X4333590Y-15858626D02*
X4324066Y-15868150D01*
X4324066Y-15868150D02*
X4314542Y-15858626D01*
X4314542Y-15858626D02*
X4324066Y-15849102D01*
X4324066Y-15849102D02*
X4324066Y-15868150D01*
X4505018Y-15734817D02*
X4505018Y-15868150D01*
X4457399Y-15658626D02*
X4409780Y-15801483D01*
X4409780Y-15801483D02*
X4533590Y-15801483D01*
X4647875Y-15668150D02*
X4666923Y-15668150D01*
X4666923Y-15668150D02*
X4685971Y-15677674D01*
X4685971Y-15677674D02*
X4695494Y-15687198D01*
X4695494Y-15687198D02*
X4705018Y-15706245D01*
X4705018Y-15706245D02*
X4714542Y-15744340D01*
X4714542Y-15744340D02*
X4714542Y-15791959D01*
X4714542Y-15791959D02*
X4705018Y-15830055D01*
X4705018Y-15830055D02*
X4695494Y-15849102D01*
X4695494Y-15849102D02*
X4685971Y-15858626D01*
X4685971Y-15858626D02*
X4666923Y-15868150D01*
X4666923Y-15868150D02*
X4647875Y-15868150D01*
X4647875Y-15868150D02*
X4628828Y-15858626D01*
X4628828Y-15858626D02*
X4619304Y-15849102D01*
X4619304Y-15849102D02*
X4609780Y-15830055D01*
X4609780Y-15830055D02*
X4600256Y-15791959D01*
X4600256Y-15791959D02*
X4600256Y-15744340D01*
X4600256Y-15744340D02*
X4609780Y-15706245D01*
X4609780Y-15706245D02*
X4619304Y-15687198D01*
X4619304Y-15687198D02*
X4628828Y-15677674D01*
X4628828Y-15677674D02*
X4647875Y-15668150D01*
X4838352Y-15668150D02*
X4857399Y-15668150D01*
X4857399Y-15668150D02*
X4876447Y-15677674D01*
X4876447Y-15677674D02*
X4885971Y-15687198D01*
X4885971Y-15687198D02*
X4895494Y-15706245D01*
X4895494Y-15706245D02*
X4905018Y-15744340D01*
X4905018Y-15744340D02*
X4905018Y-15791959D01*
X4905018Y-15791959D02*
X4895494Y-15830055D01*
X4895494Y-15830055D02*
X4885971Y-15849102D01*
X4885971Y-15849102D02*
X4876447Y-15858626D01*
X4876447Y-15858626D02*
X4857399Y-15868150D01*
X4857399Y-15868150D02*
X4838352Y-15868150D01*
X4838352Y-15868150D02*
X4819304Y-15858626D01*
X4819304Y-15858626D02*
X4809780Y-15849102D01*
X4809780Y-15849102D02*
X4800256Y-15830055D01*
X4800256Y-15830055D02*
X4790733Y-15791959D01*
X4790733Y-15791959D02*
X4790733Y-15744340D01*
X4790733Y-15744340D02*
X4800256Y-15706245D01*
X4800256Y-15706245D02*
X4809780Y-15687198D01*
X4809780Y-15687198D02*
X4819304Y-15677674D01*
X4819304Y-15677674D02*
X4838352Y-15668150D01*
X4990733Y-15868150D02*
X4990733Y-15734817D01*
X4990733Y-15753864D02*
X5000256Y-15744340D01*
X5000256Y-15744340D02*
X5019304Y-15734817D01*
X5019304Y-15734817D02*
X5047875Y-15734817D01*
X5047875Y-15734817D02*
X5066923Y-15744340D01*
X5066923Y-15744340D02*
X5076447Y-15763388D01*
X5076447Y-15763388D02*
X5076447Y-15868150D01*
X5076447Y-15763388D02*
X5085971Y-15744340D01*
X5085971Y-15744340D02*
X5105018Y-15734817D01*
X5105018Y-15734817D02*
X5133590Y-15734817D01*
X5133590Y-15734817D02*
X5152637Y-15744340D01*
X5152637Y-15744340D02*
X5162161Y-15763388D01*
X5162161Y-15763388D02*
X5162161Y-15868150D01*
X5257399Y-15868150D02*
X5257399Y-15734817D01*
X5257399Y-15753864D02*
X5266923Y-15744340D01*
X5266923Y-15744340D02*
X5285971Y-15734817D01*
X5285971Y-15734817D02*
X5314542Y-15734817D01*
X5314542Y-15734817D02*
X5333590Y-15744340D01*
X5333590Y-15744340D02*
X5343114Y-15763388D01*
X5343114Y-15763388D02*
X5343114Y-15868150D01*
X5343114Y-15763388D02*
X5352637Y-15744340D01*
X5352637Y-15744340D02*
X5371685Y-15734817D01*
X5371685Y-15734817D02*
X5400256Y-15734817D01*
X5400256Y-15734817D02*
X5419304Y-15744340D01*
X5419304Y-15744340D02*
X5428828Y-15763388D01*
X5428828Y-15763388D02*
X5428828Y-15868150D01*
X5819304Y-15658626D02*
X5647875Y-15915769D01*
X6076447Y-15668150D02*
X6095495Y-15668150D01*
X6095495Y-15668150D02*
X6114542Y-15677674D01*
X6114542Y-15677674D02*
X6124066Y-15687198D01*
X6124066Y-15687198D02*
X6133590Y-15706245D01*
X6133590Y-15706245D02*
X6143114Y-15744340D01*
X6143114Y-15744340D02*
X6143114Y-15791959D01*
X6143114Y-15791959D02*
X6133590Y-15830055D01*
X6133590Y-15830055D02*
X6124066Y-15849102D01*
X6124066Y-15849102D02*
X6114542Y-15858626D01*
X6114542Y-15858626D02*
X6095495Y-15868150D01*
X6095495Y-15868150D02*
X6076447Y-15868150D01*
X6076447Y-15868150D02*
X6057399Y-15858626D01*
X6057399Y-15858626D02*
X6047875Y-15849102D01*
X6047875Y-15849102D02*
X6038352Y-15830055D01*
X6038352Y-15830055D02*
X6028828Y-15791959D01*
X6028828Y-15791959D02*
X6028828Y-15744340D01*
X6028828Y-15744340D02*
X6038352Y-15706245D01*
X6038352Y-15706245D02*
X6047875Y-15687198D01*
X6047875Y-15687198D02*
X6057399Y-15677674D01*
X6057399Y-15677674D02*
X6076447Y-15668150D01*
X6228828Y-15849102D02*
X6238352Y-15858626D01*
X6238352Y-15858626D02*
X6228828Y-15868150D01*
X6228828Y-15868150D02*
X6219304Y-15858626D01*
X6219304Y-15858626D02*
X6228828Y-15849102D01*
X6228828Y-15849102D02*
X6228828Y-15868150D01*
X6362161Y-15668150D02*
X6381209Y-15668150D01*
X6381209Y-15668150D02*
X6400256Y-15677674D01*
X6400256Y-15677674D02*
X6409780Y-15687198D01*
X6409780Y-15687198D02*
X6419304Y-15706245D01*
X6419304Y-15706245D02*
X6428828Y-15744340D01*
X6428828Y-15744340D02*
X6428828Y-15791959D01*
X6428828Y-15791959D02*
X6419304Y-15830055D01*
X6419304Y-15830055D02*
X6409780Y-15849102D01*
X6409780Y-15849102D02*
X6400256Y-15858626D01*
X6400256Y-15858626D02*
X6381209Y-15868150D01*
X6381209Y-15868150D02*
X6362161Y-15868150D01*
X6362161Y-15868150D02*
X6343114Y-15858626D01*
X6343114Y-15858626D02*
X6333590Y-15849102D01*
X6333590Y-15849102D02*
X6324066Y-15830055D01*
X6324066Y-15830055D02*
X6314542Y-15791959D01*
X6314542Y-15791959D02*
X6314542Y-15744340D01*
X6314542Y-15744340D02*
X6324066Y-15706245D01*
X6324066Y-15706245D02*
X6333590Y-15687198D01*
X6333590Y-15687198D02*
X6343114Y-15677674D01*
X6343114Y-15677674D02*
X6362161Y-15668150D01*
X6619304Y-15868150D02*
X6505018Y-15868150D01*
X6562161Y-15868150D02*
X6562161Y-15668150D01*
X6562161Y-15668150D02*
X6543114Y-15696721D01*
X6543114Y-15696721D02*
X6524066Y-15715769D01*
X6524066Y-15715769D02*
X6505018Y-15725293D01*
X6800256Y-15668150D02*
X6705018Y-15668150D01*
X6705018Y-15668150D02*
X6695495Y-15763388D01*
X6695495Y-15763388D02*
X6705018Y-15753864D01*
X6705018Y-15753864D02*
X6724066Y-15744340D01*
X6724066Y-15744340D02*
X6771685Y-15744340D01*
X6771685Y-15744340D02*
X6790733Y-15753864D01*
X6790733Y-15753864D02*
X6800256Y-15763388D01*
X6800256Y-15763388D02*
X6809780Y-15782436D01*
X6809780Y-15782436D02*
X6809780Y-15830055D01*
X6809780Y-15830055D02*
X6800256Y-15849102D01*
X6800256Y-15849102D02*
X6790733Y-15858626D01*
X6790733Y-15858626D02*
X6771685Y-15868150D01*
X6771685Y-15868150D02*
X6724066Y-15868150D01*
X6724066Y-15868150D02*
X6705018Y-15858626D01*
X6705018Y-15858626D02*
X6695495Y-15849102D01*
X6876447Y-15668150D02*
X7009780Y-15668150D01*
X7009780Y-15668150D02*
X6924066Y-15868150D01*
X7076447Y-15668150D02*
X7076447Y-15706245D01*
X7152637Y-15668150D02*
X7152637Y-15706245D01*
X7447876Y-15944340D02*
X7438352Y-15934817D01*
X7438352Y-15934817D02*
X7419304Y-15906245D01*
X7419304Y-15906245D02*
X7409780Y-15887198D01*
X7409780Y-15887198D02*
X7400257Y-15858626D01*
X7400257Y-15858626D02*
X7390733Y-15811007D01*
X7390733Y-15811007D02*
X7390733Y-15772912D01*
X7390733Y-15772912D02*
X7400257Y-15725293D01*
X7400257Y-15725293D02*
X7409780Y-15696721D01*
X7409780Y-15696721D02*
X7419304Y-15677674D01*
X7419304Y-15677674D02*
X7438352Y-15649102D01*
X7438352Y-15649102D02*
X7447876Y-15639578D01*
X7628828Y-15868150D02*
X7514542Y-15868150D01*
X7571685Y-15868150D02*
X7571685Y-15668150D01*
X7571685Y-15668150D02*
X7552637Y-15696721D01*
X7552637Y-15696721D02*
X7533590Y-15715769D01*
X7533590Y-15715769D02*
X7514542Y-15725293D01*
X7809780Y-15668150D02*
X7714542Y-15668150D01*
X7714542Y-15668150D02*
X7705018Y-15763388D01*
X7705018Y-15763388D02*
X7714542Y-15753864D01*
X7714542Y-15753864D02*
X7733590Y-15744340D01*
X7733590Y-15744340D02*
X7781209Y-15744340D01*
X7781209Y-15744340D02*
X7800257Y-15753864D01*
X7800257Y-15753864D02*
X7809780Y-15763388D01*
X7809780Y-15763388D02*
X7819304Y-15782436D01*
X7819304Y-15782436D02*
X7819304Y-15830055D01*
X7819304Y-15830055D02*
X7809780Y-15849102D01*
X7809780Y-15849102D02*
X7800257Y-15858626D01*
X7800257Y-15858626D02*
X7781209Y-15868150D01*
X7781209Y-15868150D02*
X7733590Y-15868150D01*
X7733590Y-15868150D02*
X7714542Y-15858626D01*
X7714542Y-15858626D02*
X7705018Y-15849102D01*
X7943114Y-15668150D02*
X7962161Y-15668150D01*
X7962161Y-15668150D02*
X7981209Y-15677674D01*
X7981209Y-15677674D02*
X7990733Y-15687198D01*
X7990733Y-15687198D02*
X8000257Y-15706245D01*
X8000257Y-15706245D02*
X8009780Y-15744340D01*
X8009780Y-15744340D02*
X8009780Y-15791959D01*
X8009780Y-15791959D02*
X8000257Y-15830055D01*
X8000257Y-15830055D02*
X7990733Y-15849102D01*
X7990733Y-15849102D02*
X7981209Y-15858626D01*
X7981209Y-15858626D02*
X7962161Y-15868150D01*
X7962161Y-15868150D02*
X7943114Y-15868150D01*
X7943114Y-15868150D02*
X7924066Y-15858626D01*
X7924066Y-15858626D02*
X7914542Y-15849102D01*
X7914542Y-15849102D02*
X7905018Y-15830055D01*
X7905018Y-15830055D02*
X7895495Y-15791959D01*
X7895495Y-15791959D02*
X7895495Y-15744340D01*
X7895495Y-15744340D02*
X7905018Y-15706245D01*
X7905018Y-15706245D02*
X7914542Y-15687198D01*
X7914542Y-15687198D02*
X7924066Y-15677674D01*
X7924066Y-15677674D02*
X7943114Y-15668150D01*
X8247876Y-15868150D02*
X8247876Y-15668150D01*
X8333590Y-15868150D02*
X8333590Y-15763388D01*
X8333590Y-15763388D02*
X8324066Y-15744340D01*
X8324066Y-15744340D02*
X8305019Y-15734817D01*
X8305019Y-15734817D02*
X8276447Y-15734817D01*
X8276447Y-15734817D02*
X8257399Y-15744340D01*
X8257399Y-15744340D02*
X8247876Y-15753864D01*
X8457400Y-15868150D02*
X8438352Y-15858626D01*
X8438352Y-15858626D02*
X8428828Y-15849102D01*
X8428828Y-15849102D02*
X8419304Y-15830055D01*
X8419304Y-15830055D02*
X8419304Y-15772912D01*
X8419304Y-15772912D02*
X8428828Y-15753864D01*
X8428828Y-15753864D02*
X8438352Y-15744340D01*
X8438352Y-15744340D02*
X8457400Y-15734817D01*
X8457400Y-15734817D02*
X8485971Y-15734817D01*
X8485971Y-15734817D02*
X8505019Y-15744340D01*
X8505019Y-15744340D02*
X8514542Y-15753864D01*
X8514542Y-15753864D02*
X8524066Y-15772912D01*
X8524066Y-15772912D02*
X8524066Y-15830055D01*
X8524066Y-15830055D02*
X8514542Y-15849102D01*
X8514542Y-15849102D02*
X8505019Y-15858626D01*
X8505019Y-15858626D02*
X8485971Y-15868150D01*
X8485971Y-15868150D02*
X8457400Y-15868150D01*
X8638352Y-15868150D02*
X8619304Y-15858626D01*
X8619304Y-15858626D02*
X8609781Y-15839578D01*
X8609781Y-15839578D02*
X8609781Y-15668150D01*
X8790733Y-15858626D02*
X8771685Y-15868150D01*
X8771685Y-15868150D02*
X8733590Y-15868150D01*
X8733590Y-15868150D02*
X8714542Y-15858626D01*
X8714542Y-15858626D02*
X8705019Y-15839578D01*
X8705019Y-15839578D02*
X8705019Y-15763388D01*
X8705019Y-15763388D02*
X8714542Y-15744340D01*
X8714542Y-15744340D02*
X8733590Y-15734817D01*
X8733590Y-15734817D02*
X8771685Y-15734817D01*
X8771685Y-15734817D02*
X8790733Y-15744340D01*
X8790733Y-15744340D02*
X8800257Y-15763388D01*
X8800257Y-15763388D02*
X8800257Y-15782436D01*
X8800257Y-15782436D02*
X8705019Y-15801483D01*
X8876447Y-15858626D02*
X8895495Y-15868150D01*
X8895495Y-15868150D02*
X8933590Y-15868150D01*
X8933590Y-15868150D02*
X8952638Y-15858626D01*
X8952638Y-15858626D02*
X8962162Y-15839578D01*
X8962162Y-15839578D02*
X8962162Y-15830055D01*
X8962162Y-15830055D02*
X8952638Y-15811007D01*
X8952638Y-15811007D02*
X8933590Y-15801483D01*
X8933590Y-15801483D02*
X8905019Y-15801483D01*
X8905019Y-15801483D02*
X8885971Y-15791959D01*
X8885971Y-15791959D02*
X8876447Y-15772912D01*
X8876447Y-15772912D02*
X8876447Y-15763388D01*
X8876447Y-15763388D02*
X8885971Y-15744340D01*
X8885971Y-15744340D02*
X8905019Y-15734817D01*
X8905019Y-15734817D02*
X8933590Y-15734817D01*
X8933590Y-15734817D02*
X8952638Y-15744340D01*
X9028828Y-15944340D02*
X9038352Y-15934817D01*
X9038352Y-15934817D02*
X9057400Y-15906245D01*
X9057400Y-15906245D02*
X9066923Y-15887198D01*
X9066923Y-15887198D02*
X9076447Y-15858626D01*
X9076447Y-15858626D02*
X9085971Y-15811007D01*
X9085971Y-15811007D02*
X9085971Y-15772912D01*
X9085971Y-15772912D02*
X9076447Y-15725293D01*
X9076447Y-15725293D02*
X9066923Y-15696721D01*
X9066923Y-15696721D02*
X9057400Y-15677674D01*
X9057400Y-15677674D02*
X9038352Y-15649102D01*
X9038352Y-15649102D02*
X9028828Y-15639578D01*
D10*
X3872813Y-16040666D02*
G75*
G02*
X3782813Y-16040666I-45000J0D01*
G01*
X3782813Y-16040666D02*
G75*
G02*
X3872813Y-16040666I45000J0D01*
G01*
D11*
X4171685Y-15932150D02*
X4190732Y-15932150D01*
X4190732Y-15932150D02*
X4209780Y-15941674D01*
X4209780Y-15941674D02*
X4219304Y-15951198D01*
X4219304Y-15951198D02*
X4228828Y-15970245D01*
X4228828Y-15970245D02*
X4238352Y-16008340D01*
X4238352Y-16008340D02*
X4238352Y-16055959D01*
X4238352Y-16055959D02*
X4228828Y-16094055D01*
X4228828Y-16094055D02*
X4219304Y-16113102D01*
X4219304Y-16113102D02*
X4209780Y-16122626D01*
X4209780Y-16122626D02*
X4190732Y-16132150D01*
X4190732Y-16132150D02*
X4171685Y-16132150D01*
X4171685Y-16132150D02*
X4152637Y-16122626D01*
X4152637Y-16122626D02*
X4143113Y-16113102D01*
X4143113Y-16113102D02*
X4133590Y-16094055D01*
X4133590Y-16094055D02*
X4124066Y-16055959D01*
X4124066Y-16055959D02*
X4124066Y-16008340D01*
X4124066Y-16008340D02*
X4133590Y-15970245D01*
X4133590Y-15970245D02*
X4143113Y-15951198D01*
X4143113Y-15951198D02*
X4152637Y-15941674D01*
X4152637Y-15941674D02*
X4171685Y-15932150D01*
X4324066Y-16113102D02*
X4333590Y-16122626D01*
X4333590Y-16122626D02*
X4324066Y-16132150D01*
X4324066Y-16132150D02*
X4314542Y-16122626D01*
X4314542Y-16122626D02*
X4324066Y-16113102D01*
X4324066Y-16113102D02*
X4324066Y-16132150D01*
X4428828Y-16132150D02*
X4466923Y-16132150D01*
X4466923Y-16132150D02*
X4485971Y-16122626D01*
X4485971Y-16122626D02*
X4495494Y-16113102D01*
X4495494Y-16113102D02*
X4514542Y-16084531D01*
X4514542Y-16084531D02*
X4524066Y-16046436D01*
X4524066Y-16046436D02*
X4524066Y-15970245D01*
X4524066Y-15970245D02*
X4514542Y-15951198D01*
X4514542Y-15951198D02*
X4505018Y-15941674D01*
X4505018Y-15941674D02*
X4485971Y-15932150D01*
X4485971Y-15932150D02*
X4447875Y-15932150D01*
X4447875Y-15932150D02*
X4428828Y-15941674D01*
X4428828Y-15941674D02*
X4419304Y-15951198D01*
X4419304Y-15951198D02*
X4409780Y-15970245D01*
X4409780Y-15970245D02*
X4409780Y-16017864D01*
X4409780Y-16017864D02*
X4419304Y-16036912D01*
X4419304Y-16036912D02*
X4428828Y-16046436D01*
X4428828Y-16046436D02*
X4447875Y-16055959D01*
X4447875Y-16055959D02*
X4485971Y-16055959D01*
X4485971Y-16055959D02*
X4505018Y-16046436D01*
X4505018Y-16046436D02*
X4514542Y-16036912D01*
X4514542Y-16036912D02*
X4524066Y-16017864D01*
X4647875Y-15932150D02*
X4666923Y-15932150D01*
X4666923Y-15932150D02*
X4685971Y-15941674D01*
X4685971Y-15941674D02*
X4695494Y-15951198D01*
X4695494Y-15951198D02*
X4705018Y-15970245D01*
X4705018Y-15970245D02*
X4714542Y-16008340D01*
X4714542Y-16008340D02*
X4714542Y-16055959D01*
X4714542Y-16055959D02*
X4705018Y-16094055D01*
X4705018Y-16094055D02*
X4695494Y-16113102D01*
X4695494Y-16113102D02*
X4685971Y-16122626D01*
X4685971Y-16122626D02*
X4666923Y-16132150D01*
X4666923Y-16132150D02*
X4647875Y-16132150D01*
X4647875Y-16132150D02*
X4628828Y-16122626D01*
X4628828Y-16122626D02*
X4619304Y-16113102D01*
X4619304Y-16113102D02*
X4609780Y-16094055D01*
X4609780Y-16094055D02*
X4600256Y-16055959D01*
X4600256Y-16055959D02*
X4600256Y-16008340D01*
X4600256Y-16008340D02*
X4609780Y-15970245D01*
X4609780Y-15970245D02*
X4619304Y-15951198D01*
X4619304Y-15951198D02*
X4628828Y-15941674D01*
X4628828Y-15941674D02*
X4647875Y-15932150D01*
X4838352Y-15932150D02*
X4857399Y-15932150D01*
X4857399Y-15932150D02*
X4876447Y-15941674D01*
X4876447Y-15941674D02*
X4885971Y-15951198D01*
X4885971Y-15951198D02*
X4895494Y-15970245D01*
X4895494Y-15970245D02*
X4905018Y-16008340D01*
X4905018Y-16008340D02*
X4905018Y-16055959D01*
X4905018Y-16055959D02*
X4895494Y-16094055D01*
X4895494Y-16094055D02*
X4885971Y-16113102D01*
X4885971Y-16113102D02*
X4876447Y-16122626D01*
X4876447Y-16122626D02*
X4857399Y-16132150D01*
X4857399Y-16132150D02*
X4838352Y-16132150D01*
X4838352Y-16132150D02*
X4819304Y-16122626D01*
X4819304Y-16122626D02*
X4809780Y-16113102D01*
X4809780Y-16113102D02*
X4800256Y-16094055D01*
X4800256Y-16094055D02*
X4790733Y-16055959D01*
X4790733Y-16055959D02*
X4790733Y-16008340D01*
X4790733Y-16008340D02*
X4800256Y-15970245D01*
X4800256Y-15970245D02*
X4809780Y-15951198D01*
X4809780Y-15951198D02*
X4819304Y-15941674D01*
X4819304Y-15941674D02*
X4838352Y-15932150D01*
X4990733Y-16132150D02*
X4990733Y-15998817D01*
X4990733Y-16017864D02*
X5000256Y-16008340D01*
X5000256Y-16008340D02*
X5019304Y-15998817D01*
X5019304Y-15998817D02*
X5047875Y-15998817D01*
X5047875Y-15998817D02*
X5066923Y-16008340D01*
X5066923Y-16008340D02*
X5076447Y-16027388D01*
X5076447Y-16027388D02*
X5076447Y-16132150D01*
X5076447Y-16027388D02*
X5085971Y-16008340D01*
X5085971Y-16008340D02*
X5105018Y-15998817D01*
X5105018Y-15998817D02*
X5133590Y-15998817D01*
X5133590Y-15998817D02*
X5152637Y-16008340D01*
X5152637Y-16008340D02*
X5162161Y-16027388D01*
X5162161Y-16027388D02*
X5162161Y-16132150D01*
X5257399Y-16132150D02*
X5257399Y-15998817D01*
X5257399Y-16017864D02*
X5266923Y-16008340D01*
X5266923Y-16008340D02*
X5285971Y-15998817D01*
X5285971Y-15998817D02*
X5314542Y-15998817D01*
X5314542Y-15998817D02*
X5333590Y-16008340D01*
X5333590Y-16008340D02*
X5343114Y-16027388D01*
X5343114Y-16027388D02*
X5343114Y-16132150D01*
X5343114Y-16027388D02*
X5352637Y-16008340D01*
X5352637Y-16008340D02*
X5371685Y-15998817D01*
X5371685Y-15998817D02*
X5400256Y-15998817D01*
X5400256Y-15998817D02*
X5419304Y-16008340D01*
X5419304Y-16008340D02*
X5428828Y-16027388D01*
X5428828Y-16027388D02*
X5428828Y-16132150D01*
X5819304Y-15922626D02*
X5647875Y-16179769D01*
X6076447Y-15932150D02*
X6095495Y-15932150D01*
X6095495Y-15932150D02*
X6114542Y-15941674D01*
X6114542Y-15941674D02*
X6124066Y-15951198D01*
X6124066Y-15951198D02*
X6133590Y-15970245D01*
X6133590Y-15970245D02*
X6143114Y-16008340D01*
X6143114Y-16008340D02*
X6143114Y-16055959D01*
X6143114Y-16055959D02*
X6133590Y-16094055D01*
X6133590Y-16094055D02*
X6124066Y-16113102D01*
X6124066Y-16113102D02*
X6114542Y-16122626D01*
X6114542Y-16122626D02*
X6095495Y-16132150D01*
X6095495Y-16132150D02*
X6076447Y-16132150D01*
X6076447Y-16132150D02*
X6057399Y-16122626D01*
X6057399Y-16122626D02*
X6047875Y-16113102D01*
X6047875Y-16113102D02*
X6038352Y-16094055D01*
X6038352Y-16094055D02*
X6028828Y-16055959D01*
X6028828Y-16055959D02*
X6028828Y-16008340D01*
X6028828Y-16008340D02*
X6038352Y-15970245D01*
X6038352Y-15970245D02*
X6047875Y-15951198D01*
X6047875Y-15951198D02*
X6057399Y-15941674D01*
X6057399Y-15941674D02*
X6076447Y-15932150D01*
X6228828Y-16113102D02*
X6238352Y-16122626D01*
X6238352Y-16122626D02*
X6228828Y-16132150D01*
X6228828Y-16132150D02*
X6219304Y-16122626D01*
X6219304Y-16122626D02*
X6228828Y-16113102D01*
X6228828Y-16113102D02*
X6228828Y-16132150D01*
X6362161Y-15932150D02*
X6381209Y-15932150D01*
X6381209Y-15932150D02*
X6400256Y-15941674D01*
X6400256Y-15941674D02*
X6409780Y-15951198D01*
X6409780Y-15951198D02*
X6419304Y-15970245D01*
X6419304Y-15970245D02*
X6428828Y-16008340D01*
X6428828Y-16008340D02*
X6428828Y-16055959D01*
X6428828Y-16055959D02*
X6419304Y-16094055D01*
X6419304Y-16094055D02*
X6409780Y-16113102D01*
X6409780Y-16113102D02*
X6400256Y-16122626D01*
X6400256Y-16122626D02*
X6381209Y-16132150D01*
X6381209Y-16132150D02*
X6362161Y-16132150D01*
X6362161Y-16132150D02*
X6343114Y-16122626D01*
X6343114Y-16122626D02*
X6333590Y-16113102D01*
X6333590Y-16113102D02*
X6324066Y-16094055D01*
X6324066Y-16094055D02*
X6314542Y-16055959D01*
X6314542Y-16055959D02*
X6314542Y-16008340D01*
X6314542Y-16008340D02*
X6324066Y-15970245D01*
X6324066Y-15970245D02*
X6333590Y-15951198D01*
X6333590Y-15951198D02*
X6343114Y-15941674D01*
X6343114Y-15941674D02*
X6362161Y-15932150D01*
X6495495Y-15932150D02*
X6619304Y-15932150D01*
X6619304Y-15932150D02*
X6552637Y-16008340D01*
X6552637Y-16008340D02*
X6581209Y-16008340D01*
X6581209Y-16008340D02*
X6600256Y-16017864D01*
X6600256Y-16017864D02*
X6609780Y-16027388D01*
X6609780Y-16027388D02*
X6619304Y-16046436D01*
X6619304Y-16046436D02*
X6619304Y-16094055D01*
X6619304Y-16094055D02*
X6609780Y-16113102D01*
X6609780Y-16113102D02*
X6600256Y-16122626D01*
X6600256Y-16122626D02*
X6581209Y-16132150D01*
X6581209Y-16132150D02*
X6524066Y-16132150D01*
X6524066Y-16132150D02*
X6505018Y-16122626D01*
X6505018Y-16122626D02*
X6495495Y-16113102D01*
X6800256Y-15932150D02*
X6705018Y-15932150D01*
X6705018Y-15932150D02*
X6695495Y-16027388D01*
X6695495Y-16027388D02*
X6705018Y-16017864D01*
X6705018Y-16017864D02*
X6724066Y-16008340D01*
X6724066Y-16008340D02*
X6771685Y-16008340D01*
X6771685Y-16008340D02*
X6790733Y-16017864D01*
X6790733Y-16017864D02*
X6800256Y-16027388D01*
X6800256Y-16027388D02*
X6809780Y-16046436D01*
X6809780Y-16046436D02*
X6809780Y-16094055D01*
X6809780Y-16094055D02*
X6800256Y-16113102D01*
X6800256Y-16113102D02*
X6790733Y-16122626D01*
X6790733Y-16122626D02*
X6771685Y-16132150D01*
X6771685Y-16132150D02*
X6724066Y-16132150D01*
X6724066Y-16132150D02*
X6705018Y-16122626D01*
X6705018Y-16122626D02*
X6695495Y-16113102D01*
X6981209Y-15998817D02*
X6981209Y-16132150D01*
X6933590Y-15922626D02*
X6885971Y-16065483D01*
X6885971Y-16065483D02*
X7009780Y-16065483D01*
X7076447Y-15932150D02*
X7076447Y-15970245D01*
X7152637Y-15932150D02*
X7152637Y-15970245D01*
X7447876Y-16208340D02*
X7438352Y-16198817D01*
X7438352Y-16198817D02*
X7419304Y-16170245D01*
X7419304Y-16170245D02*
X7409780Y-16151198D01*
X7409780Y-16151198D02*
X7400257Y-16122626D01*
X7400257Y-16122626D02*
X7390733Y-16075007D01*
X7390733Y-16075007D02*
X7390733Y-16036912D01*
X7390733Y-16036912D02*
X7400257Y-15989293D01*
X7400257Y-15989293D02*
X7409780Y-15960721D01*
X7409780Y-15960721D02*
X7419304Y-15941674D01*
X7419304Y-15941674D02*
X7438352Y-15913102D01*
X7438352Y-15913102D02*
X7447876Y-15903578D01*
X7552637Y-16017864D02*
X7533590Y-16008340D01*
X7533590Y-16008340D02*
X7524066Y-15998817D01*
X7524066Y-15998817D02*
X7514542Y-15979769D01*
X7514542Y-15979769D02*
X7514542Y-15970245D01*
X7514542Y-15970245D02*
X7524066Y-15951198D01*
X7524066Y-15951198D02*
X7533590Y-15941674D01*
X7533590Y-15941674D02*
X7552637Y-15932150D01*
X7552637Y-15932150D02*
X7590733Y-15932150D01*
X7590733Y-15932150D02*
X7609780Y-15941674D01*
X7609780Y-15941674D02*
X7619304Y-15951198D01*
X7619304Y-15951198D02*
X7628828Y-15970245D01*
X7628828Y-15970245D02*
X7628828Y-15979769D01*
X7628828Y-15979769D02*
X7619304Y-15998817D01*
X7619304Y-15998817D02*
X7609780Y-16008340D01*
X7609780Y-16008340D02*
X7590733Y-16017864D01*
X7590733Y-16017864D02*
X7552637Y-16017864D01*
X7552637Y-16017864D02*
X7533590Y-16027388D01*
X7533590Y-16027388D02*
X7524066Y-16036912D01*
X7524066Y-16036912D02*
X7514542Y-16055959D01*
X7514542Y-16055959D02*
X7514542Y-16094055D01*
X7514542Y-16094055D02*
X7524066Y-16113102D01*
X7524066Y-16113102D02*
X7533590Y-16122626D01*
X7533590Y-16122626D02*
X7552637Y-16132150D01*
X7552637Y-16132150D02*
X7590733Y-16132150D01*
X7590733Y-16132150D02*
X7609780Y-16122626D01*
X7609780Y-16122626D02*
X7619304Y-16113102D01*
X7619304Y-16113102D02*
X7628828Y-16094055D01*
X7628828Y-16094055D02*
X7628828Y-16055959D01*
X7628828Y-16055959D02*
X7619304Y-16036912D01*
X7619304Y-16036912D02*
X7609780Y-16027388D01*
X7609780Y-16027388D02*
X7590733Y-16017864D01*
X7866923Y-16132150D02*
X7866923Y-15932150D01*
X7952638Y-16132150D02*
X7952638Y-16027388D01*
X7952638Y-16027388D02*
X7943114Y-16008340D01*
X7943114Y-16008340D02*
X7924066Y-15998817D01*
X7924066Y-15998817D02*
X7895495Y-15998817D01*
X7895495Y-15998817D02*
X7876447Y-16008340D01*
X7876447Y-16008340D02*
X7866923Y-16017864D01*
X8076447Y-16132150D02*
X8057399Y-16122626D01*
X8057399Y-16122626D02*
X8047876Y-16113102D01*
X8047876Y-16113102D02*
X8038352Y-16094055D01*
X8038352Y-16094055D02*
X8038352Y-16036912D01*
X8038352Y-16036912D02*
X8047876Y-16017864D01*
X8047876Y-16017864D02*
X8057399Y-16008340D01*
X8057399Y-16008340D02*
X8076447Y-15998817D01*
X8076447Y-15998817D02*
X8105019Y-15998817D01*
X8105019Y-15998817D02*
X8124066Y-16008340D01*
X8124066Y-16008340D02*
X8133590Y-16017864D01*
X8133590Y-16017864D02*
X8143114Y-16036912D01*
X8143114Y-16036912D02*
X8143114Y-16094055D01*
X8143114Y-16094055D02*
X8133590Y-16113102D01*
X8133590Y-16113102D02*
X8124066Y-16122626D01*
X8124066Y-16122626D02*
X8105019Y-16132150D01*
X8105019Y-16132150D02*
X8076447Y-16132150D01*
X8257399Y-16132150D02*
X8238352Y-16122626D01*
X8238352Y-16122626D02*
X8228828Y-16103578D01*
X8228828Y-16103578D02*
X8228828Y-15932150D01*
X8409781Y-16122626D02*
X8390733Y-16132150D01*
X8390733Y-16132150D02*
X8352638Y-16132150D01*
X8352638Y-16132150D02*
X8333590Y-16122626D01*
X8333590Y-16122626D02*
X8324066Y-16103578D01*
X8324066Y-16103578D02*
X8324066Y-16027388D01*
X8324066Y-16027388D02*
X8333590Y-16008340D01*
X8333590Y-16008340D02*
X8352638Y-15998817D01*
X8352638Y-15998817D02*
X8390733Y-15998817D01*
X8390733Y-15998817D02*
X8409781Y-16008340D01*
X8409781Y-16008340D02*
X8419304Y-16027388D01*
X8419304Y-16027388D02*
X8419304Y-16046436D01*
X8419304Y-16046436D02*
X8324066Y-16065483D01*
X8495495Y-16122626D02*
X8514542Y-16132150D01*
X8514542Y-16132150D02*
X8552638Y-16132150D01*
X8552638Y-16132150D02*
X8571685Y-16122626D01*
X8571685Y-16122626D02*
X8581209Y-16103578D01*
X8581209Y-16103578D02*
X8581209Y-16094055D01*
X8581209Y-16094055D02*
X8571685Y-16075007D01*
X8571685Y-16075007D02*
X8552638Y-16065483D01*
X8552638Y-16065483D02*
X8524066Y-16065483D01*
X8524066Y-16065483D02*
X8505019Y-16055959D01*
X8505019Y-16055959D02*
X8495495Y-16036912D01*
X8495495Y-16036912D02*
X8495495Y-16027388D01*
X8495495Y-16027388D02*
X8505019Y-16008340D01*
X8505019Y-16008340D02*
X8524066Y-15998817D01*
X8524066Y-15998817D02*
X8552638Y-15998817D01*
X8552638Y-15998817D02*
X8571685Y-16008340D01*
X8647876Y-16208340D02*
X8657400Y-16198817D01*
X8657400Y-16198817D02*
X8676447Y-16170245D01*
X8676447Y-16170245D02*
X8685971Y-16151198D01*
X8685971Y-16151198D02*
X8695495Y-16122626D01*
X8695495Y-16122626D02*
X8705019Y-16075007D01*
X8705019Y-16075007D02*
X8705019Y-16036912D01*
X8705019Y-16036912D02*
X8695495Y-15989293D01*
X8695495Y-15989293D02*
X8685971Y-15960721D01*
X8685971Y-15960721D02*
X8676447Y-15941674D01*
X8676447Y-15941674D02*
X8657400Y-15913102D01*
X8657400Y-15913102D02*
X8647876Y-15903578D01*
D10*
X3822813Y-16254666D02*
X3822813Y-16354666D01*
X3772813Y-16304666D02*
X3872813Y-16304666D01*
D11*
X4238352Y-16396150D02*
X4124066Y-16396150D01*
X4181209Y-16396150D02*
X4181209Y-16196150D01*
X4181209Y-16196150D02*
X4162161Y-16224721D01*
X4162161Y-16224721D02*
X4143113Y-16243769D01*
X4143113Y-16243769D02*
X4124066Y-16253293D01*
X4324066Y-16377102D02*
X4333590Y-16386626D01*
X4333590Y-16386626D02*
X4324066Y-16396150D01*
X4324066Y-16396150D02*
X4314542Y-16386626D01*
X4314542Y-16386626D02*
X4324066Y-16377102D01*
X4324066Y-16377102D02*
X4324066Y-16396150D01*
X4457399Y-16196150D02*
X4476447Y-16196150D01*
X4476447Y-16196150D02*
X4495494Y-16205674D01*
X4495494Y-16205674D02*
X4505018Y-16215198D01*
X4505018Y-16215198D02*
X4514542Y-16234245D01*
X4514542Y-16234245D02*
X4524066Y-16272340D01*
X4524066Y-16272340D02*
X4524066Y-16319959D01*
X4524066Y-16319959D02*
X4514542Y-16358055D01*
X4514542Y-16358055D02*
X4505018Y-16377102D01*
X4505018Y-16377102D02*
X4495494Y-16386626D01*
X4495494Y-16386626D02*
X4476447Y-16396150D01*
X4476447Y-16396150D02*
X4457399Y-16396150D01*
X4457399Y-16396150D02*
X4438352Y-16386626D01*
X4438352Y-16386626D02*
X4428828Y-16377102D01*
X4428828Y-16377102D02*
X4419304Y-16358055D01*
X4419304Y-16358055D02*
X4409780Y-16319959D01*
X4409780Y-16319959D02*
X4409780Y-16272340D01*
X4409780Y-16272340D02*
X4419304Y-16234245D01*
X4419304Y-16234245D02*
X4428828Y-16215198D01*
X4428828Y-16215198D02*
X4438352Y-16205674D01*
X4438352Y-16205674D02*
X4457399Y-16196150D01*
X4647875Y-16196150D02*
X4666923Y-16196150D01*
X4666923Y-16196150D02*
X4685971Y-16205674D01*
X4685971Y-16205674D02*
X4695494Y-16215198D01*
X4695494Y-16215198D02*
X4705018Y-16234245D01*
X4705018Y-16234245D02*
X4714542Y-16272340D01*
X4714542Y-16272340D02*
X4714542Y-16319959D01*
X4714542Y-16319959D02*
X4705018Y-16358055D01*
X4705018Y-16358055D02*
X4695494Y-16377102D01*
X4695494Y-16377102D02*
X4685971Y-16386626D01*
X4685971Y-16386626D02*
X4666923Y-16396150D01*
X4666923Y-16396150D02*
X4647875Y-16396150D01*
X4647875Y-16396150D02*
X4628828Y-16386626D01*
X4628828Y-16386626D02*
X4619304Y-16377102D01*
X4619304Y-16377102D02*
X4609780Y-16358055D01*
X4609780Y-16358055D02*
X4600256Y-16319959D01*
X4600256Y-16319959D02*
X4600256Y-16272340D01*
X4600256Y-16272340D02*
X4609780Y-16234245D01*
X4609780Y-16234245D02*
X4619304Y-16215198D01*
X4619304Y-16215198D02*
X4628828Y-16205674D01*
X4628828Y-16205674D02*
X4647875Y-16196150D01*
X4838352Y-16196150D02*
X4857399Y-16196150D01*
X4857399Y-16196150D02*
X4876447Y-16205674D01*
X4876447Y-16205674D02*
X4885971Y-16215198D01*
X4885971Y-16215198D02*
X4895494Y-16234245D01*
X4895494Y-16234245D02*
X4905018Y-16272340D01*
X4905018Y-16272340D02*
X4905018Y-16319959D01*
X4905018Y-16319959D02*
X4895494Y-16358055D01*
X4895494Y-16358055D02*
X4885971Y-16377102D01*
X4885971Y-16377102D02*
X4876447Y-16386626D01*
X4876447Y-16386626D02*
X4857399Y-16396150D01*
X4857399Y-16396150D02*
X4838352Y-16396150D01*
X4838352Y-16396150D02*
X4819304Y-16386626D01*
X4819304Y-16386626D02*
X4809780Y-16377102D01*
X4809780Y-16377102D02*
X4800256Y-16358055D01*
X4800256Y-16358055D02*
X4790733Y-16319959D01*
X4790733Y-16319959D02*
X4790733Y-16272340D01*
X4790733Y-16272340D02*
X4800256Y-16234245D01*
X4800256Y-16234245D02*
X4809780Y-16215198D01*
X4809780Y-16215198D02*
X4819304Y-16205674D01*
X4819304Y-16205674D02*
X4838352Y-16196150D01*
X4990733Y-16396150D02*
X4990733Y-16262817D01*
X4990733Y-16281864D02*
X5000256Y-16272340D01*
X5000256Y-16272340D02*
X5019304Y-16262817D01*
X5019304Y-16262817D02*
X5047875Y-16262817D01*
X5047875Y-16262817D02*
X5066923Y-16272340D01*
X5066923Y-16272340D02*
X5076447Y-16291388D01*
X5076447Y-16291388D02*
X5076447Y-16396150D01*
X5076447Y-16291388D02*
X5085971Y-16272340D01*
X5085971Y-16272340D02*
X5105018Y-16262817D01*
X5105018Y-16262817D02*
X5133590Y-16262817D01*
X5133590Y-16262817D02*
X5152637Y-16272340D01*
X5152637Y-16272340D02*
X5162161Y-16291388D01*
X5162161Y-16291388D02*
X5162161Y-16396150D01*
X5257399Y-16396150D02*
X5257399Y-16262817D01*
X5257399Y-16281864D02*
X5266923Y-16272340D01*
X5266923Y-16272340D02*
X5285971Y-16262817D01*
X5285971Y-16262817D02*
X5314542Y-16262817D01*
X5314542Y-16262817D02*
X5333590Y-16272340D01*
X5333590Y-16272340D02*
X5343114Y-16291388D01*
X5343114Y-16291388D02*
X5343114Y-16396150D01*
X5343114Y-16291388D02*
X5352637Y-16272340D01*
X5352637Y-16272340D02*
X5371685Y-16262817D01*
X5371685Y-16262817D02*
X5400256Y-16262817D01*
X5400256Y-16262817D02*
X5419304Y-16272340D01*
X5419304Y-16272340D02*
X5428828Y-16291388D01*
X5428828Y-16291388D02*
X5428828Y-16396150D01*
X5819304Y-16186626D02*
X5647875Y-16443769D01*
X6076447Y-16196150D02*
X6095495Y-16196150D01*
X6095495Y-16196150D02*
X6114542Y-16205674D01*
X6114542Y-16205674D02*
X6124066Y-16215198D01*
X6124066Y-16215198D02*
X6133590Y-16234245D01*
X6133590Y-16234245D02*
X6143114Y-16272340D01*
X6143114Y-16272340D02*
X6143114Y-16319959D01*
X6143114Y-16319959D02*
X6133590Y-16358055D01*
X6133590Y-16358055D02*
X6124066Y-16377102D01*
X6124066Y-16377102D02*
X6114542Y-16386626D01*
X6114542Y-16386626D02*
X6095495Y-16396150D01*
X6095495Y-16396150D02*
X6076447Y-16396150D01*
X6076447Y-16396150D02*
X6057399Y-16386626D01*
X6057399Y-16386626D02*
X6047875Y-16377102D01*
X6047875Y-16377102D02*
X6038352Y-16358055D01*
X6038352Y-16358055D02*
X6028828Y-16319959D01*
X6028828Y-16319959D02*
X6028828Y-16272340D01*
X6028828Y-16272340D02*
X6038352Y-16234245D01*
X6038352Y-16234245D02*
X6047875Y-16215198D01*
X6047875Y-16215198D02*
X6057399Y-16205674D01*
X6057399Y-16205674D02*
X6076447Y-16196150D01*
X6228828Y-16377102D02*
X6238352Y-16386626D01*
X6238352Y-16386626D02*
X6228828Y-16396150D01*
X6228828Y-16396150D02*
X6219304Y-16386626D01*
X6219304Y-16386626D02*
X6228828Y-16377102D01*
X6228828Y-16377102D02*
X6228828Y-16396150D01*
X6362161Y-16196150D02*
X6381209Y-16196150D01*
X6381209Y-16196150D02*
X6400256Y-16205674D01*
X6400256Y-16205674D02*
X6409780Y-16215198D01*
X6409780Y-16215198D02*
X6419304Y-16234245D01*
X6419304Y-16234245D02*
X6428828Y-16272340D01*
X6428828Y-16272340D02*
X6428828Y-16319959D01*
X6428828Y-16319959D02*
X6419304Y-16358055D01*
X6419304Y-16358055D02*
X6409780Y-16377102D01*
X6409780Y-16377102D02*
X6400256Y-16386626D01*
X6400256Y-16386626D02*
X6381209Y-16396150D01*
X6381209Y-16396150D02*
X6362161Y-16396150D01*
X6362161Y-16396150D02*
X6343114Y-16386626D01*
X6343114Y-16386626D02*
X6333590Y-16377102D01*
X6333590Y-16377102D02*
X6324066Y-16358055D01*
X6324066Y-16358055D02*
X6314542Y-16319959D01*
X6314542Y-16319959D02*
X6314542Y-16272340D01*
X6314542Y-16272340D02*
X6324066Y-16234245D01*
X6324066Y-16234245D02*
X6333590Y-16215198D01*
X6333590Y-16215198D02*
X6343114Y-16205674D01*
X6343114Y-16205674D02*
X6362161Y-16196150D01*
X6495495Y-16196150D02*
X6619304Y-16196150D01*
X6619304Y-16196150D02*
X6552637Y-16272340D01*
X6552637Y-16272340D02*
X6581209Y-16272340D01*
X6581209Y-16272340D02*
X6600256Y-16281864D01*
X6600256Y-16281864D02*
X6609780Y-16291388D01*
X6609780Y-16291388D02*
X6619304Y-16310436D01*
X6619304Y-16310436D02*
X6619304Y-16358055D01*
X6619304Y-16358055D02*
X6609780Y-16377102D01*
X6609780Y-16377102D02*
X6600256Y-16386626D01*
X6600256Y-16386626D02*
X6581209Y-16396150D01*
X6581209Y-16396150D02*
X6524066Y-16396150D01*
X6524066Y-16396150D02*
X6505018Y-16386626D01*
X6505018Y-16386626D02*
X6495495Y-16377102D01*
X6714542Y-16396150D02*
X6752637Y-16396150D01*
X6752637Y-16396150D02*
X6771685Y-16386626D01*
X6771685Y-16386626D02*
X6781209Y-16377102D01*
X6781209Y-16377102D02*
X6800256Y-16348531D01*
X6800256Y-16348531D02*
X6809780Y-16310436D01*
X6809780Y-16310436D02*
X6809780Y-16234245D01*
X6809780Y-16234245D02*
X6800256Y-16215198D01*
X6800256Y-16215198D02*
X6790733Y-16205674D01*
X6790733Y-16205674D02*
X6771685Y-16196150D01*
X6771685Y-16196150D02*
X6733590Y-16196150D01*
X6733590Y-16196150D02*
X6714542Y-16205674D01*
X6714542Y-16205674D02*
X6705018Y-16215198D01*
X6705018Y-16215198D02*
X6695495Y-16234245D01*
X6695495Y-16234245D02*
X6695495Y-16281864D01*
X6695495Y-16281864D02*
X6705018Y-16300912D01*
X6705018Y-16300912D02*
X6714542Y-16310436D01*
X6714542Y-16310436D02*
X6733590Y-16319959D01*
X6733590Y-16319959D02*
X6771685Y-16319959D01*
X6771685Y-16319959D02*
X6790733Y-16310436D01*
X6790733Y-16310436D02*
X6800256Y-16300912D01*
X6800256Y-16300912D02*
X6809780Y-16281864D01*
X6981209Y-16262817D02*
X6981209Y-16396150D01*
X6933590Y-16186626D02*
X6885971Y-16329483D01*
X6885971Y-16329483D02*
X7009780Y-16329483D01*
X7076447Y-16196150D02*
X7076447Y-16234245D01*
X7152637Y-16196150D02*
X7152637Y-16234245D01*
X7447876Y-16472340D02*
X7438352Y-16462817D01*
X7438352Y-16462817D02*
X7419304Y-16434245D01*
X7419304Y-16434245D02*
X7409780Y-16415198D01*
X7409780Y-16415198D02*
X7400257Y-16386626D01*
X7400257Y-16386626D02*
X7390733Y-16339007D01*
X7390733Y-16339007D02*
X7390733Y-16300912D01*
X7390733Y-16300912D02*
X7400257Y-16253293D01*
X7400257Y-16253293D02*
X7409780Y-16224721D01*
X7409780Y-16224721D02*
X7419304Y-16205674D01*
X7419304Y-16205674D02*
X7438352Y-16177102D01*
X7438352Y-16177102D02*
X7447876Y-16167578D01*
X7628828Y-16396150D02*
X7514542Y-16396150D01*
X7571685Y-16396150D02*
X7571685Y-16196150D01*
X7571685Y-16196150D02*
X7552637Y-16224721D01*
X7552637Y-16224721D02*
X7533590Y-16243769D01*
X7533590Y-16243769D02*
X7514542Y-16253293D01*
X7800257Y-16196150D02*
X7762161Y-16196150D01*
X7762161Y-16196150D02*
X7743114Y-16205674D01*
X7743114Y-16205674D02*
X7733590Y-16215198D01*
X7733590Y-16215198D02*
X7714542Y-16243769D01*
X7714542Y-16243769D02*
X7705018Y-16281864D01*
X7705018Y-16281864D02*
X7705018Y-16358055D01*
X7705018Y-16358055D02*
X7714542Y-16377102D01*
X7714542Y-16377102D02*
X7724066Y-16386626D01*
X7724066Y-16386626D02*
X7743114Y-16396150D01*
X7743114Y-16396150D02*
X7781209Y-16396150D01*
X7781209Y-16396150D02*
X7800257Y-16386626D01*
X7800257Y-16386626D02*
X7809780Y-16377102D01*
X7809780Y-16377102D02*
X7819304Y-16358055D01*
X7819304Y-16358055D02*
X7819304Y-16310436D01*
X7819304Y-16310436D02*
X7809780Y-16291388D01*
X7809780Y-16291388D02*
X7800257Y-16281864D01*
X7800257Y-16281864D02*
X7781209Y-16272340D01*
X7781209Y-16272340D02*
X7743114Y-16272340D01*
X7743114Y-16272340D02*
X7724066Y-16281864D01*
X7724066Y-16281864D02*
X7714542Y-16291388D01*
X7714542Y-16291388D02*
X7705018Y-16310436D01*
X7895495Y-16215198D02*
X7905018Y-16205674D01*
X7905018Y-16205674D02*
X7924066Y-16196150D01*
X7924066Y-16196150D02*
X7971685Y-16196150D01*
X7971685Y-16196150D02*
X7990733Y-16205674D01*
X7990733Y-16205674D02*
X8000257Y-16215198D01*
X8000257Y-16215198D02*
X8009780Y-16234245D01*
X8009780Y-16234245D02*
X8009780Y-16253293D01*
X8009780Y-16253293D02*
X8000257Y-16281864D01*
X8000257Y-16281864D02*
X7885971Y-16396150D01*
X7885971Y-16396150D02*
X8009780Y-16396150D01*
X8247876Y-16396150D02*
X8247876Y-16196150D01*
X8333590Y-16396150D02*
X8333590Y-16291388D01*
X8333590Y-16291388D02*
X8324066Y-16272340D01*
X8324066Y-16272340D02*
X8305019Y-16262817D01*
X8305019Y-16262817D02*
X8276447Y-16262817D01*
X8276447Y-16262817D02*
X8257399Y-16272340D01*
X8257399Y-16272340D02*
X8247876Y-16281864D01*
X8457400Y-16396150D02*
X8438352Y-16386626D01*
X8438352Y-16386626D02*
X8428828Y-16377102D01*
X8428828Y-16377102D02*
X8419304Y-16358055D01*
X8419304Y-16358055D02*
X8419304Y-16300912D01*
X8419304Y-16300912D02*
X8428828Y-16281864D01*
X8428828Y-16281864D02*
X8438352Y-16272340D01*
X8438352Y-16272340D02*
X8457400Y-16262817D01*
X8457400Y-16262817D02*
X8485971Y-16262817D01*
X8485971Y-16262817D02*
X8505019Y-16272340D01*
X8505019Y-16272340D02*
X8514542Y-16281864D01*
X8514542Y-16281864D02*
X8524066Y-16300912D01*
X8524066Y-16300912D02*
X8524066Y-16358055D01*
X8524066Y-16358055D02*
X8514542Y-16377102D01*
X8514542Y-16377102D02*
X8505019Y-16386626D01*
X8505019Y-16386626D02*
X8485971Y-16396150D01*
X8485971Y-16396150D02*
X8457400Y-16396150D01*
X8638352Y-16396150D02*
X8619304Y-16386626D01*
X8619304Y-16386626D02*
X8609781Y-16367578D01*
X8609781Y-16367578D02*
X8609781Y-16196150D01*
X8790733Y-16386626D02*
X8771685Y-16396150D01*
X8771685Y-16396150D02*
X8733590Y-16396150D01*
X8733590Y-16396150D02*
X8714542Y-16386626D01*
X8714542Y-16386626D02*
X8705019Y-16367578D01*
X8705019Y-16367578D02*
X8705019Y-16291388D01*
X8705019Y-16291388D02*
X8714542Y-16272340D01*
X8714542Y-16272340D02*
X8733590Y-16262817D01*
X8733590Y-16262817D02*
X8771685Y-16262817D01*
X8771685Y-16262817D02*
X8790733Y-16272340D01*
X8790733Y-16272340D02*
X8800257Y-16291388D01*
X8800257Y-16291388D02*
X8800257Y-16310436D01*
X8800257Y-16310436D02*
X8705019Y-16329483D01*
X8876447Y-16386626D02*
X8895495Y-16396150D01*
X8895495Y-16396150D02*
X8933590Y-16396150D01*
X8933590Y-16396150D02*
X8952638Y-16386626D01*
X8952638Y-16386626D02*
X8962162Y-16367578D01*
X8962162Y-16367578D02*
X8962162Y-16358055D01*
X8962162Y-16358055D02*
X8952638Y-16339007D01*
X8952638Y-16339007D02*
X8933590Y-16329483D01*
X8933590Y-16329483D02*
X8905019Y-16329483D01*
X8905019Y-16329483D02*
X8885971Y-16319959D01*
X8885971Y-16319959D02*
X8876447Y-16300912D01*
X8876447Y-16300912D02*
X8876447Y-16291388D01*
X8876447Y-16291388D02*
X8885971Y-16272340D01*
X8885971Y-16272340D02*
X8905019Y-16262817D01*
X8905019Y-16262817D02*
X8933590Y-16262817D01*
X8933590Y-16262817D02*
X8952638Y-16272340D01*
X9028828Y-16472340D02*
X9038352Y-16462817D01*
X9038352Y-16462817D02*
X9057400Y-16434245D01*
X9057400Y-16434245D02*
X9066923Y-16415198D01*
X9066923Y-16415198D02*
X9076447Y-16386626D01*
X9076447Y-16386626D02*
X9085971Y-16339007D01*
X9085971Y-16339007D02*
X9085971Y-16300912D01*
X9085971Y-16300912D02*
X9076447Y-16253293D01*
X9076447Y-16253293D02*
X9066923Y-16224721D01*
X9066923Y-16224721D02*
X9057400Y-16205674D01*
X9057400Y-16205674D02*
X9038352Y-16177102D01*
X9038352Y-16177102D02*
X9028828Y-16167578D01*
X3843524Y-16639378D02*
X3843524Y-16497955D01*
X3702101Y-16497955D01*
X3702101Y-16639378D01*
X3843524Y-16639378D01*
X4124066Y-16479198D02*
X4133590Y-16469674D01*
X4133590Y-16469674D02*
X4152637Y-16460150D01*
X4152637Y-16460150D02*
X4200256Y-16460150D01*
X4200256Y-16460150D02*
X4219304Y-16469674D01*
X4219304Y-16469674D02*
X4228828Y-16479198D01*
X4228828Y-16479198D02*
X4238352Y-16498245D01*
X4238352Y-16498245D02*
X4238352Y-16517293D01*
X4238352Y-16517293D02*
X4228828Y-16545864D01*
X4228828Y-16545864D02*
X4114542Y-16660150D01*
X4114542Y-16660150D02*
X4238352Y-16660150D01*
X4324066Y-16641102D02*
X4333590Y-16650626D01*
X4333590Y-16650626D02*
X4324066Y-16660150D01*
X4324066Y-16660150D02*
X4314542Y-16650626D01*
X4314542Y-16650626D02*
X4324066Y-16641102D01*
X4324066Y-16641102D02*
X4324066Y-16660150D01*
X4524066Y-16660150D02*
X4409780Y-16660150D01*
X4466923Y-16660150D02*
X4466923Y-16460150D01*
X4466923Y-16460150D02*
X4447875Y-16488721D01*
X4447875Y-16488721D02*
X4428828Y-16507769D01*
X4428828Y-16507769D02*
X4409780Y-16517293D01*
X4647875Y-16460150D02*
X4666923Y-16460150D01*
X4666923Y-16460150D02*
X4685971Y-16469674D01*
X4685971Y-16469674D02*
X4695494Y-16479198D01*
X4695494Y-16479198D02*
X4705018Y-16498245D01*
X4705018Y-16498245D02*
X4714542Y-16536340D01*
X4714542Y-16536340D02*
X4714542Y-16583959D01*
X4714542Y-16583959D02*
X4705018Y-16622055D01*
X4705018Y-16622055D02*
X4695494Y-16641102D01*
X4695494Y-16641102D02*
X4685971Y-16650626D01*
X4685971Y-16650626D02*
X4666923Y-16660150D01*
X4666923Y-16660150D02*
X4647875Y-16660150D01*
X4647875Y-16660150D02*
X4628828Y-16650626D01*
X4628828Y-16650626D02*
X4619304Y-16641102D01*
X4619304Y-16641102D02*
X4609780Y-16622055D01*
X4609780Y-16622055D02*
X4600256Y-16583959D01*
X4600256Y-16583959D02*
X4600256Y-16536340D01*
X4600256Y-16536340D02*
X4609780Y-16498245D01*
X4609780Y-16498245D02*
X4619304Y-16479198D01*
X4619304Y-16479198D02*
X4628828Y-16469674D01*
X4628828Y-16469674D02*
X4647875Y-16460150D01*
X4838352Y-16460150D02*
X4857399Y-16460150D01*
X4857399Y-16460150D02*
X4876447Y-16469674D01*
X4876447Y-16469674D02*
X4885971Y-16479198D01*
X4885971Y-16479198D02*
X4895494Y-16498245D01*
X4895494Y-16498245D02*
X4905018Y-16536340D01*
X4905018Y-16536340D02*
X4905018Y-16583959D01*
X4905018Y-16583959D02*
X4895494Y-16622055D01*
X4895494Y-16622055D02*
X4885971Y-16641102D01*
X4885971Y-16641102D02*
X4876447Y-16650626D01*
X4876447Y-16650626D02*
X4857399Y-16660150D01*
X4857399Y-16660150D02*
X4838352Y-16660150D01*
X4838352Y-16660150D02*
X4819304Y-16650626D01*
X4819304Y-16650626D02*
X4809780Y-16641102D01*
X4809780Y-16641102D02*
X4800256Y-16622055D01*
X4800256Y-16622055D02*
X4790733Y-16583959D01*
X4790733Y-16583959D02*
X4790733Y-16536340D01*
X4790733Y-16536340D02*
X4800256Y-16498245D01*
X4800256Y-16498245D02*
X4809780Y-16479198D01*
X4809780Y-16479198D02*
X4819304Y-16469674D01*
X4819304Y-16469674D02*
X4838352Y-16460150D01*
X4990733Y-16660150D02*
X4990733Y-16526817D01*
X4990733Y-16545864D02*
X5000256Y-16536340D01*
X5000256Y-16536340D02*
X5019304Y-16526817D01*
X5019304Y-16526817D02*
X5047875Y-16526817D01*
X5047875Y-16526817D02*
X5066923Y-16536340D01*
X5066923Y-16536340D02*
X5076447Y-16555388D01*
X5076447Y-16555388D02*
X5076447Y-16660150D01*
X5076447Y-16555388D02*
X5085971Y-16536340D01*
X5085971Y-16536340D02*
X5105018Y-16526817D01*
X5105018Y-16526817D02*
X5133590Y-16526817D01*
X5133590Y-16526817D02*
X5152637Y-16536340D01*
X5152637Y-16536340D02*
X5162161Y-16555388D01*
X5162161Y-16555388D02*
X5162161Y-16660150D01*
X5257399Y-16660150D02*
X5257399Y-16526817D01*
X5257399Y-16545864D02*
X5266923Y-16536340D01*
X5266923Y-16536340D02*
X5285971Y-16526817D01*
X5285971Y-16526817D02*
X5314542Y-16526817D01*
X5314542Y-16526817D02*
X5333590Y-16536340D01*
X5333590Y-16536340D02*
X5343114Y-16555388D01*
X5343114Y-16555388D02*
X5343114Y-16660150D01*
X5343114Y-16555388D02*
X5352637Y-16536340D01*
X5352637Y-16536340D02*
X5371685Y-16526817D01*
X5371685Y-16526817D02*
X5400256Y-16526817D01*
X5400256Y-16526817D02*
X5419304Y-16536340D01*
X5419304Y-16536340D02*
X5428828Y-16555388D01*
X5428828Y-16555388D02*
X5428828Y-16660150D01*
X5819304Y-16450626D02*
X5647875Y-16707769D01*
X6076447Y-16460150D02*
X6095495Y-16460150D01*
X6095495Y-16460150D02*
X6114542Y-16469674D01*
X6114542Y-16469674D02*
X6124066Y-16479198D01*
X6124066Y-16479198D02*
X6133590Y-16498245D01*
X6133590Y-16498245D02*
X6143114Y-16536340D01*
X6143114Y-16536340D02*
X6143114Y-16583959D01*
X6143114Y-16583959D02*
X6133590Y-16622055D01*
X6133590Y-16622055D02*
X6124066Y-16641102D01*
X6124066Y-16641102D02*
X6114542Y-16650626D01*
X6114542Y-16650626D02*
X6095495Y-16660150D01*
X6095495Y-16660150D02*
X6076447Y-16660150D01*
X6076447Y-16660150D02*
X6057399Y-16650626D01*
X6057399Y-16650626D02*
X6047875Y-16641102D01*
X6047875Y-16641102D02*
X6038352Y-16622055D01*
X6038352Y-16622055D02*
X6028828Y-16583959D01*
X6028828Y-16583959D02*
X6028828Y-16536340D01*
X6028828Y-16536340D02*
X6038352Y-16498245D01*
X6038352Y-16498245D02*
X6047875Y-16479198D01*
X6047875Y-16479198D02*
X6057399Y-16469674D01*
X6057399Y-16469674D02*
X6076447Y-16460150D01*
X6228828Y-16641102D02*
X6238352Y-16650626D01*
X6238352Y-16650626D02*
X6228828Y-16660150D01*
X6228828Y-16660150D02*
X6219304Y-16650626D01*
X6219304Y-16650626D02*
X6228828Y-16641102D01*
X6228828Y-16641102D02*
X6228828Y-16660150D01*
X6362161Y-16460150D02*
X6381209Y-16460150D01*
X6381209Y-16460150D02*
X6400256Y-16469674D01*
X6400256Y-16469674D02*
X6409780Y-16479198D01*
X6409780Y-16479198D02*
X6419304Y-16498245D01*
X6419304Y-16498245D02*
X6428828Y-16536340D01*
X6428828Y-16536340D02*
X6428828Y-16583959D01*
X6428828Y-16583959D02*
X6419304Y-16622055D01*
X6419304Y-16622055D02*
X6409780Y-16641102D01*
X6409780Y-16641102D02*
X6400256Y-16650626D01*
X6400256Y-16650626D02*
X6381209Y-16660150D01*
X6381209Y-16660150D02*
X6362161Y-16660150D01*
X6362161Y-16660150D02*
X6343114Y-16650626D01*
X6343114Y-16650626D02*
X6333590Y-16641102D01*
X6333590Y-16641102D02*
X6324066Y-16622055D01*
X6324066Y-16622055D02*
X6314542Y-16583959D01*
X6314542Y-16583959D02*
X6314542Y-16536340D01*
X6314542Y-16536340D02*
X6324066Y-16498245D01*
X6324066Y-16498245D02*
X6333590Y-16479198D01*
X6333590Y-16479198D02*
X6343114Y-16469674D01*
X6343114Y-16469674D02*
X6362161Y-16460150D01*
X6543114Y-16545864D02*
X6524066Y-16536340D01*
X6524066Y-16536340D02*
X6514542Y-16526817D01*
X6514542Y-16526817D02*
X6505018Y-16507769D01*
X6505018Y-16507769D02*
X6505018Y-16498245D01*
X6505018Y-16498245D02*
X6514542Y-16479198D01*
X6514542Y-16479198D02*
X6524066Y-16469674D01*
X6524066Y-16469674D02*
X6543114Y-16460150D01*
X6543114Y-16460150D02*
X6581209Y-16460150D01*
X6581209Y-16460150D02*
X6600256Y-16469674D01*
X6600256Y-16469674D02*
X6609780Y-16479198D01*
X6609780Y-16479198D02*
X6619304Y-16498245D01*
X6619304Y-16498245D02*
X6619304Y-16507769D01*
X6619304Y-16507769D02*
X6609780Y-16526817D01*
X6609780Y-16526817D02*
X6600256Y-16536340D01*
X6600256Y-16536340D02*
X6581209Y-16545864D01*
X6581209Y-16545864D02*
X6543114Y-16545864D01*
X6543114Y-16545864D02*
X6524066Y-16555388D01*
X6524066Y-16555388D02*
X6514542Y-16564912D01*
X6514542Y-16564912D02*
X6505018Y-16583959D01*
X6505018Y-16583959D02*
X6505018Y-16622055D01*
X6505018Y-16622055D02*
X6514542Y-16641102D01*
X6514542Y-16641102D02*
X6524066Y-16650626D01*
X6524066Y-16650626D02*
X6543114Y-16660150D01*
X6543114Y-16660150D02*
X6581209Y-16660150D01*
X6581209Y-16660150D02*
X6600256Y-16650626D01*
X6600256Y-16650626D02*
X6609780Y-16641102D01*
X6609780Y-16641102D02*
X6619304Y-16622055D01*
X6619304Y-16622055D02*
X6619304Y-16583959D01*
X6619304Y-16583959D02*
X6609780Y-16564912D01*
X6609780Y-16564912D02*
X6600256Y-16555388D01*
X6600256Y-16555388D02*
X6581209Y-16545864D01*
X6695495Y-16479198D02*
X6705018Y-16469674D01*
X6705018Y-16469674D02*
X6724066Y-16460150D01*
X6724066Y-16460150D02*
X6771685Y-16460150D01*
X6771685Y-16460150D02*
X6790733Y-16469674D01*
X6790733Y-16469674D02*
X6800256Y-16479198D01*
X6800256Y-16479198D02*
X6809780Y-16498245D01*
X6809780Y-16498245D02*
X6809780Y-16517293D01*
X6809780Y-16517293D02*
X6800256Y-16545864D01*
X6800256Y-16545864D02*
X6685971Y-16660150D01*
X6685971Y-16660150D02*
X6809780Y-16660150D01*
X6876447Y-16460150D02*
X7009780Y-16460150D01*
X7009780Y-16460150D02*
X6924066Y-16660150D01*
X7076447Y-16460150D02*
X7076447Y-16498245D01*
X7152637Y-16460150D02*
X7152637Y-16498245D01*
X7447876Y-16736340D02*
X7438352Y-16726817D01*
X7438352Y-16726817D02*
X7419304Y-16698245D01*
X7419304Y-16698245D02*
X7409780Y-16679198D01*
X7409780Y-16679198D02*
X7400257Y-16650626D01*
X7400257Y-16650626D02*
X7390733Y-16603007D01*
X7390733Y-16603007D02*
X7390733Y-16564912D01*
X7390733Y-16564912D02*
X7400257Y-16517293D01*
X7400257Y-16517293D02*
X7409780Y-16488721D01*
X7409780Y-16488721D02*
X7419304Y-16469674D01*
X7419304Y-16469674D02*
X7438352Y-16441102D01*
X7438352Y-16441102D02*
X7447876Y-16431578D01*
X7609780Y-16526817D02*
X7609780Y-16660150D01*
X7562161Y-16450626D02*
X7514542Y-16593483D01*
X7514542Y-16593483D02*
X7638352Y-16593483D01*
X7866923Y-16660150D02*
X7866923Y-16460150D01*
X7952638Y-16660150D02*
X7952638Y-16555388D01*
X7952638Y-16555388D02*
X7943114Y-16536340D01*
X7943114Y-16536340D02*
X7924066Y-16526817D01*
X7924066Y-16526817D02*
X7895495Y-16526817D01*
X7895495Y-16526817D02*
X7876447Y-16536340D01*
X7876447Y-16536340D02*
X7866923Y-16545864D01*
X8076447Y-16660150D02*
X8057399Y-16650626D01*
X8057399Y-16650626D02*
X8047876Y-16641102D01*
X8047876Y-16641102D02*
X8038352Y-16622055D01*
X8038352Y-16622055D02*
X8038352Y-16564912D01*
X8038352Y-16564912D02*
X8047876Y-16545864D01*
X8047876Y-16545864D02*
X8057399Y-16536340D01*
X8057399Y-16536340D02*
X8076447Y-16526817D01*
X8076447Y-16526817D02*
X8105019Y-16526817D01*
X8105019Y-16526817D02*
X8124066Y-16536340D01*
X8124066Y-16536340D02*
X8133590Y-16545864D01*
X8133590Y-16545864D02*
X8143114Y-16564912D01*
X8143114Y-16564912D02*
X8143114Y-16622055D01*
X8143114Y-16622055D02*
X8133590Y-16641102D01*
X8133590Y-16641102D02*
X8124066Y-16650626D01*
X8124066Y-16650626D02*
X8105019Y-16660150D01*
X8105019Y-16660150D02*
X8076447Y-16660150D01*
X8257399Y-16660150D02*
X8238352Y-16650626D01*
X8238352Y-16650626D02*
X8228828Y-16631578D01*
X8228828Y-16631578D02*
X8228828Y-16460150D01*
X8409781Y-16650626D02*
X8390733Y-16660150D01*
X8390733Y-16660150D02*
X8352638Y-16660150D01*
X8352638Y-16660150D02*
X8333590Y-16650626D01*
X8333590Y-16650626D02*
X8324066Y-16631578D01*
X8324066Y-16631578D02*
X8324066Y-16555388D01*
X8324066Y-16555388D02*
X8333590Y-16536340D01*
X8333590Y-16536340D02*
X8352638Y-16526817D01*
X8352638Y-16526817D02*
X8390733Y-16526817D01*
X8390733Y-16526817D02*
X8409781Y-16536340D01*
X8409781Y-16536340D02*
X8419304Y-16555388D01*
X8419304Y-16555388D02*
X8419304Y-16574436D01*
X8419304Y-16574436D02*
X8324066Y-16593483D01*
X8495495Y-16650626D02*
X8514542Y-16660150D01*
X8514542Y-16660150D02*
X8552638Y-16660150D01*
X8552638Y-16660150D02*
X8571685Y-16650626D01*
X8571685Y-16650626D02*
X8581209Y-16631578D01*
X8581209Y-16631578D02*
X8581209Y-16622055D01*
X8581209Y-16622055D02*
X8571685Y-16603007D01*
X8571685Y-16603007D02*
X8552638Y-16593483D01*
X8552638Y-16593483D02*
X8524066Y-16593483D01*
X8524066Y-16593483D02*
X8505019Y-16583959D01*
X8505019Y-16583959D02*
X8495495Y-16564912D01*
X8495495Y-16564912D02*
X8495495Y-16555388D01*
X8495495Y-16555388D02*
X8505019Y-16536340D01*
X8505019Y-16536340D02*
X8524066Y-16526817D01*
X8524066Y-16526817D02*
X8552638Y-16526817D01*
X8552638Y-16526817D02*
X8571685Y-16536340D01*
X8647876Y-16736340D02*
X8657400Y-16726817D01*
X8657400Y-16726817D02*
X8676447Y-16698245D01*
X8676447Y-16698245D02*
X8685971Y-16679198D01*
X8685971Y-16679198D02*
X8695495Y-16650626D01*
X8695495Y-16650626D02*
X8705019Y-16603007D01*
X8705019Y-16603007D02*
X8705019Y-16564912D01*
X8705019Y-16564912D02*
X8695495Y-16517293D01*
X8695495Y-16517293D02*
X8685971Y-16488721D01*
X8685971Y-16488721D02*
X8676447Y-16469674D01*
X8676447Y-16469674D02*
X8657400Y-16441102D01*
X8657400Y-16441102D02*
X8647876Y-16431578D01*
X3772813Y-16988666D02*
X3872813Y-16888666D01*
X3772813Y-16788666D01*
X3672813Y-16888666D01*
X3772813Y-16988666D01*
X4124066Y-16799198D02*
X4133590Y-16789674D01*
X4133590Y-16789674D02*
X4152637Y-16780150D01*
X4152637Y-16780150D02*
X4200256Y-16780150D01*
X4200256Y-16780150D02*
X4219304Y-16789674D01*
X4219304Y-16789674D02*
X4228828Y-16799198D01*
X4228828Y-16799198D02*
X4238352Y-16818245D01*
X4238352Y-16818245D02*
X4238352Y-16837293D01*
X4238352Y-16837293D02*
X4228828Y-16865864D01*
X4228828Y-16865864D02*
X4114542Y-16980150D01*
X4114542Y-16980150D02*
X4238352Y-16980150D01*
X4324066Y-16961102D02*
X4333590Y-16970626D01*
X4333590Y-16970626D02*
X4324066Y-16980150D01*
X4324066Y-16980150D02*
X4314542Y-16970626D01*
X4314542Y-16970626D02*
X4324066Y-16961102D01*
X4324066Y-16961102D02*
X4324066Y-16980150D01*
X4400256Y-16780150D02*
X4533590Y-16780150D01*
X4533590Y-16780150D02*
X4447875Y-16980150D01*
X4647875Y-16780150D02*
X4666923Y-16780150D01*
X4666923Y-16780150D02*
X4685971Y-16789674D01*
X4685971Y-16789674D02*
X4695494Y-16799198D01*
X4695494Y-16799198D02*
X4705018Y-16818245D01*
X4705018Y-16818245D02*
X4714542Y-16856340D01*
X4714542Y-16856340D02*
X4714542Y-16903960D01*
X4714542Y-16903960D02*
X4705018Y-16942055D01*
X4705018Y-16942055D02*
X4695494Y-16961102D01*
X4695494Y-16961102D02*
X4685971Y-16970626D01*
X4685971Y-16970626D02*
X4666923Y-16980150D01*
X4666923Y-16980150D02*
X4647875Y-16980150D01*
X4647875Y-16980150D02*
X4628828Y-16970626D01*
X4628828Y-16970626D02*
X4619304Y-16961102D01*
X4619304Y-16961102D02*
X4609780Y-16942055D01*
X4609780Y-16942055D02*
X4600256Y-16903960D01*
X4600256Y-16903960D02*
X4600256Y-16856340D01*
X4600256Y-16856340D02*
X4609780Y-16818245D01*
X4609780Y-16818245D02*
X4619304Y-16799198D01*
X4619304Y-16799198D02*
X4628828Y-16789674D01*
X4628828Y-16789674D02*
X4647875Y-16780150D01*
X4838352Y-16780150D02*
X4857399Y-16780150D01*
X4857399Y-16780150D02*
X4876447Y-16789674D01*
X4876447Y-16789674D02*
X4885971Y-16799198D01*
X4885971Y-16799198D02*
X4895494Y-16818245D01*
X4895494Y-16818245D02*
X4905018Y-16856340D01*
X4905018Y-16856340D02*
X4905018Y-16903960D01*
X4905018Y-16903960D02*
X4895494Y-16942055D01*
X4895494Y-16942055D02*
X4885971Y-16961102D01*
X4885971Y-16961102D02*
X4876447Y-16970626D01*
X4876447Y-16970626D02*
X4857399Y-16980150D01*
X4857399Y-16980150D02*
X4838352Y-16980150D01*
X4838352Y-16980150D02*
X4819304Y-16970626D01*
X4819304Y-16970626D02*
X4809780Y-16961102D01*
X4809780Y-16961102D02*
X4800256Y-16942055D01*
X4800256Y-16942055D02*
X4790733Y-16903960D01*
X4790733Y-16903960D02*
X4790733Y-16856340D01*
X4790733Y-16856340D02*
X4800256Y-16818245D01*
X4800256Y-16818245D02*
X4809780Y-16799198D01*
X4809780Y-16799198D02*
X4819304Y-16789674D01*
X4819304Y-16789674D02*
X4838352Y-16780150D01*
X4990733Y-16980150D02*
X4990733Y-16846817D01*
X4990733Y-16865864D02*
X5000256Y-16856340D01*
X5000256Y-16856340D02*
X5019304Y-16846817D01*
X5019304Y-16846817D02*
X5047875Y-16846817D01*
X5047875Y-16846817D02*
X5066923Y-16856340D01*
X5066923Y-16856340D02*
X5076447Y-16875388D01*
X5076447Y-16875388D02*
X5076447Y-16980150D01*
X5076447Y-16875388D02*
X5085971Y-16856340D01*
X5085971Y-16856340D02*
X5105018Y-16846817D01*
X5105018Y-16846817D02*
X5133590Y-16846817D01*
X5133590Y-16846817D02*
X5152637Y-16856340D01*
X5152637Y-16856340D02*
X5162161Y-16875388D01*
X5162161Y-16875388D02*
X5162161Y-16980150D01*
X5257399Y-16980150D02*
X5257399Y-16846817D01*
X5257399Y-16865864D02*
X5266923Y-16856340D01*
X5266923Y-16856340D02*
X5285971Y-16846817D01*
X5285971Y-16846817D02*
X5314542Y-16846817D01*
X5314542Y-16846817D02*
X5333590Y-16856340D01*
X5333590Y-16856340D02*
X5343114Y-16875388D01*
X5343114Y-16875388D02*
X5343114Y-16980150D01*
X5343114Y-16875388D02*
X5352637Y-16856340D01*
X5352637Y-16856340D02*
X5371685Y-16846817D01*
X5371685Y-16846817D02*
X5400256Y-16846817D01*
X5400256Y-16846817D02*
X5419304Y-16856340D01*
X5419304Y-16856340D02*
X5428828Y-16875388D01*
X5428828Y-16875388D02*
X5428828Y-16980150D01*
X5819304Y-16770626D02*
X5647875Y-17027769D01*
X6076447Y-16780150D02*
X6095495Y-16780150D01*
X6095495Y-16780150D02*
X6114542Y-16789674D01*
X6114542Y-16789674D02*
X6124066Y-16799198D01*
X6124066Y-16799198D02*
X6133590Y-16818245D01*
X6133590Y-16818245D02*
X6143114Y-16856340D01*
X6143114Y-16856340D02*
X6143114Y-16903960D01*
X6143114Y-16903960D02*
X6133590Y-16942055D01*
X6133590Y-16942055D02*
X6124066Y-16961102D01*
X6124066Y-16961102D02*
X6114542Y-16970626D01*
X6114542Y-16970626D02*
X6095495Y-16980150D01*
X6095495Y-16980150D02*
X6076447Y-16980150D01*
X6076447Y-16980150D02*
X6057399Y-16970626D01*
X6057399Y-16970626D02*
X6047875Y-16961102D01*
X6047875Y-16961102D02*
X6038352Y-16942055D01*
X6038352Y-16942055D02*
X6028828Y-16903960D01*
X6028828Y-16903960D02*
X6028828Y-16856340D01*
X6028828Y-16856340D02*
X6038352Y-16818245D01*
X6038352Y-16818245D02*
X6047875Y-16799198D01*
X6047875Y-16799198D02*
X6057399Y-16789674D01*
X6057399Y-16789674D02*
X6076447Y-16780150D01*
X6228828Y-16961102D02*
X6238352Y-16970626D01*
X6238352Y-16970626D02*
X6228828Y-16980150D01*
X6228828Y-16980150D02*
X6219304Y-16970626D01*
X6219304Y-16970626D02*
X6228828Y-16961102D01*
X6228828Y-16961102D02*
X6228828Y-16980150D01*
X6428828Y-16980150D02*
X6314542Y-16980150D01*
X6371685Y-16980150D02*
X6371685Y-16780150D01*
X6371685Y-16780150D02*
X6352637Y-16808721D01*
X6352637Y-16808721D02*
X6333590Y-16827769D01*
X6333590Y-16827769D02*
X6314542Y-16837293D01*
X6552637Y-16780150D02*
X6571685Y-16780150D01*
X6571685Y-16780150D02*
X6590733Y-16789674D01*
X6590733Y-16789674D02*
X6600256Y-16799198D01*
X6600256Y-16799198D02*
X6609780Y-16818245D01*
X6609780Y-16818245D02*
X6619304Y-16856340D01*
X6619304Y-16856340D02*
X6619304Y-16903960D01*
X6619304Y-16903960D02*
X6609780Y-16942055D01*
X6609780Y-16942055D02*
X6600256Y-16961102D01*
X6600256Y-16961102D02*
X6590733Y-16970626D01*
X6590733Y-16970626D02*
X6571685Y-16980150D01*
X6571685Y-16980150D02*
X6552637Y-16980150D01*
X6552637Y-16980150D02*
X6533590Y-16970626D01*
X6533590Y-16970626D02*
X6524066Y-16961102D01*
X6524066Y-16961102D02*
X6514542Y-16942055D01*
X6514542Y-16942055D02*
X6505018Y-16903960D01*
X6505018Y-16903960D02*
X6505018Y-16856340D01*
X6505018Y-16856340D02*
X6514542Y-16818245D01*
X6514542Y-16818245D02*
X6524066Y-16799198D01*
X6524066Y-16799198D02*
X6533590Y-16789674D01*
X6533590Y-16789674D02*
X6552637Y-16780150D01*
X6790733Y-16780150D02*
X6752637Y-16780150D01*
X6752637Y-16780150D02*
X6733590Y-16789674D01*
X6733590Y-16789674D02*
X6724066Y-16799198D01*
X6724066Y-16799198D02*
X6705018Y-16827769D01*
X6705018Y-16827769D02*
X6695495Y-16865864D01*
X6695495Y-16865864D02*
X6695495Y-16942055D01*
X6695495Y-16942055D02*
X6705018Y-16961102D01*
X6705018Y-16961102D02*
X6714542Y-16970626D01*
X6714542Y-16970626D02*
X6733590Y-16980150D01*
X6733590Y-16980150D02*
X6771685Y-16980150D01*
X6771685Y-16980150D02*
X6790733Y-16970626D01*
X6790733Y-16970626D02*
X6800256Y-16961102D01*
X6800256Y-16961102D02*
X6809780Y-16942055D01*
X6809780Y-16942055D02*
X6809780Y-16894436D01*
X6809780Y-16894436D02*
X6800256Y-16875388D01*
X6800256Y-16875388D02*
X6790733Y-16865864D01*
X6790733Y-16865864D02*
X6771685Y-16856340D01*
X6771685Y-16856340D02*
X6733590Y-16856340D01*
X6733590Y-16856340D02*
X6714542Y-16865864D01*
X6714542Y-16865864D02*
X6705018Y-16875388D01*
X6705018Y-16875388D02*
X6695495Y-16894436D01*
X6876447Y-16780150D02*
X7000256Y-16780150D01*
X7000256Y-16780150D02*
X6933590Y-16856340D01*
X6933590Y-16856340D02*
X6962161Y-16856340D01*
X6962161Y-16856340D02*
X6981209Y-16865864D01*
X6981209Y-16865864D02*
X6990733Y-16875388D01*
X6990733Y-16875388D02*
X7000256Y-16894436D01*
X7000256Y-16894436D02*
X7000256Y-16942055D01*
X7000256Y-16942055D02*
X6990733Y-16961102D01*
X6990733Y-16961102D02*
X6981209Y-16970626D01*
X6981209Y-16970626D02*
X6962161Y-16980150D01*
X6962161Y-16980150D02*
X6905018Y-16980150D01*
X6905018Y-16980150D02*
X6885971Y-16970626D01*
X6885971Y-16970626D02*
X6876447Y-16961102D01*
X7076447Y-16780150D02*
X7076447Y-16818245D01*
X7152637Y-16780150D02*
X7152637Y-16818245D01*
X7447876Y-17056340D02*
X7438352Y-17046817D01*
X7438352Y-17046817D02*
X7419304Y-17018245D01*
X7419304Y-17018245D02*
X7409780Y-16999198D01*
X7409780Y-16999198D02*
X7400257Y-16970626D01*
X7400257Y-16970626D02*
X7390733Y-16923007D01*
X7390733Y-16923007D02*
X7390733Y-16884912D01*
X7390733Y-16884912D02*
X7400257Y-16837293D01*
X7400257Y-16837293D02*
X7409780Y-16808721D01*
X7409780Y-16808721D02*
X7419304Y-16789674D01*
X7419304Y-16789674D02*
X7438352Y-16761102D01*
X7438352Y-16761102D02*
X7447876Y-16751578D01*
X7505018Y-16780150D02*
X7628828Y-16780150D01*
X7628828Y-16780150D02*
X7562161Y-16856340D01*
X7562161Y-16856340D02*
X7590733Y-16856340D01*
X7590733Y-16856340D02*
X7609780Y-16865864D01*
X7609780Y-16865864D02*
X7619304Y-16875388D01*
X7619304Y-16875388D02*
X7628828Y-16894436D01*
X7628828Y-16894436D02*
X7628828Y-16942055D01*
X7628828Y-16942055D02*
X7619304Y-16961102D01*
X7619304Y-16961102D02*
X7609780Y-16970626D01*
X7609780Y-16970626D02*
X7590733Y-16980150D01*
X7590733Y-16980150D02*
X7533590Y-16980150D01*
X7533590Y-16980150D02*
X7514542Y-16970626D01*
X7514542Y-16970626D02*
X7505018Y-16961102D01*
X7866923Y-16980150D02*
X7866923Y-16780150D01*
X7952638Y-16980150D02*
X7952638Y-16875388D01*
X7952638Y-16875388D02*
X7943114Y-16856340D01*
X7943114Y-16856340D02*
X7924066Y-16846817D01*
X7924066Y-16846817D02*
X7895495Y-16846817D01*
X7895495Y-16846817D02*
X7876447Y-16856340D01*
X7876447Y-16856340D02*
X7866923Y-16865864D01*
X8076447Y-16980150D02*
X8057399Y-16970626D01*
X8057399Y-16970626D02*
X8047876Y-16961102D01*
X8047876Y-16961102D02*
X8038352Y-16942055D01*
X8038352Y-16942055D02*
X8038352Y-16884912D01*
X8038352Y-16884912D02*
X8047876Y-16865864D01*
X8047876Y-16865864D02*
X8057399Y-16856340D01*
X8057399Y-16856340D02*
X8076447Y-16846817D01*
X8076447Y-16846817D02*
X8105019Y-16846817D01*
X8105019Y-16846817D02*
X8124066Y-16856340D01*
X8124066Y-16856340D02*
X8133590Y-16865864D01*
X8133590Y-16865864D02*
X8143114Y-16884912D01*
X8143114Y-16884912D02*
X8143114Y-16942055D01*
X8143114Y-16942055D02*
X8133590Y-16961102D01*
X8133590Y-16961102D02*
X8124066Y-16970626D01*
X8124066Y-16970626D02*
X8105019Y-16980150D01*
X8105019Y-16980150D02*
X8076447Y-16980150D01*
X8257399Y-16980150D02*
X8238352Y-16970626D01*
X8238352Y-16970626D02*
X8228828Y-16951579D01*
X8228828Y-16951579D02*
X8228828Y-16780150D01*
X8409781Y-16970626D02*
X8390733Y-16980150D01*
X8390733Y-16980150D02*
X8352638Y-16980150D01*
X8352638Y-16980150D02*
X8333590Y-16970626D01*
X8333590Y-16970626D02*
X8324066Y-16951579D01*
X8324066Y-16951579D02*
X8324066Y-16875388D01*
X8324066Y-16875388D02*
X8333590Y-16856340D01*
X8333590Y-16856340D02*
X8352638Y-16846817D01*
X8352638Y-16846817D02*
X8390733Y-16846817D01*
X8390733Y-16846817D02*
X8409781Y-16856340D01*
X8409781Y-16856340D02*
X8419304Y-16875388D01*
X8419304Y-16875388D02*
X8419304Y-16894436D01*
X8419304Y-16894436D02*
X8324066Y-16913483D01*
X8495495Y-16970626D02*
X8514542Y-16980150D01*
X8514542Y-16980150D02*
X8552638Y-16980150D01*
X8552638Y-16980150D02*
X8571685Y-16970626D01*
X8571685Y-16970626D02*
X8581209Y-16951579D01*
X8581209Y-16951579D02*
X8581209Y-16942055D01*
X8581209Y-16942055D02*
X8571685Y-16923007D01*
X8571685Y-16923007D02*
X8552638Y-16913483D01*
X8552638Y-16913483D02*
X8524066Y-16913483D01*
X8524066Y-16913483D02*
X8505019Y-16903960D01*
X8505019Y-16903960D02*
X8495495Y-16884912D01*
X8495495Y-16884912D02*
X8495495Y-16875388D01*
X8495495Y-16875388D02*
X8505019Y-16856340D01*
X8505019Y-16856340D02*
X8524066Y-16846817D01*
X8524066Y-16846817D02*
X8552638Y-16846817D01*
X8552638Y-16846817D02*
X8571685Y-16856340D01*
X8647876Y-17056340D02*
X8657400Y-17046817D01*
X8657400Y-17046817D02*
X8676447Y-17018245D01*
X8676447Y-17018245D02*
X8685971Y-16999198D01*
X8685971Y-16999198D02*
X8695495Y-16970626D01*
X8695495Y-16970626D02*
X8705019Y-16923007D01*
X8705019Y-16923007D02*
X8705019Y-16884912D01*
X8705019Y-16884912D02*
X8695495Y-16837293D01*
X8695495Y-16837293D02*
X8685971Y-16808721D01*
X8685971Y-16808721D02*
X8676447Y-16789674D01*
X8676447Y-16789674D02*
X8657400Y-16761102D01*
X8657400Y-16761102D02*
X8647876Y-16751578D01*
X3672813Y-17108666D02*
X3872813Y-17308666D01*
X3872813Y-17108666D02*
X3672813Y-17308666D01*
X3872813Y-17208666D02*
G75*
G02*
X3672813Y-17208666I-100000J0D01*
G01*
X3672813Y-17208666D02*
G75*
G02*
X3872813Y-17208666I100000J0D01*
G01*
X4124066Y-17119198D02*
X4133590Y-17109674D01*
X4133590Y-17109674D02*
X4152637Y-17100150D01*
X4152637Y-17100150D02*
X4200256Y-17100150D01*
X4200256Y-17100150D02*
X4219304Y-17109674D01*
X4219304Y-17109674D02*
X4228828Y-17119198D01*
X4228828Y-17119198D02*
X4238352Y-17138245D01*
X4238352Y-17138245D02*
X4238352Y-17157293D01*
X4238352Y-17157293D02*
X4228828Y-17185864D01*
X4228828Y-17185864D02*
X4114542Y-17300150D01*
X4114542Y-17300150D02*
X4238352Y-17300150D01*
X4324066Y-17281102D02*
X4333590Y-17290626D01*
X4333590Y-17290626D02*
X4324066Y-17300150D01*
X4324066Y-17300150D02*
X4314542Y-17290626D01*
X4314542Y-17290626D02*
X4324066Y-17281102D01*
X4324066Y-17281102D02*
X4324066Y-17300150D01*
X4400256Y-17100150D02*
X4533590Y-17100150D01*
X4533590Y-17100150D02*
X4447875Y-17300150D01*
X4705018Y-17100150D02*
X4609780Y-17100150D01*
X4609780Y-17100150D02*
X4600256Y-17195388D01*
X4600256Y-17195388D02*
X4609780Y-17185864D01*
X4609780Y-17185864D02*
X4628828Y-17176340D01*
X4628828Y-17176340D02*
X4676447Y-17176340D01*
X4676447Y-17176340D02*
X4695494Y-17185864D01*
X4695494Y-17185864D02*
X4705018Y-17195388D01*
X4705018Y-17195388D02*
X4714542Y-17214436D01*
X4714542Y-17214436D02*
X4714542Y-17262055D01*
X4714542Y-17262055D02*
X4705018Y-17281102D01*
X4705018Y-17281102D02*
X4695494Y-17290626D01*
X4695494Y-17290626D02*
X4676447Y-17300150D01*
X4676447Y-17300150D02*
X4628828Y-17300150D01*
X4628828Y-17300150D02*
X4609780Y-17290626D01*
X4609780Y-17290626D02*
X4600256Y-17281102D01*
X4838352Y-17100150D02*
X4857399Y-17100150D01*
X4857399Y-17100150D02*
X4876447Y-17109674D01*
X4876447Y-17109674D02*
X4885971Y-17119198D01*
X4885971Y-17119198D02*
X4895494Y-17138245D01*
X4895494Y-17138245D02*
X4905018Y-17176340D01*
X4905018Y-17176340D02*
X4905018Y-17223960D01*
X4905018Y-17223960D02*
X4895494Y-17262055D01*
X4895494Y-17262055D02*
X4885971Y-17281102D01*
X4885971Y-17281102D02*
X4876447Y-17290626D01*
X4876447Y-17290626D02*
X4857399Y-17300150D01*
X4857399Y-17300150D02*
X4838352Y-17300150D01*
X4838352Y-17300150D02*
X4819304Y-17290626D01*
X4819304Y-17290626D02*
X4809780Y-17281102D01*
X4809780Y-17281102D02*
X4800256Y-17262055D01*
X4800256Y-17262055D02*
X4790733Y-17223960D01*
X4790733Y-17223960D02*
X4790733Y-17176340D01*
X4790733Y-17176340D02*
X4800256Y-17138245D01*
X4800256Y-17138245D02*
X4809780Y-17119198D01*
X4809780Y-17119198D02*
X4819304Y-17109674D01*
X4819304Y-17109674D02*
X4838352Y-17100150D01*
X4990733Y-17300150D02*
X4990733Y-17166817D01*
X4990733Y-17185864D02*
X5000256Y-17176340D01*
X5000256Y-17176340D02*
X5019304Y-17166817D01*
X5019304Y-17166817D02*
X5047875Y-17166817D01*
X5047875Y-17166817D02*
X5066923Y-17176340D01*
X5066923Y-17176340D02*
X5076447Y-17195388D01*
X5076447Y-17195388D02*
X5076447Y-17300150D01*
X5076447Y-17195388D02*
X5085971Y-17176340D01*
X5085971Y-17176340D02*
X5105018Y-17166817D01*
X5105018Y-17166817D02*
X5133590Y-17166817D01*
X5133590Y-17166817D02*
X5152637Y-17176340D01*
X5152637Y-17176340D02*
X5162161Y-17195388D01*
X5162161Y-17195388D02*
X5162161Y-17300150D01*
X5257399Y-17300150D02*
X5257399Y-17166817D01*
X5257399Y-17185864D02*
X5266923Y-17176340D01*
X5266923Y-17176340D02*
X5285971Y-17166817D01*
X5285971Y-17166817D02*
X5314542Y-17166817D01*
X5314542Y-17166817D02*
X5333590Y-17176340D01*
X5333590Y-17176340D02*
X5343114Y-17195388D01*
X5343114Y-17195388D02*
X5343114Y-17300150D01*
X5343114Y-17195388D02*
X5352637Y-17176340D01*
X5352637Y-17176340D02*
X5371685Y-17166817D01*
X5371685Y-17166817D02*
X5400256Y-17166817D01*
X5400256Y-17166817D02*
X5419304Y-17176340D01*
X5419304Y-17176340D02*
X5428828Y-17195388D01*
X5428828Y-17195388D02*
X5428828Y-17300150D01*
X5819304Y-17090626D02*
X5647875Y-17347769D01*
X6076447Y-17100150D02*
X6095495Y-17100150D01*
X6095495Y-17100150D02*
X6114542Y-17109674D01*
X6114542Y-17109674D02*
X6124066Y-17119198D01*
X6124066Y-17119198D02*
X6133590Y-17138245D01*
X6133590Y-17138245D02*
X6143114Y-17176340D01*
X6143114Y-17176340D02*
X6143114Y-17223960D01*
X6143114Y-17223960D02*
X6133590Y-17262055D01*
X6133590Y-17262055D02*
X6124066Y-17281102D01*
X6124066Y-17281102D02*
X6114542Y-17290626D01*
X6114542Y-17290626D02*
X6095495Y-17300150D01*
X6095495Y-17300150D02*
X6076447Y-17300150D01*
X6076447Y-17300150D02*
X6057399Y-17290626D01*
X6057399Y-17290626D02*
X6047875Y-17281102D01*
X6047875Y-17281102D02*
X6038352Y-17262055D01*
X6038352Y-17262055D02*
X6028828Y-17223960D01*
X6028828Y-17223960D02*
X6028828Y-17176340D01*
X6028828Y-17176340D02*
X6038352Y-17138245D01*
X6038352Y-17138245D02*
X6047875Y-17119198D01*
X6047875Y-17119198D02*
X6057399Y-17109674D01*
X6057399Y-17109674D02*
X6076447Y-17100150D01*
X6228828Y-17281102D02*
X6238352Y-17290626D01*
X6238352Y-17290626D02*
X6228828Y-17300150D01*
X6228828Y-17300150D02*
X6219304Y-17290626D01*
X6219304Y-17290626D02*
X6228828Y-17281102D01*
X6228828Y-17281102D02*
X6228828Y-17300150D01*
X6428828Y-17300150D02*
X6314542Y-17300150D01*
X6371685Y-17300150D02*
X6371685Y-17100150D01*
X6371685Y-17100150D02*
X6352637Y-17128721D01*
X6352637Y-17128721D02*
X6333590Y-17147769D01*
X6333590Y-17147769D02*
X6314542Y-17157293D01*
X6552637Y-17100150D02*
X6571685Y-17100150D01*
X6571685Y-17100150D02*
X6590733Y-17109674D01*
X6590733Y-17109674D02*
X6600256Y-17119198D01*
X6600256Y-17119198D02*
X6609780Y-17138245D01*
X6609780Y-17138245D02*
X6619304Y-17176340D01*
X6619304Y-17176340D02*
X6619304Y-17223960D01*
X6619304Y-17223960D02*
X6609780Y-17262055D01*
X6609780Y-17262055D02*
X6600256Y-17281102D01*
X6600256Y-17281102D02*
X6590733Y-17290626D01*
X6590733Y-17290626D02*
X6571685Y-17300150D01*
X6571685Y-17300150D02*
X6552637Y-17300150D01*
X6552637Y-17300150D02*
X6533590Y-17290626D01*
X6533590Y-17290626D02*
X6524066Y-17281102D01*
X6524066Y-17281102D02*
X6514542Y-17262055D01*
X6514542Y-17262055D02*
X6505018Y-17223960D01*
X6505018Y-17223960D02*
X6505018Y-17176340D01*
X6505018Y-17176340D02*
X6514542Y-17138245D01*
X6514542Y-17138245D02*
X6524066Y-17119198D01*
X6524066Y-17119198D02*
X6533590Y-17109674D01*
X6533590Y-17109674D02*
X6552637Y-17100150D01*
X6733590Y-17185864D02*
X6714542Y-17176340D01*
X6714542Y-17176340D02*
X6705018Y-17166817D01*
X6705018Y-17166817D02*
X6695495Y-17147769D01*
X6695495Y-17147769D02*
X6695495Y-17138245D01*
X6695495Y-17138245D02*
X6705018Y-17119198D01*
X6705018Y-17119198D02*
X6714542Y-17109674D01*
X6714542Y-17109674D02*
X6733590Y-17100150D01*
X6733590Y-17100150D02*
X6771685Y-17100150D01*
X6771685Y-17100150D02*
X6790733Y-17109674D01*
X6790733Y-17109674D02*
X6800256Y-17119198D01*
X6800256Y-17119198D02*
X6809780Y-17138245D01*
X6809780Y-17138245D02*
X6809780Y-17147769D01*
X6809780Y-17147769D02*
X6800256Y-17166817D01*
X6800256Y-17166817D02*
X6790733Y-17176340D01*
X6790733Y-17176340D02*
X6771685Y-17185864D01*
X6771685Y-17185864D02*
X6733590Y-17185864D01*
X6733590Y-17185864D02*
X6714542Y-17195388D01*
X6714542Y-17195388D02*
X6705018Y-17204912D01*
X6705018Y-17204912D02*
X6695495Y-17223960D01*
X6695495Y-17223960D02*
X6695495Y-17262055D01*
X6695495Y-17262055D02*
X6705018Y-17281102D01*
X6705018Y-17281102D02*
X6714542Y-17290626D01*
X6714542Y-17290626D02*
X6733590Y-17300150D01*
X6733590Y-17300150D02*
X6771685Y-17300150D01*
X6771685Y-17300150D02*
X6790733Y-17290626D01*
X6790733Y-17290626D02*
X6800256Y-17281102D01*
X6800256Y-17281102D02*
X6809780Y-17262055D01*
X6809780Y-17262055D02*
X6809780Y-17223960D01*
X6809780Y-17223960D02*
X6800256Y-17204912D01*
X6800256Y-17204912D02*
X6790733Y-17195388D01*
X6790733Y-17195388D02*
X6771685Y-17185864D01*
X6876447Y-17100150D02*
X7000256Y-17100150D01*
X7000256Y-17100150D02*
X6933590Y-17176340D01*
X6933590Y-17176340D02*
X6962161Y-17176340D01*
X6962161Y-17176340D02*
X6981209Y-17185864D01*
X6981209Y-17185864D02*
X6990733Y-17195388D01*
X6990733Y-17195388D02*
X7000256Y-17214436D01*
X7000256Y-17214436D02*
X7000256Y-17262055D01*
X7000256Y-17262055D02*
X6990733Y-17281102D01*
X6990733Y-17281102D02*
X6981209Y-17290626D01*
X6981209Y-17290626D02*
X6962161Y-17300150D01*
X6962161Y-17300150D02*
X6905018Y-17300150D01*
X6905018Y-17300150D02*
X6885971Y-17290626D01*
X6885971Y-17290626D02*
X6876447Y-17281102D01*
X7076447Y-17100150D02*
X7076447Y-17138245D01*
X7152637Y-17100150D02*
X7152637Y-17138245D01*
X7447876Y-17376340D02*
X7438352Y-17366817D01*
X7438352Y-17366817D02*
X7419304Y-17338245D01*
X7419304Y-17338245D02*
X7409780Y-17319198D01*
X7409780Y-17319198D02*
X7400257Y-17290626D01*
X7400257Y-17290626D02*
X7390733Y-17243007D01*
X7390733Y-17243007D02*
X7390733Y-17204912D01*
X7390733Y-17204912D02*
X7400257Y-17157293D01*
X7400257Y-17157293D02*
X7409780Y-17128721D01*
X7409780Y-17128721D02*
X7419304Y-17109674D01*
X7419304Y-17109674D02*
X7438352Y-17081102D01*
X7438352Y-17081102D02*
X7447876Y-17071579D01*
X7628828Y-17300150D02*
X7514542Y-17300150D01*
X7571685Y-17300150D02*
X7571685Y-17100150D01*
X7571685Y-17100150D02*
X7552637Y-17128721D01*
X7552637Y-17128721D02*
X7533590Y-17147769D01*
X7533590Y-17147769D02*
X7514542Y-17157293D01*
X7866923Y-17300150D02*
X7866923Y-17100150D01*
X7952638Y-17300150D02*
X7952638Y-17195388D01*
X7952638Y-17195388D02*
X7943114Y-17176340D01*
X7943114Y-17176340D02*
X7924066Y-17166817D01*
X7924066Y-17166817D02*
X7895495Y-17166817D01*
X7895495Y-17166817D02*
X7876447Y-17176340D01*
X7876447Y-17176340D02*
X7866923Y-17185864D01*
X8076447Y-17300150D02*
X8057399Y-17290626D01*
X8057399Y-17290626D02*
X8047876Y-17281102D01*
X8047876Y-17281102D02*
X8038352Y-17262055D01*
X8038352Y-17262055D02*
X8038352Y-17204912D01*
X8038352Y-17204912D02*
X8047876Y-17185864D01*
X8047876Y-17185864D02*
X8057399Y-17176340D01*
X8057399Y-17176340D02*
X8076447Y-17166817D01*
X8076447Y-17166817D02*
X8105019Y-17166817D01*
X8105019Y-17166817D02*
X8124066Y-17176340D01*
X8124066Y-17176340D02*
X8133590Y-17185864D01*
X8133590Y-17185864D02*
X8143114Y-17204912D01*
X8143114Y-17204912D02*
X8143114Y-17262055D01*
X8143114Y-17262055D02*
X8133590Y-17281102D01*
X8133590Y-17281102D02*
X8124066Y-17290626D01*
X8124066Y-17290626D02*
X8105019Y-17300150D01*
X8105019Y-17300150D02*
X8076447Y-17300150D01*
X8257399Y-17300150D02*
X8238352Y-17290626D01*
X8238352Y-17290626D02*
X8228828Y-17271579D01*
X8228828Y-17271579D02*
X8228828Y-17100150D01*
X8409781Y-17290626D02*
X8390733Y-17300150D01*
X8390733Y-17300150D02*
X8352638Y-17300150D01*
X8352638Y-17300150D02*
X8333590Y-17290626D01*
X8333590Y-17290626D02*
X8324066Y-17271579D01*
X8324066Y-17271579D02*
X8324066Y-17195388D01*
X8324066Y-17195388D02*
X8333590Y-17176340D01*
X8333590Y-17176340D02*
X8352638Y-17166817D01*
X8352638Y-17166817D02*
X8390733Y-17166817D01*
X8390733Y-17166817D02*
X8409781Y-17176340D01*
X8409781Y-17176340D02*
X8419304Y-17195388D01*
X8419304Y-17195388D02*
X8419304Y-17214436D01*
X8419304Y-17214436D02*
X8324066Y-17233483D01*
X8485971Y-17376340D02*
X8495495Y-17366817D01*
X8495495Y-17366817D02*
X8514542Y-17338245D01*
X8514542Y-17338245D02*
X8524066Y-17319198D01*
X8524066Y-17319198D02*
X8533590Y-17290626D01*
X8533590Y-17290626D02*
X8543114Y-17243007D01*
X8543114Y-17243007D02*
X8543114Y-17204912D01*
X8543114Y-17204912D02*
X8533590Y-17157293D01*
X8533590Y-17157293D02*
X8524066Y-17128721D01*
X8524066Y-17128721D02*
X8514542Y-17109674D01*
X8514542Y-17109674D02*
X8495495Y-17081102D01*
X8495495Y-17081102D02*
X8485971Y-17071579D01*
X3672813Y-17428666D02*
X3872813Y-17628666D01*
X3872813Y-17428666D02*
X3672813Y-17628666D01*
X3772813Y-17428666D02*
X3772813Y-17628666D01*
X3672813Y-17528666D02*
X3872813Y-17528666D01*
X4114542Y-17420150D02*
X4238352Y-17420150D01*
X4238352Y-17420150D02*
X4171685Y-17496340D01*
X4171685Y-17496340D02*
X4200256Y-17496340D01*
X4200256Y-17496340D02*
X4219304Y-17505864D01*
X4219304Y-17505864D02*
X4228828Y-17515388D01*
X4228828Y-17515388D02*
X4238352Y-17534436D01*
X4238352Y-17534436D02*
X4238352Y-17582055D01*
X4238352Y-17582055D02*
X4228828Y-17601102D01*
X4228828Y-17601102D02*
X4219304Y-17610626D01*
X4219304Y-17610626D02*
X4200256Y-17620150D01*
X4200256Y-17620150D02*
X4143113Y-17620150D01*
X4143113Y-17620150D02*
X4124066Y-17610626D01*
X4124066Y-17610626D02*
X4114542Y-17601102D01*
X4324066Y-17601102D02*
X4333590Y-17610626D01*
X4333590Y-17610626D02*
X4324066Y-17620150D01*
X4324066Y-17620150D02*
X4314542Y-17610626D01*
X4314542Y-17610626D02*
X4324066Y-17601102D01*
X4324066Y-17601102D02*
X4324066Y-17620150D01*
X4409780Y-17439198D02*
X4419304Y-17429674D01*
X4419304Y-17429674D02*
X4438352Y-17420150D01*
X4438352Y-17420150D02*
X4485971Y-17420150D01*
X4485971Y-17420150D02*
X4505018Y-17429674D01*
X4505018Y-17429674D02*
X4514542Y-17439198D01*
X4514542Y-17439198D02*
X4524066Y-17458245D01*
X4524066Y-17458245D02*
X4524066Y-17477293D01*
X4524066Y-17477293D02*
X4514542Y-17505864D01*
X4514542Y-17505864D02*
X4400256Y-17620150D01*
X4400256Y-17620150D02*
X4524066Y-17620150D01*
X4647875Y-17420150D02*
X4666923Y-17420150D01*
X4666923Y-17420150D02*
X4685971Y-17429674D01*
X4685971Y-17429674D02*
X4695494Y-17439198D01*
X4695494Y-17439198D02*
X4705018Y-17458245D01*
X4705018Y-17458245D02*
X4714542Y-17496340D01*
X4714542Y-17496340D02*
X4714542Y-17543960D01*
X4714542Y-17543960D02*
X4705018Y-17582055D01*
X4705018Y-17582055D02*
X4695494Y-17601102D01*
X4695494Y-17601102D02*
X4685971Y-17610626D01*
X4685971Y-17610626D02*
X4666923Y-17620150D01*
X4666923Y-17620150D02*
X4647875Y-17620150D01*
X4647875Y-17620150D02*
X4628828Y-17610626D01*
X4628828Y-17610626D02*
X4619304Y-17601102D01*
X4619304Y-17601102D02*
X4609780Y-17582055D01*
X4609780Y-17582055D02*
X4600256Y-17543960D01*
X4600256Y-17543960D02*
X4600256Y-17496340D01*
X4600256Y-17496340D02*
X4609780Y-17458245D01*
X4609780Y-17458245D02*
X4619304Y-17439198D01*
X4619304Y-17439198D02*
X4628828Y-17429674D01*
X4628828Y-17429674D02*
X4647875Y-17420150D01*
X4838352Y-17420150D02*
X4857399Y-17420150D01*
X4857399Y-17420150D02*
X4876447Y-17429674D01*
X4876447Y-17429674D02*
X4885971Y-17439198D01*
X4885971Y-17439198D02*
X4895494Y-17458245D01*
X4895494Y-17458245D02*
X4905018Y-17496340D01*
X4905018Y-17496340D02*
X4905018Y-17543960D01*
X4905018Y-17543960D02*
X4895494Y-17582055D01*
X4895494Y-17582055D02*
X4885971Y-17601102D01*
X4885971Y-17601102D02*
X4876447Y-17610626D01*
X4876447Y-17610626D02*
X4857399Y-17620150D01*
X4857399Y-17620150D02*
X4838352Y-17620150D01*
X4838352Y-17620150D02*
X4819304Y-17610626D01*
X4819304Y-17610626D02*
X4809780Y-17601102D01*
X4809780Y-17601102D02*
X4800256Y-17582055D01*
X4800256Y-17582055D02*
X4790733Y-17543960D01*
X4790733Y-17543960D02*
X4790733Y-17496340D01*
X4790733Y-17496340D02*
X4800256Y-17458245D01*
X4800256Y-17458245D02*
X4809780Y-17439198D01*
X4809780Y-17439198D02*
X4819304Y-17429674D01*
X4819304Y-17429674D02*
X4838352Y-17420150D01*
X4990733Y-17620150D02*
X4990733Y-17486817D01*
X4990733Y-17505864D02*
X5000256Y-17496340D01*
X5000256Y-17496340D02*
X5019304Y-17486817D01*
X5019304Y-17486817D02*
X5047875Y-17486817D01*
X5047875Y-17486817D02*
X5066923Y-17496340D01*
X5066923Y-17496340D02*
X5076447Y-17515388D01*
X5076447Y-17515388D02*
X5076447Y-17620150D01*
X5076447Y-17515388D02*
X5085971Y-17496340D01*
X5085971Y-17496340D02*
X5105018Y-17486817D01*
X5105018Y-17486817D02*
X5133590Y-17486817D01*
X5133590Y-17486817D02*
X5152637Y-17496340D01*
X5152637Y-17496340D02*
X5162161Y-17515388D01*
X5162161Y-17515388D02*
X5162161Y-17620150D01*
X5257399Y-17620150D02*
X5257399Y-17486817D01*
X5257399Y-17505864D02*
X5266923Y-17496340D01*
X5266923Y-17496340D02*
X5285971Y-17486817D01*
X5285971Y-17486817D02*
X5314542Y-17486817D01*
X5314542Y-17486817D02*
X5333590Y-17496340D01*
X5333590Y-17496340D02*
X5343114Y-17515388D01*
X5343114Y-17515388D02*
X5343114Y-17620150D01*
X5343114Y-17515388D02*
X5352637Y-17496340D01*
X5352637Y-17496340D02*
X5371685Y-17486817D01*
X5371685Y-17486817D02*
X5400256Y-17486817D01*
X5400256Y-17486817D02*
X5419304Y-17496340D01*
X5419304Y-17496340D02*
X5428828Y-17515388D01*
X5428828Y-17515388D02*
X5428828Y-17620150D01*
X5819304Y-17410626D02*
X5647875Y-17667769D01*
X6076447Y-17420150D02*
X6095495Y-17420150D01*
X6095495Y-17420150D02*
X6114542Y-17429674D01*
X6114542Y-17429674D02*
X6124066Y-17439198D01*
X6124066Y-17439198D02*
X6133590Y-17458245D01*
X6133590Y-17458245D02*
X6143114Y-17496340D01*
X6143114Y-17496340D02*
X6143114Y-17543960D01*
X6143114Y-17543960D02*
X6133590Y-17582055D01*
X6133590Y-17582055D02*
X6124066Y-17601102D01*
X6124066Y-17601102D02*
X6114542Y-17610626D01*
X6114542Y-17610626D02*
X6095495Y-17620150D01*
X6095495Y-17620150D02*
X6076447Y-17620150D01*
X6076447Y-17620150D02*
X6057399Y-17610626D01*
X6057399Y-17610626D02*
X6047875Y-17601102D01*
X6047875Y-17601102D02*
X6038352Y-17582055D01*
X6038352Y-17582055D02*
X6028828Y-17543960D01*
X6028828Y-17543960D02*
X6028828Y-17496340D01*
X6028828Y-17496340D02*
X6038352Y-17458245D01*
X6038352Y-17458245D02*
X6047875Y-17439198D01*
X6047875Y-17439198D02*
X6057399Y-17429674D01*
X6057399Y-17429674D02*
X6076447Y-17420150D01*
X6228828Y-17601102D02*
X6238352Y-17610626D01*
X6238352Y-17610626D02*
X6228828Y-17620150D01*
X6228828Y-17620150D02*
X6219304Y-17610626D01*
X6219304Y-17610626D02*
X6228828Y-17601102D01*
X6228828Y-17601102D02*
X6228828Y-17620150D01*
X6428828Y-17620150D02*
X6314542Y-17620150D01*
X6371685Y-17620150D02*
X6371685Y-17420150D01*
X6371685Y-17420150D02*
X6352637Y-17448721D01*
X6352637Y-17448721D02*
X6333590Y-17467769D01*
X6333590Y-17467769D02*
X6314542Y-17477293D01*
X6505018Y-17439198D02*
X6514542Y-17429674D01*
X6514542Y-17429674D02*
X6533590Y-17420150D01*
X6533590Y-17420150D02*
X6581209Y-17420150D01*
X6581209Y-17420150D02*
X6600256Y-17429674D01*
X6600256Y-17429674D02*
X6609780Y-17439198D01*
X6609780Y-17439198D02*
X6619304Y-17458245D01*
X6619304Y-17458245D02*
X6619304Y-17477293D01*
X6619304Y-17477293D02*
X6609780Y-17505864D01*
X6609780Y-17505864D02*
X6495495Y-17620150D01*
X6495495Y-17620150D02*
X6619304Y-17620150D01*
X6790733Y-17420150D02*
X6752637Y-17420150D01*
X6752637Y-17420150D02*
X6733590Y-17429674D01*
X6733590Y-17429674D02*
X6724066Y-17439198D01*
X6724066Y-17439198D02*
X6705018Y-17467769D01*
X6705018Y-17467769D02*
X6695495Y-17505864D01*
X6695495Y-17505864D02*
X6695495Y-17582055D01*
X6695495Y-17582055D02*
X6705018Y-17601102D01*
X6705018Y-17601102D02*
X6714542Y-17610626D01*
X6714542Y-17610626D02*
X6733590Y-17620150D01*
X6733590Y-17620150D02*
X6771685Y-17620150D01*
X6771685Y-17620150D02*
X6790733Y-17610626D01*
X6790733Y-17610626D02*
X6800256Y-17601102D01*
X6800256Y-17601102D02*
X6809780Y-17582055D01*
X6809780Y-17582055D02*
X6809780Y-17534436D01*
X6809780Y-17534436D02*
X6800256Y-17515388D01*
X6800256Y-17515388D02*
X6790733Y-17505864D01*
X6790733Y-17505864D02*
X6771685Y-17496340D01*
X6771685Y-17496340D02*
X6733590Y-17496340D01*
X6733590Y-17496340D02*
X6714542Y-17505864D01*
X6714542Y-17505864D02*
X6705018Y-17515388D01*
X6705018Y-17515388D02*
X6695495Y-17534436D01*
X6933590Y-17420150D02*
X6952637Y-17420150D01*
X6952637Y-17420150D02*
X6971685Y-17429674D01*
X6971685Y-17429674D02*
X6981209Y-17439198D01*
X6981209Y-17439198D02*
X6990733Y-17458245D01*
X6990733Y-17458245D02*
X7000256Y-17496340D01*
X7000256Y-17496340D02*
X7000256Y-17543960D01*
X7000256Y-17543960D02*
X6990733Y-17582055D01*
X6990733Y-17582055D02*
X6981209Y-17601102D01*
X6981209Y-17601102D02*
X6971685Y-17610626D01*
X6971685Y-17610626D02*
X6952637Y-17620150D01*
X6952637Y-17620150D02*
X6933590Y-17620150D01*
X6933590Y-17620150D02*
X6914542Y-17610626D01*
X6914542Y-17610626D02*
X6905018Y-17601102D01*
X6905018Y-17601102D02*
X6895495Y-17582055D01*
X6895495Y-17582055D02*
X6885971Y-17543960D01*
X6885971Y-17543960D02*
X6885971Y-17496340D01*
X6885971Y-17496340D02*
X6895495Y-17458245D01*
X6895495Y-17458245D02*
X6905018Y-17439198D01*
X6905018Y-17439198D02*
X6914542Y-17429674D01*
X6914542Y-17429674D02*
X6933590Y-17420150D01*
X7076447Y-17420150D02*
X7076447Y-17458245D01*
X7152637Y-17420150D02*
X7152637Y-17458245D01*
X7447876Y-17696340D02*
X7438352Y-17686817D01*
X7438352Y-17686817D02*
X7419304Y-17658245D01*
X7419304Y-17658245D02*
X7409780Y-17639198D01*
X7409780Y-17639198D02*
X7400257Y-17610626D01*
X7400257Y-17610626D02*
X7390733Y-17563007D01*
X7390733Y-17563007D02*
X7390733Y-17524912D01*
X7390733Y-17524912D02*
X7400257Y-17477293D01*
X7400257Y-17477293D02*
X7409780Y-17448721D01*
X7409780Y-17448721D02*
X7419304Y-17429674D01*
X7419304Y-17429674D02*
X7438352Y-17401102D01*
X7438352Y-17401102D02*
X7447876Y-17391579D01*
X7609780Y-17486817D02*
X7609780Y-17620150D01*
X7562161Y-17410626D02*
X7514542Y-17553483D01*
X7514542Y-17553483D02*
X7638352Y-17553483D01*
X7866923Y-17620150D02*
X7866923Y-17420150D01*
X7952638Y-17620150D02*
X7952638Y-17515388D01*
X7952638Y-17515388D02*
X7943114Y-17496340D01*
X7943114Y-17496340D02*
X7924066Y-17486817D01*
X7924066Y-17486817D02*
X7895495Y-17486817D01*
X7895495Y-17486817D02*
X7876447Y-17496340D01*
X7876447Y-17496340D02*
X7866923Y-17505864D01*
X8076447Y-17620150D02*
X8057399Y-17610626D01*
X8057399Y-17610626D02*
X8047876Y-17601102D01*
X8047876Y-17601102D02*
X8038352Y-17582055D01*
X8038352Y-17582055D02*
X8038352Y-17524912D01*
X8038352Y-17524912D02*
X8047876Y-17505864D01*
X8047876Y-17505864D02*
X8057399Y-17496340D01*
X8057399Y-17496340D02*
X8076447Y-17486817D01*
X8076447Y-17486817D02*
X8105019Y-17486817D01*
X8105019Y-17486817D02*
X8124066Y-17496340D01*
X8124066Y-17496340D02*
X8133590Y-17505864D01*
X8133590Y-17505864D02*
X8143114Y-17524912D01*
X8143114Y-17524912D02*
X8143114Y-17582055D01*
X8143114Y-17582055D02*
X8133590Y-17601102D01*
X8133590Y-17601102D02*
X8124066Y-17610626D01*
X8124066Y-17610626D02*
X8105019Y-17620150D01*
X8105019Y-17620150D02*
X8076447Y-17620150D01*
X8257399Y-17620150D02*
X8238352Y-17610626D01*
X8238352Y-17610626D02*
X8228828Y-17591579D01*
X8228828Y-17591579D02*
X8228828Y-17420150D01*
X8409781Y-17610626D02*
X8390733Y-17620150D01*
X8390733Y-17620150D02*
X8352638Y-17620150D01*
X8352638Y-17620150D02*
X8333590Y-17610626D01*
X8333590Y-17610626D02*
X8324066Y-17591579D01*
X8324066Y-17591579D02*
X8324066Y-17515388D01*
X8324066Y-17515388D02*
X8333590Y-17496340D01*
X8333590Y-17496340D02*
X8352638Y-17486817D01*
X8352638Y-17486817D02*
X8390733Y-17486817D01*
X8390733Y-17486817D02*
X8409781Y-17496340D01*
X8409781Y-17496340D02*
X8419304Y-17515388D01*
X8419304Y-17515388D02*
X8419304Y-17534436D01*
X8419304Y-17534436D02*
X8324066Y-17553483D01*
X8495495Y-17610626D02*
X8514542Y-17620150D01*
X8514542Y-17620150D02*
X8552638Y-17620150D01*
X8552638Y-17620150D02*
X8571685Y-17610626D01*
X8571685Y-17610626D02*
X8581209Y-17591579D01*
X8581209Y-17591579D02*
X8581209Y-17582055D01*
X8581209Y-17582055D02*
X8571685Y-17563007D01*
X8571685Y-17563007D02*
X8552638Y-17553483D01*
X8552638Y-17553483D02*
X8524066Y-17553483D01*
X8524066Y-17553483D02*
X8505019Y-17543960D01*
X8505019Y-17543960D02*
X8495495Y-17524912D01*
X8495495Y-17524912D02*
X8495495Y-17515388D01*
X8495495Y-17515388D02*
X8505019Y-17496340D01*
X8505019Y-17496340D02*
X8524066Y-17486817D01*
X8524066Y-17486817D02*
X8552638Y-17486817D01*
X8552638Y-17486817D02*
X8571685Y-17496340D01*
X8647876Y-17696340D02*
X8657400Y-17686817D01*
X8657400Y-17686817D02*
X8676447Y-17658245D01*
X8676447Y-17658245D02*
X8685971Y-17639198D01*
X8685971Y-17639198D02*
X8695495Y-17610626D01*
X8695495Y-17610626D02*
X8705019Y-17563007D01*
X8705019Y-17563007D02*
X8705019Y-17524912D01*
X8705019Y-17524912D02*
X8695495Y-17477293D01*
X8695495Y-17477293D02*
X8685971Y-17448721D01*
X8685971Y-17448721D02*
X8676447Y-17429674D01*
X8676447Y-17429674D02*
X8657400Y-17401102D01*
X8657400Y-17401102D02*
X8647876Y-17391579D01*
M02*
