%TF.GenerationSoftware,KiCad,Pcbnew,8.0.1*%
%TF.CreationDate,2024-06-13T14:26:34-04:00*%
%TF.ProjectId,Payload Board,5061796c-6f61-4642-9042-6f6172642e6b,rev?*%
%TF.SameCoordinates,Original*%
%TF.FileFunction,Soldermask,Top*%
%TF.FilePolarity,Negative*%
%FSLAX46Y46*%
G04 Gerber Fmt 4.6, Leading zero omitted, Abs format (unit mm)*
G04 Created by KiCad (PCBNEW 8.0.1) date 2024-06-13 14:26:34*
%MOMM*%
%LPD*%
G01*
G04 APERTURE LIST*
G04 Aperture macros list*
%AMRoundRect*
0 Rectangle with rounded corners*
0 $1 Rounding radius*
0 $2 $3 $4 $5 $6 $7 $8 $9 X,Y pos of 4 corners*
0 Add a 4 corners polygon primitive as box body*
4,1,4,$2,$3,$4,$5,$6,$7,$8,$9,$2,$3,0*
0 Add four circle primitives for the rounded corners*
1,1,$1+$1,$2,$3*
1,1,$1+$1,$4,$5*
1,1,$1+$1,$6,$7*
1,1,$1+$1,$8,$9*
0 Add four rect primitives between the rounded corners*
20,1,$1+$1,$2,$3,$4,$5,0*
20,1,$1+$1,$4,$5,$6,$7,0*
20,1,$1+$1,$6,$7,$8,$9,0*
20,1,$1+$1,$8,$9,$2,$3,0*%
G04 Aperture macros list end*
%ADD10R,0.650000X0.400000*%
%ADD11RoundRect,0.100000X-0.637500X-0.100000X0.637500X-0.100000X0.637500X0.100000X-0.637500X0.100000X0*%
%ADD12RoundRect,0.150000X-0.825000X-0.150000X0.825000X-0.150000X0.825000X0.150000X-0.825000X0.150000X0*%
%ADD13C,6.650000*%
%ADD14R,1.700000X1.700000*%
%ADD15O,1.700000X1.700000*%
%ADD16C,6.300000*%
%ADD17C,1.700000*%
%ADD18RoundRect,0.200000X-0.200000X-0.275000X0.200000X-0.275000X0.200000X0.275000X-0.200000X0.275000X0*%
%ADD19RoundRect,0.225000X-0.250000X0.225000X-0.250000X-0.225000X0.250000X-0.225000X0.250000X0.225000X0*%
%ADD20RoundRect,0.225000X-0.225000X-0.250000X0.225000X-0.250000X0.225000X0.250000X-0.225000X0.250000X0*%
%ADD21RoundRect,0.225000X0.225000X0.250000X-0.225000X0.250000X-0.225000X-0.250000X0.225000X-0.250000X0*%
%ADD22RoundRect,0.200000X-0.275000X0.200000X-0.275000X-0.200000X0.275000X-0.200000X0.275000X0.200000X0*%
%ADD23RoundRect,0.200000X0.275000X-0.200000X0.275000X0.200000X-0.275000X0.200000X-0.275000X-0.200000X0*%
%ADD24C,5.000000*%
%ADD25C,6.400000*%
%ADD26R,1.800000X1.800000*%
%ADD27C,1.800000*%
%ADD28RoundRect,0.250000X0.475000X-0.250000X0.475000X0.250000X-0.475000X0.250000X-0.475000X-0.250000X0*%
%ADD29RoundRect,0.200000X0.200000X0.275000X-0.200000X0.275000X-0.200000X-0.275000X0.200000X-0.275000X0*%
%ADD30R,0.700000X0.510000*%
%ADD31RoundRect,0.225000X0.250000X-0.225000X0.250000X0.225000X-0.250000X0.225000X-0.250000X-0.225000X0*%
%ADD32C,3.000000*%
%ADD33RoundRect,0.150000X-0.512500X-0.150000X0.512500X-0.150000X0.512500X0.150000X-0.512500X0.150000X0*%
G04 APERTURE END LIST*
D10*
%TO.C,U2*%
X128190000Y-75290000D03*
X128190000Y-75940000D03*
X128190000Y-76590000D03*
X130090000Y-76590000D03*
X130090000Y-75290000D03*
%TD*%
%TO.C,U3*%
X127830000Y-86960000D03*
X127830000Y-87610000D03*
X127830000Y-88260000D03*
X129730000Y-88260000D03*
X129730000Y-86960000D03*
%TD*%
D11*
%TO.C,U6*%
X62877500Y-89245000D03*
X62877500Y-89895000D03*
X62877500Y-90545000D03*
X62877500Y-91195000D03*
X68602500Y-91195000D03*
X68602500Y-90545000D03*
X68602500Y-89895000D03*
X68602500Y-89245000D03*
%TD*%
D12*
%TO.C,U8*%
X62285000Y-75450000D03*
X62285000Y-76720000D03*
X62285000Y-77990000D03*
X62285000Y-79260000D03*
X62285000Y-80530000D03*
X62285000Y-81800000D03*
X62285000Y-83070000D03*
X67235000Y-83070000D03*
X67235000Y-81800000D03*
X67235000Y-80530000D03*
X67235000Y-79260000D03*
X67235000Y-77990000D03*
X67235000Y-76720000D03*
X67235000Y-75450000D03*
%TD*%
D13*
%TO.C,U1*%
X125500000Y-110950000D03*
X67500000Y-110950000D03*
X125500000Y-133950000D03*
X67500000Y-133950000D03*
D14*
X120630000Y-112220000D03*
D15*
X120630000Y-109680000D03*
X118090000Y-112220000D03*
X118090000Y-109680000D03*
X115550000Y-112220000D03*
X115550000Y-109680000D03*
X113010000Y-112220000D03*
X113010000Y-109680000D03*
X110470000Y-112220000D03*
X110470000Y-109680000D03*
X107930000Y-112220000D03*
X107930000Y-109680000D03*
X105390000Y-112220000D03*
X105390000Y-109680000D03*
X102850000Y-112220000D03*
X102850000Y-109680000D03*
X100310000Y-112220000D03*
X100310000Y-109680000D03*
X97770000Y-112220000D03*
X97770000Y-109680000D03*
X95230000Y-112220000D03*
X95230000Y-109680000D03*
X92690000Y-112220000D03*
X92690000Y-109680000D03*
X90150000Y-112220000D03*
X90150000Y-109680000D03*
X87610000Y-112220000D03*
X87610000Y-109680000D03*
X85070000Y-112220000D03*
X85070000Y-109680000D03*
X82530000Y-112220000D03*
X82530000Y-109680000D03*
X79990000Y-112220000D03*
X79990000Y-109680000D03*
X77450000Y-112220000D03*
X77450000Y-109680000D03*
X74910000Y-112220000D03*
X74910000Y-109680000D03*
X72370000Y-112220000D03*
X72370000Y-109680000D03*
%TD*%
D16*
%TO.C,U7*%
X110233128Y-117086662D03*
X110233128Y-89586662D03*
D17*
X103333128Y-89586662D03*
X100793128Y-89586662D03*
X98253128Y-89586662D03*
X95713128Y-89586662D03*
X93173128Y-89586662D03*
D16*
X82733128Y-117086662D03*
X82733128Y-89586662D03*
D17*
X93211462Y-87069142D03*
X95751462Y-87069142D03*
X98291462Y-87069142D03*
X100831462Y-87069142D03*
X103371462Y-87069142D03*
%TD*%
D18*
%TO.C,R6*%
X53795000Y-78040000D03*
X55445000Y-78040000D03*
%TD*%
D19*
%TO.C,C1*%
X132633128Y-75286662D03*
X132633128Y-76836662D03*
%TD*%
%TO.C,C2*%
X132158128Y-86811662D03*
X132158128Y-88361662D03*
%TD*%
%TO.C,C3*%
X132358128Y-99611662D03*
X132358128Y-101161662D03*
%TD*%
D20*
%TO.C,C5*%
X70405000Y-88980000D03*
X71955000Y-88980000D03*
%TD*%
D21*
%TO.C,C7*%
X72060000Y-75350000D03*
X70510000Y-75350000D03*
%TD*%
D20*
%TO.C,C8*%
X72295000Y-77850000D03*
X73845000Y-77850000D03*
%TD*%
D22*
%TO.C,R1*%
X72440000Y-101355000D03*
X72440000Y-103005000D03*
%TD*%
D23*
%TO.C,R2*%
X75090000Y-102985000D03*
X75090000Y-101335000D03*
%TD*%
%TO.C,R3*%
X77210000Y-102265000D03*
X77210000Y-100615000D03*
%TD*%
D22*
%TO.C,R4*%
X76693334Y-74597480D03*
X76693334Y-76247480D03*
%TD*%
D18*
%TO.C,R7*%
X53775000Y-79640000D03*
X55425000Y-79640000D03*
%TD*%
%TO.C,R8*%
X69205000Y-77860000D03*
X70855000Y-77860000D03*
%TD*%
D14*
%TO.C,J1*%
X136580000Y-111370000D03*
D15*
X136580000Y-113910000D03*
X136580000Y-116450000D03*
X136580000Y-118990000D03*
X136580000Y-121530000D03*
X136580000Y-124070000D03*
X136580000Y-126610000D03*
X136580000Y-129150000D03*
%TD*%
D14*
%TO.C,H1*%
X65448128Y-68081662D03*
D15*
X65448128Y-65541662D03*
X67988128Y-68081662D03*
X67988128Y-65531662D03*
X70528128Y-68081662D03*
X70528128Y-65531662D03*
X73068128Y-68081662D03*
X73068128Y-65531662D03*
X75608128Y-68081662D03*
X75608128Y-65531662D03*
X78148128Y-68081662D03*
X78148128Y-65531662D03*
X80688128Y-68081662D03*
X80688128Y-65531662D03*
X83228128Y-68081662D03*
X83228128Y-65531662D03*
X85768128Y-68081662D03*
X85768128Y-65531662D03*
X88308128Y-68081662D03*
X88308128Y-65531662D03*
X90848128Y-68081662D03*
X90848128Y-65531662D03*
X93388128Y-68081662D03*
X93388128Y-65531662D03*
X95928128Y-68081662D03*
X95928128Y-65531662D03*
X98468128Y-68081662D03*
X98468128Y-65531662D03*
X101008128Y-68081662D03*
X101008128Y-65531662D03*
X103548128Y-68081662D03*
X103548128Y-65531662D03*
X106088128Y-68081662D03*
X106088128Y-65531662D03*
X108628128Y-68081662D03*
X108628128Y-65531662D03*
X111168128Y-68081662D03*
X111168128Y-65531662D03*
X113708128Y-68081662D03*
X113708128Y-65531662D03*
X116248128Y-68081662D03*
X116248128Y-65531662D03*
X118788128Y-68081662D03*
X118788128Y-65531662D03*
X121328128Y-68081662D03*
X121328128Y-65531662D03*
X123868128Y-68081662D03*
X123868128Y-65531662D03*
X126408128Y-68081662D03*
X126408128Y-65531662D03*
X128948128Y-68081662D03*
X128948128Y-65531662D03*
%TD*%
D14*
%TO.C,H2*%
X65448128Y-63001662D03*
D15*
X65448128Y-60461662D03*
X67988128Y-63001662D03*
X67988128Y-60451662D03*
X70528128Y-63001662D03*
X70528128Y-60451662D03*
X73068128Y-63001662D03*
X73068128Y-60451662D03*
X75608128Y-63001662D03*
X75608128Y-60451662D03*
X78148128Y-63001662D03*
X78148128Y-60451662D03*
X80688128Y-63001662D03*
X80688128Y-60451662D03*
X83228128Y-63001662D03*
X83228128Y-60451662D03*
X85768128Y-63001662D03*
X85768128Y-60451662D03*
X88308128Y-63001662D03*
X88308128Y-60451662D03*
X90848128Y-63001662D03*
X90848128Y-60451662D03*
X93388128Y-63001662D03*
X93388128Y-60451662D03*
X95928128Y-63001662D03*
X95928128Y-60451662D03*
X98468128Y-63001662D03*
X98468128Y-60451662D03*
X101008128Y-63001662D03*
X101008128Y-60451662D03*
X103548128Y-63001662D03*
X103548128Y-60451662D03*
X106088128Y-63001662D03*
X106088128Y-60451662D03*
X108628128Y-63001662D03*
X108628128Y-60451662D03*
X111168128Y-63001662D03*
X111168128Y-60451662D03*
X113708128Y-63001662D03*
X113708128Y-60451662D03*
X116248128Y-63001662D03*
X116248128Y-60451662D03*
X118788128Y-63001662D03*
X118788128Y-60451662D03*
X121328128Y-63001662D03*
X121328128Y-60451662D03*
X123868128Y-63001662D03*
X123868128Y-60451662D03*
X126408128Y-63001662D03*
X126408128Y-60451662D03*
X128948128Y-63001662D03*
X128948128Y-60451662D03*
%TD*%
D24*
%TO.C,M4*%
X134028128Y-60461662D03*
%TD*%
D25*
%TO.C,M3*%
X60368128Y-60461662D03*
%TD*%
D26*
%TO.C,D3*%
X54673334Y-128972480D03*
D27*
X57213334Y-128972480D03*
%TD*%
D12*
%TO.C,U5*%
X90928128Y-74236662D03*
X90928128Y-75506662D03*
X90928128Y-76776662D03*
X90928128Y-78046662D03*
X90928128Y-79316662D03*
X90928128Y-80586662D03*
X90928128Y-81856662D03*
X90928128Y-83126662D03*
X95878128Y-83126662D03*
X95878128Y-81856662D03*
X95878128Y-80586662D03*
X95878128Y-79316662D03*
X95878128Y-78046662D03*
X95878128Y-76776662D03*
X95878128Y-75506662D03*
X95878128Y-74236662D03*
%TD*%
D28*
%TO.C,C4*%
X59633128Y-66861662D03*
X59633128Y-64961662D03*
%TD*%
D25*
%TO.C,M1*%
X56558128Y-146186662D03*
%TD*%
D29*
%TO.C,R13*%
X68153334Y-101172480D03*
X66503334Y-101172480D03*
%TD*%
D18*
%TO.C,R19*%
X124078128Y-84481662D03*
X125728128Y-84481662D03*
%TD*%
D23*
%TO.C,R17*%
X59738334Y-110557480D03*
X59738334Y-108907480D03*
%TD*%
D10*
%TO.C,U4*%
X127968334Y-99712480D03*
X127968334Y-100362480D03*
X127968334Y-101012480D03*
X129868334Y-101012480D03*
X129868334Y-99712480D03*
%TD*%
D30*
%TO.C,IC1*%
X57308334Y-68802480D03*
X57308334Y-69752480D03*
X57308334Y-70702480D03*
X59628334Y-70702480D03*
X59628334Y-68802480D03*
%TD*%
D22*
%TO.C,R16*%
X57988334Y-108947480D03*
X57988334Y-110597480D03*
%TD*%
D21*
%TO.C,C11*%
X80923334Y-102162480D03*
X79373334Y-102162480D03*
%TD*%
D31*
%TO.C,C12*%
X98858128Y-75761662D03*
X98858128Y-74211662D03*
%TD*%
D29*
%TO.C,R9*%
X60938334Y-117352480D03*
X59288334Y-117352480D03*
%TD*%
D32*
%TO.C,FID2*%
X65318334Y-142952480D03*
%TD*%
%TO.C,FID1*%
X133898334Y-69292480D03*
%TD*%
D26*
%TO.C,D1*%
X54773334Y-117322480D03*
D27*
X57313334Y-117322480D03*
%TD*%
D33*
%TO.C,U10*%
X84930834Y-96672480D03*
X84930834Y-97622480D03*
X84930834Y-98572480D03*
X87205834Y-98572480D03*
X87205834Y-97622480D03*
X87205834Y-96672480D03*
%TD*%
D29*
%TO.C,R11*%
X60813334Y-128962480D03*
X59163334Y-128962480D03*
%TD*%
D18*
%TO.C,R5*%
X123778128Y-96281662D03*
X125428128Y-96281662D03*
%TD*%
D32*
%TO.C,FID3*%
X136438334Y-137872480D03*
%TD*%
D29*
%TO.C,R12*%
X60753334Y-134442480D03*
X59103334Y-134442480D03*
%TD*%
D22*
%TO.C,R15*%
X56388334Y-108947480D03*
X56388334Y-110597480D03*
%TD*%
D28*
%TO.C,C6*%
X57308128Y-66861662D03*
X57308128Y-64961662D03*
%TD*%
D25*
%TO.C,M2*%
X136603128Y-146126662D03*
%TD*%
D29*
%TO.C,R10*%
X60953334Y-123022480D03*
X59303334Y-123022480D03*
%TD*%
%TO.C,R14*%
X68133334Y-99232480D03*
X66483334Y-99232480D03*
%TD*%
D12*
%TO.C,U9*%
X58533334Y-97182480D03*
X58533334Y-98452480D03*
X58533334Y-99722480D03*
X58533334Y-100992480D03*
X58533334Y-102262480D03*
X58533334Y-103532480D03*
X58533334Y-104802480D03*
X63483334Y-104802480D03*
X63483334Y-103532480D03*
X63483334Y-102262480D03*
X63483334Y-100992480D03*
X63483334Y-99722480D03*
X63483334Y-98452480D03*
X63483334Y-97182480D03*
%TD*%
D18*
%TO.C,R20*%
X129403128Y-72581662D03*
X131053128Y-72581662D03*
%TD*%
D23*
%TO.C,R18*%
X87958128Y-79311662D03*
X87958128Y-77661662D03*
%TD*%
D26*
%TO.C,D2*%
X54743334Y-123062480D03*
D27*
X57283334Y-123062480D03*
%TD*%
D20*
%TO.C,C10*%
X66553334Y-97162480D03*
X68103334Y-97162480D03*
%TD*%
D26*
%TO.C,D4*%
X54593334Y-134412480D03*
D27*
X57133334Y-134412480D03*
%TD*%
D18*
%TO.C,R21*%
X85378128Y-74881662D03*
X87028128Y-74881662D03*
%TD*%
M02*
