%TF.GenerationSoftware,KiCad,Pcbnew,8.0.1*%
%TF.CreationDate,2024-06-14T09:09:15-04:00*%
%TF.ProjectId,Payload Board,5061796c-6f61-4642-9042-6f6172642e6b,rev?*%
%TF.SameCoordinates,Original*%
%TF.FileFunction,Drillmap*%
%TF.FilePolarity,Positive*%
%FSLAX45Y45*%
G04 Gerber Fmt 4.5, Leading zero omitted, Abs format (unit mm)*
G04 Created by KiCad (PCBNEW 8.0.1) date 2024-06-14 09:09:15*
%MOMM*%
%LPD*%
G01*
G04 APERTURE LIST*
%ADD10C,0.100000*%
%ADD11C,0.200000*%
G04 APERTURE END LIST*
D10*
X14164813Y-13824916D02*
G75*
G02*
X14482313Y-13824916I158750J0D01*
G01*
D11*
X10786313Y-14953946D02*
X10786313Y-15007286D01*
X5267193Y-15126666D02*
G75*
G02*
X5147814Y-15007286I-3J119376D01*
G01*
X10786313Y-5657546D02*
X10786313Y-5710886D01*
X5338313Y-9435796D02*
X5338313Y-11229036D01*
D10*
X4830313Y-15126666D02*
X4830313Y-14382866D01*
D11*
X8634933Y-5538166D02*
G75*
G02*
X8754314Y-5657546I-3J-119384D01*
G01*
X8873693Y-14834566D02*
X10666933Y-14834566D01*
D10*
X14164813Y-10916616D02*
X14164813Y-13208966D01*
X13707613Y-7119316D02*
G75*
G02*
X14025113Y-7119316I158750J0D01*
G01*
X14164813Y-8611566D02*
X14164813Y-10300666D01*
D11*
X8754313Y-5710886D02*
X8754313Y-5657546D01*
X8754313Y-14953946D02*
G75*
G02*
X8873693Y-14834573I119377J-4D01*
G01*
D10*
X15752297Y-15126666D02*
X14482297Y-15126666D01*
X5147813Y-13766916D02*
G75*
G02*
X4830313Y-13766916I-158750J0D01*
G01*
X4830313Y-13766916D02*
X4830313Y-9144116D01*
X5147813Y-8528166D02*
X5150732Y-6676566D01*
X14363153Y-7519366D02*
X14025113Y-7519366D01*
X14482313Y-13208966D02*
X14482313Y-10916616D01*
D11*
X10666933Y-5830266D02*
X8873693Y-5830266D01*
X5267193Y-5538166D02*
X8634933Y-5538166D01*
X8754313Y-15007286D02*
X8754313Y-14953946D01*
D10*
X14025113Y-6503366D02*
X14025859Y-5538166D01*
X4833232Y-6676566D02*
G75*
G02*
X5150732Y-6676566I158750J0D01*
G01*
D11*
X5243063Y-9318880D02*
G75*
G02*
X5147806Y-9201964I24127J116920D01*
G01*
X13826993Y-7836866D02*
G75*
G02*
X13707614Y-7717486I-3J119376D01*
G01*
D10*
X14482313Y-13208966D02*
G75*
G02*
X14164813Y-13208966I-158750J0D01*
G01*
X14164797Y-7955790D02*
X14164813Y-7995616D01*
X5150732Y-6060616D02*
G75*
G02*
X4833232Y-6060616I-158750J0D01*
G01*
X5147813Y-13766916D02*
X5147813Y-11462868D01*
D11*
X8754313Y-15007286D02*
G75*
G02*
X8634933Y-15126673I-119383J-4D01*
G01*
X5147813Y-5657546D02*
G75*
G02*
X5267193Y-5538173I119377J-4D01*
G01*
D10*
X14482313Y-7995616D02*
X14482518Y-7638290D01*
D11*
X10786313Y-5657546D02*
G75*
G02*
X10905693Y-5538173I119377J-4D01*
G01*
D10*
X14164813Y-13824916D02*
X14164797Y-15006830D01*
X5147813Y-9201964D02*
X5147813Y-9144116D01*
D11*
X5338313Y-11229036D02*
G75*
G02*
X5243064Y-11345958I-119383J-4D01*
G01*
D10*
X14482313Y-10300666D02*
X14482313Y-8611566D01*
X3877813Y-5538166D02*
X3877813Y-15126666D01*
D11*
X10786313Y-5710886D02*
G75*
G02*
X10666933Y-5830273I-119383J-4D01*
G01*
D10*
X14482313Y-7995616D02*
G75*
G02*
X14164813Y-7995616I-158750J0D01*
G01*
X14482313Y-10300666D02*
G75*
G02*
X14164813Y-10300666I-158750J0D01*
G01*
X4830313Y-9144116D02*
G75*
G02*
X5147813Y-9144116I158750J0D01*
G01*
X14025113Y-6503366D02*
G75*
G02*
X13707613Y-6503366I-158750J0D01*
G01*
X14025113Y-7519366D02*
X14025113Y-7119316D01*
X14164813Y-8611566D02*
G75*
G02*
X14482313Y-8611566I158750J0D01*
G01*
X13707613Y-7717486D02*
X13707613Y-7119316D01*
D11*
X13588233Y-5538166D02*
G75*
G02*
X13707614Y-5657546I-3J-119384D01*
G01*
X14045433Y-7836866D02*
G75*
G02*
X14164795Y-7955790I437J-118924D01*
G01*
X10905693Y-5538166D02*
X13588233Y-5538166D01*
D10*
X14482297Y-15126666D02*
X14482313Y-13824916D01*
X14482297Y-5538166D02*
X15752297Y-5538166D01*
X5150732Y-6060616D02*
X5147813Y-5657546D01*
D11*
X10666933Y-14834566D02*
G75*
G02*
X10786314Y-14953946I-3J-119384D01*
G01*
D10*
X5147813Y-14382866D02*
X5147813Y-15007286D01*
D11*
X14363153Y-7519366D02*
G75*
G02*
X14482514Y-7638290I217J-119144D01*
G01*
D10*
X4830313Y-5538166D02*
X3877813Y-5538166D01*
X15752297Y-5538166D02*
X15752297Y-15126666D01*
D11*
X14045433Y-7836866D02*
X13826993Y-7836866D01*
D10*
X5147813Y-8528166D02*
G75*
G02*
X4830313Y-8528166I-158750J0D01*
G01*
X14164813Y-10916616D02*
G75*
G02*
X14482313Y-10916616I158750J0D01*
G01*
D11*
X8634933Y-15126666D02*
X5267193Y-15126666D01*
X5243063Y-9318880D02*
G75*
G02*
X5338314Y-9435796I-24133J-116920D01*
G01*
D10*
X4833232Y-6060616D02*
X4830313Y-5538166D01*
X4830313Y-8528166D02*
X4833232Y-6676566D01*
D11*
X5147813Y-11462868D02*
G75*
G02*
X5243064Y-11345956I119377J-2D01*
G01*
X8873693Y-5830266D02*
G75*
G02*
X8754314Y-5710886I-3J119376D01*
G01*
X10905693Y-15126666D02*
G75*
G02*
X10786314Y-15007286I-3J119376D01*
G01*
X14045433Y-15126666D02*
X10905693Y-15126666D01*
D10*
X14025859Y-5538166D02*
X14482297Y-5538166D01*
X3877813Y-15126666D02*
X4830313Y-15126666D01*
D11*
X14164797Y-15006830D02*
G75*
G02*
X14045433Y-15126667I-119828J-10D01*
G01*
D10*
X4830313Y-14382866D02*
G75*
G02*
X5147813Y-14382866I158750J0D01*
G01*
X13707613Y-6503366D02*
X13707613Y-5657546D01*
D11*
X4133590Y-15448150D02*
X4133590Y-15248150D01*
X4133590Y-15248150D02*
X4181209Y-15248150D01*
X4181209Y-15248150D02*
X4209780Y-15257674D01*
X4209780Y-15257674D02*
X4228828Y-15276721D01*
X4228828Y-15276721D02*
X4238352Y-15295769D01*
X4238352Y-15295769D02*
X4247875Y-15333864D01*
X4247875Y-15333864D02*
X4247875Y-15362436D01*
X4247875Y-15362436D02*
X4238352Y-15400531D01*
X4238352Y-15400531D02*
X4228828Y-15419578D01*
X4228828Y-15419578D02*
X4209780Y-15438626D01*
X4209780Y-15438626D02*
X4181209Y-15448150D01*
X4181209Y-15448150D02*
X4133590Y-15448150D01*
X4333590Y-15448150D02*
X4333590Y-15314817D01*
X4333590Y-15352912D02*
X4343113Y-15333864D01*
X4343113Y-15333864D02*
X4352637Y-15324340D01*
X4352637Y-15324340D02*
X4371685Y-15314817D01*
X4371685Y-15314817D02*
X4390733Y-15314817D01*
X4457399Y-15448150D02*
X4457399Y-15314817D01*
X4457399Y-15248150D02*
X4447875Y-15257674D01*
X4447875Y-15257674D02*
X4457399Y-15267198D01*
X4457399Y-15267198D02*
X4466923Y-15257674D01*
X4466923Y-15257674D02*
X4457399Y-15248150D01*
X4457399Y-15248150D02*
X4457399Y-15267198D01*
X4581209Y-15448150D02*
X4562161Y-15438626D01*
X4562161Y-15438626D02*
X4552637Y-15419578D01*
X4552637Y-15419578D02*
X4552637Y-15248150D01*
X4685971Y-15448150D02*
X4666923Y-15438626D01*
X4666923Y-15438626D02*
X4657399Y-15419578D01*
X4657399Y-15419578D02*
X4657399Y-15248150D01*
X4914542Y-15448150D02*
X4914542Y-15248150D01*
X4914542Y-15248150D02*
X4981209Y-15391007D01*
X4981209Y-15391007D02*
X5047875Y-15248150D01*
X5047875Y-15248150D02*
X5047875Y-15448150D01*
X5228828Y-15448150D02*
X5228828Y-15343388D01*
X5228828Y-15343388D02*
X5219304Y-15324340D01*
X5219304Y-15324340D02*
X5200256Y-15314817D01*
X5200256Y-15314817D02*
X5162161Y-15314817D01*
X5162161Y-15314817D02*
X5143113Y-15324340D01*
X5228828Y-15438626D02*
X5209780Y-15448150D01*
X5209780Y-15448150D02*
X5162161Y-15448150D01*
X5162161Y-15448150D02*
X5143113Y-15438626D01*
X5143113Y-15438626D02*
X5133590Y-15419578D01*
X5133590Y-15419578D02*
X5133590Y-15400531D01*
X5133590Y-15400531D02*
X5143113Y-15381483D01*
X5143113Y-15381483D02*
X5162161Y-15371959D01*
X5162161Y-15371959D02*
X5209780Y-15371959D01*
X5209780Y-15371959D02*
X5228828Y-15362436D01*
X5324066Y-15314817D02*
X5324066Y-15514817D01*
X5324066Y-15324340D02*
X5343113Y-15314817D01*
X5343113Y-15314817D02*
X5381209Y-15314817D01*
X5381209Y-15314817D02*
X5400256Y-15324340D01*
X5400256Y-15324340D02*
X5409780Y-15333864D01*
X5409780Y-15333864D02*
X5419304Y-15352912D01*
X5419304Y-15352912D02*
X5419304Y-15410055D01*
X5419304Y-15410055D02*
X5409780Y-15429102D01*
X5409780Y-15429102D02*
X5400256Y-15438626D01*
X5400256Y-15438626D02*
X5381209Y-15448150D01*
X5381209Y-15448150D02*
X5343113Y-15448150D01*
X5343113Y-15448150D02*
X5324066Y-15438626D01*
X5505018Y-15429102D02*
X5514542Y-15438626D01*
X5514542Y-15438626D02*
X5505018Y-15448150D01*
X5505018Y-15448150D02*
X5495494Y-15438626D01*
X5495494Y-15438626D02*
X5505018Y-15429102D01*
X5505018Y-15429102D02*
X5505018Y-15448150D01*
X5505018Y-15324340D02*
X5514542Y-15333864D01*
X5514542Y-15333864D02*
X5505018Y-15343388D01*
X5505018Y-15343388D02*
X5495494Y-15333864D01*
X5495494Y-15333864D02*
X5505018Y-15324340D01*
X5505018Y-15324340D02*
X5505018Y-15343388D01*
M02*
