M48
; DRILL file {KiCad 8.0.1} date 2024-06-13T14:26:42-0400
; FORMAT={-:-/ absolute / inch / decimal}
; #@! TF.CreationDate,2024-06-13T14:26:42-04:00
; #@! TF.GenerationSoftware,Kicad,Pcbnew,8.0.1
; #@! TF.FileFunction,Plated,1,4,PTH
FMAT,2
INCH
; #@! TA.AperFunction,Plated,PTH,ViaDrill
T1C0.0157
; #@! TA.AperFunction,Plated,PTH,ComponentDrill
T2C0.0354
; #@! TA.AperFunction,Plated,PTH,ComponentDrill
T3C0.0394
; #@! TA.AperFunction,Plated,PTH,ComponentDrill
T4C0.0827
; #@! TA.AperFunction,Plated,PTH,ComponentDrill
T5C0.1063
; #@! TA.AperFunction,Plated,PTH,ComponentDrill
T6C0.1083
; #@! TA.AperFunction,Plated,PTH,ComponentDrill
T7C0.1260
%
G90
G05
T1
X2.0873Y-3.2942
X2.1216Y-2.3216
X2.1243Y-2.3745
X2.1474Y-3.2962
X2.1499Y-3.2013
X2.1543Y-2.4065
X2.172Y-3.717
X2.1755Y-4.0438
X2.176Y-3.6328
X2.1785Y-2.9438
X2.1785Y-2.9871
X2.2052Y-3.9046
X2.209Y-2.7446
X2.233Y-4.134
X2.233Y-4.0265
X2.2338Y-3.9749
X2.2562Y-2.4995
X2.2797Y-3.6568
X2.2885Y-4.2084
X2.2949Y-3.3824
X2.3043Y-2.8548
X2.3184Y-3.7241
X2.3465Y-3.5449
X2.352Y-3.2965
X2.3702Y-3.0386
X2.372Y-3.5984
X2.3882Y-3.5413
X2.3944Y-5.2072
X2.396Y-5.008
X2.3968Y-2.7946
X2.3995Y-4.5501
X2.3995Y-4.7721
X2.4062Y-3.7794
X2.4113Y-3.5968
X2.4157Y-2.531
X2.4279Y-4.4143
X2.4344Y-4.1938
X2.4568Y-3.6607
X2.4844Y-3.4599
X2.4869Y-2.9103
X2.4899Y-3.7647
X2.4905Y-2.594
X2.5116Y-2.813
X2.5574Y-2.2357
X2.5696Y-3.8956
X2.583Y-3.3253
X2.6641Y-2.8631
X2.7009Y-3.456
X2.722Y-2.9957
X2.7334Y-3.8485
X2.7499Y-4.0214
X2.7713Y-3.4539
X2.7726Y-3.8447
X2.7776Y-2.9114
X2.7976Y-4.0736
X2.8111Y-3.3064
X2.8475Y-2.8086
X2.852Y-3.939
X2.8839Y-2.9232
X2.885Y-3.5028
X2.8925Y-2.9665
X2.8996Y-4.0713
X2.9174Y-4.1883
X2.9277Y-2.7794
X2.9281Y-2.9195
X2.9587Y-3.913
X2.963Y-3.1713
X2.965Y-3.2209
X2.968Y-3.2733
X2.9684Y-3.4036
X3.0016Y-4.0681
X3.0062Y-2.824
X3.0243Y-3.0688
X3.0283Y-3.1292
X3.0301Y-3.9135
X3.0358Y-3.5473
X3.0395Y-3.4717
X3.0708Y-3.8498
X3.0744Y-3.5634
X3.103Y-3.7196
X3.1059Y-3.5992
X3.111Y-2.9044
X3.1216Y-4.0796
X3.122Y-3.9599
X3.1381Y-3.7019
X3.1688Y-3.7975
X3.17Y-4.1308
X3.1906Y-3.1713
X3.2088Y-3.3103
X3.2209Y-3.2201
X3.2259Y-4.069
X3.2528Y-3.261
X3.2783Y-3.8434
X3.3094Y-2.9365
X3.3505Y-3.3142
X3.3978Y-3.6213
X3.4112Y-3.4468
X3.4432Y-3.1727
X3.4883Y-3.2867
X3.4922Y-3.204
X3.5141Y-3.1412
X3.5395Y-3.5623
X3.5552Y-3.326
X3.5579Y-3.3904
X3.5592Y-3.6725
X3.634Y-3.326
X3.7206Y-3.578
X3.7393Y-3.8887
X3.7629Y-3.8498
X3.7759Y-3.6143
X3.8054Y-4.8875
X3.8466Y-3.0227
X3.8468Y-3.6092
X3.8545Y-3.1764
X3.8574Y-4.8962
X3.8921Y-3.031
X3.9332Y-3.2119
X3.9539Y-3.8989
X3.9868Y-2.9283
X4.008Y-3.326
X4.0181Y-3.6161
X4.152Y-3.7307
X4.1629Y-4.8056
X4.2906Y-3.8866
X4.3882Y-3.8213
X4.4951Y-3.5407
X4.4976Y-4.1941
X4.5394Y-3.7677
X4.5453Y-3.6069
X4.5803Y-3.578
X4.5944Y-2.8004
X4.6837Y-3.4937
X4.6918Y-2.7718
X4.6925Y-3.6075
X4.7122Y-3.0083
X4.7136Y-3.9583
X4.7407Y-2.9094
X4.823Y-3.7906
X4.8387Y-3.326
X4.8827Y-2.963
X4.8839Y-3.9264
X4.8878Y-3.439
X4.9515Y-3.2288
X5.0474Y-2.8694
X5.2543Y-3.4207
X5.2582Y-3.4798
X5.2621Y-3.9877
X5.2661Y-3.9247
X5.2759Y-3.026
X5.2769Y-2.965
T2
X2.1493Y-5.2918
X2.1525Y-5.0777
X2.1552Y-4.845
X2.1564Y-4.619
X2.2493Y-5.2918
X2.2525Y-5.0777
X2.2552Y-4.845
X2.2564Y-4.619
T3
X2.5767Y-2.3804
X2.5767Y-2.4804
X2.5767Y-2.5804
X2.5767Y-2.6804
X2.6767Y-2.38
X2.6767Y-2.4804
X2.6767Y-2.58
X2.6767Y-2.6804
X2.7767Y-2.38
X2.7767Y-2.4804
X2.7767Y-2.58
X2.7767Y-2.6804
X2.8492Y-4.3181
X2.8492Y-4.4181
X2.8767Y-2.38
X2.8767Y-2.4804
X2.8767Y-2.58
X2.8767Y-2.6804
X2.9492Y-4.3181
X2.9492Y-4.4181
X2.9767Y-2.38
X2.9767Y-2.4804
X2.9767Y-2.58
X2.9767Y-2.6804
X3.0492Y-4.3181
X3.0492Y-4.4181
X3.0767Y-2.38
X3.0767Y-2.4804
X3.0767Y-2.58
X3.0767Y-2.6804
X3.1492Y-4.3181
X3.1492Y-4.4181
X3.1767Y-2.38
X3.1767Y-2.4804
X3.1767Y-2.58
X3.1767Y-2.6804
X3.2492Y-4.3181
X3.2492Y-4.4181
X3.2767Y-2.38
X3.2767Y-2.4804
X3.2767Y-2.58
X3.2767Y-2.6804
X3.3492Y-4.3181
X3.3492Y-4.4181
X3.3767Y-2.38
X3.3767Y-2.4804
X3.3767Y-2.58
X3.3767Y-2.6804
X3.4492Y-4.3181
X3.4492Y-4.4181
X3.4767Y-2.38
X3.4767Y-2.4804
X3.4767Y-2.58
X3.4767Y-2.6804
X3.5492Y-4.3181
X3.5492Y-4.4181
X3.5767Y-2.38
X3.5767Y-2.4804
X3.5767Y-2.58
X3.5767Y-2.6804
X3.6492Y-4.3181
X3.6492Y-4.4181
X3.6682Y-3.527
X3.6697Y-3.4279
X3.6767Y-2.38
X3.6767Y-2.4804
X3.6767Y-2.58
X3.6767Y-2.6804
X3.7492Y-4.3181
X3.7492Y-4.4181
X3.7682Y-3.527
X3.7697Y-3.4279
X3.7767Y-2.38
X3.7767Y-2.4804
X3.7767Y-2.58
X3.7767Y-2.6804
X3.8492Y-4.3181
X3.8492Y-4.4181
X3.8682Y-3.527
X3.8697Y-3.4279
X3.8767Y-2.38
X3.8767Y-2.4804
X3.8767Y-2.58
X3.8767Y-2.6804
X3.9492Y-4.3181
X3.9492Y-4.4181
X3.9682Y-3.527
X3.9697Y-3.4279
X3.9767Y-2.38
X3.9767Y-2.4804
X3.9767Y-2.58
X3.9767Y-2.6804
X4.0492Y-4.3181
X4.0492Y-4.4181
X4.0682Y-3.527
X4.0697Y-3.4279
X4.0767Y-2.38
X4.0767Y-2.4804
X4.0767Y-2.58
X4.0767Y-2.6804
X4.1492Y-4.3181
X4.1492Y-4.4181
X4.1767Y-2.38
X4.1767Y-2.4804
X4.1767Y-2.58
X4.1767Y-2.6804
X4.2492Y-4.3181
X4.2492Y-4.4181
X4.2767Y-2.38
X4.2767Y-2.4804
X4.2767Y-2.58
X4.2767Y-2.6804
X4.3492Y-4.3181
X4.3492Y-4.4181
X4.3767Y-2.38
X4.3767Y-2.4804
X4.3767Y-2.58
X4.3767Y-2.6804
X4.4492Y-4.3181
X4.4492Y-4.4181
X4.4767Y-2.38
X4.4767Y-2.4804
X4.4767Y-2.58
X4.4767Y-2.6804
X4.5492Y-4.3181
X4.5492Y-4.4181
X4.5767Y-2.38
X4.5767Y-2.4804
X4.5767Y-2.58
X4.5767Y-2.6804
X4.6492Y-4.3181
X4.6492Y-4.4181
X4.6767Y-2.38
X4.6767Y-2.4804
X4.6767Y-2.58
X4.6767Y-2.6804
X4.7492Y-4.3181
X4.7492Y-4.4181
X4.7767Y-2.38
X4.7767Y-2.4804
X4.7767Y-2.58
X4.7767Y-2.6804
X4.8767Y-2.38
X4.8767Y-2.4804
X4.8767Y-2.58
X4.8767Y-2.6804
X4.9767Y-2.38
X4.9767Y-2.4804
X4.9767Y-2.58
X4.9767Y-2.6804
X5.0767Y-2.38
X5.0767Y-2.4804
X5.0767Y-2.58
X5.0767Y-2.6804
X5.3772Y-4.3846
X5.3772Y-4.4846
X5.3772Y-4.5846
X5.3772Y-4.6846
X5.3772Y-4.7846
X5.3772Y-4.8846
X5.3772Y-4.9846
X5.3772Y-5.0846
T4
X3.2572Y-3.527
X3.2572Y-4.6097
X4.3399Y-3.527
X4.3399Y-4.6097
T5
X2.6575Y-4.3681
X2.6575Y-5.2736
X4.9409Y-5.2736
T6
X4.9409Y-4.3681
T7
X2.2267Y-5.7554
X2.3767Y-2.3804
X5.2767Y-2.3804
X5.3781Y-5.753
M30
