%TF.GenerationSoftware,KiCad,Pcbnew,8.0.1*%
%TF.CreationDate,2024-06-13T14:26:33-04:00*%
%TF.ProjectId,Payload Board,5061796c-6f61-4642-9042-6f6172642e6b,rev?*%
%TF.SameCoordinates,Original*%
%TF.FileFunction,Copper,L4,Bot*%
%TF.FilePolarity,Positive*%
%FSLAX46Y46*%
G04 Gerber Fmt 4.6, Leading zero omitted, Abs format (unit mm)*
G04 Created by KiCad (PCBNEW 8.0.1) date 2024-06-13 14:26:33*
%MOMM*%
%LPD*%
G01*
G04 APERTURE LIST*
%TA.AperFunction,ComponentPad*%
%ADD10C,5.400000*%
%TD*%
%TA.AperFunction,ComponentPad*%
%ADD11R,1.700000X1.700000*%
%TD*%
%TA.AperFunction,ComponentPad*%
%ADD12O,1.700000X1.700000*%
%TD*%
%TA.AperFunction,ComponentPad*%
%ADD13C,6.300000*%
%TD*%
%TA.AperFunction,ComponentPad*%
%ADD14C,1.700000*%
%TD*%
%TA.AperFunction,ComponentPad*%
%ADD15C,5.000000*%
%TD*%
%TA.AperFunction,ComponentPad*%
%ADD16C,6.400000*%
%TD*%
%TA.AperFunction,ComponentPad*%
%ADD17R,1.800000X1.800000*%
%TD*%
%TA.AperFunction,ComponentPad*%
%ADD18C,1.800000*%
%TD*%
%TA.AperFunction,ViaPad*%
%ADD19C,0.800000*%
%TD*%
%TA.AperFunction,Conductor*%
%ADD20C,0.250000*%
%TD*%
%TA.AperFunction,Conductor*%
%ADD21C,0.635000*%
%TD*%
G04 APERTURE END LIST*
D10*
%TO.P,U1,*%
%TO.N,*%
X125500000Y-110950000D03*
X67500000Y-110950000D03*
X125500000Y-133950000D03*
X67500000Y-133950000D03*
D11*
%TO.P,U1,1,3V3_power*%
%TO.N,+3V3*%
X120630000Y-112220000D03*
D12*
%TO.P,U1,2,5vV_Power*%
%TO.N,+5V*%
X120630000Y-109680000D03*
%TO.P,U1,3,BCM_2_(SDA)*%
%TO.N,BCM_2_(SDA)*%
X118090000Y-112220000D03*
%TO.P,U1,4,5vV_Power*%
%TO.N,+5V*%
X118090000Y-109680000D03*
%TO.P,U1,5,BCM_3_(SCL)*%
%TO.N,BCM_3_(SCL)*%
X115550000Y-112220000D03*
%TO.P,U1,6,GND*%
%TO.N,GND*%
X115550000Y-109680000D03*
%TO.P,U1,7,BCM_4_(GPCLKO)*%
%TO.N,unconnected-(U1-BCM_4_(GPCLKO)-Pad7)*%
X113010000Y-112220000D03*
%TO.P,U1,8,BCM_14_(TxD)*%
%TO.N,BCM_14_(TxD)*%
X113010000Y-109680000D03*
%TO.P,U1,9,GND*%
%TO.N,GND*%
X110470000Y-112220000D03*
%TO.P,U1,10,BCM_15_(RxD)*%
%TO.N,BCM_15_(RxD)*%
X110470000Y-109680000D03*
%TO.P,U1,11,BCM_17*%
%TO.N,BCM_17*%
X107930000Y-112220000D03*
%TO.P,U1,12,BCM_18_(PWMO)*%
%TO.N,unconnected-(U1-BCM_18_(PWMO)-Pad12)*%
X107930000Y-109680000D03*
%TO.P,U1,13,BCM_27*%
%TO.N,BCM_27*%
X105390000Y-112220000D03*
%TO.P,U1,14,GND*%
%TO.N,GND*%
X105390000Y-109680000D03*
%TO.P,U1,15,BCM_22*%
%TO.N,BCM_22*%
X102850000Y-112220000D03*
%TO.P,U1,16,BCM_23*%
%TO.N,BCM_23*%
X102850000Y-109680000D03*
%TO.P,U1,17,3V3_power*%
%TO.N,+3V3*%
X100310000Y-112220000D03*
%TO.P,U1,18,BCM_24*%
%TO.N,unconnected-(U1-BCM_24-Pad18)*%
X100310000Y-109680000D03*
%TO.P,U1,19,BCM_10_(MOSI)*%
%TO.N,BCM_10_(MOSI)*%
X97770000Y-112220000D03*
%TO.P,U1,20,GND*%
%TO.N,GND*%
X97770000Y-109680000D03*
%TO.P,U1,21,BCM_9_(MISO)*%
%TO.N,BCM_9_(MISO)*%
X95230000Y-112220000D03*
%TO.P,U1,22,BCM_25*%
%TO.N,BCM_25*%
X95230000Y-109680000D03*
%TO.P,U1,23,BCM_11_(SCLK)*%
%TO.N,BCM_11_(SCLK)*%
X92690000Y-112220000D03*
%TO.P,U1,24,BCM_8_(CE0)*%
%TO.N,BCM_8_(CE0)*%
X92690000Y-109680000D03*
%TO.P,U1,25,GND*%
%TO.N,GND*%
X90150000Y-112220000D03*
%TO.P,U1,26,BCM_7_(CE1)*%
%TO.N,unconnected-(U1-BCM_7_(CE1)-Pad26)*%
X90150000Y-109680000D03*
%TO.P,U1,27,BCM_0_(ID_SD)*%
%TO.N,unconnected-(U1-BCM_0_(ID_SD)-Pad27)*%
X87610000Y-112220000D03*
%TO.P,U1,28,BCN_l_(ID_SC)*%
%TO.N,unconnected-(U1-BCN_l_(ID_SC)-Pad28)*%
X87610000Y-109680000D03*
%TO.P,U1,29,BCM_5*%
%TO.N,unconnected-(U1-BCM_5-Pad29)*%
X85070000Y-112220000D03*
%TO.P,U1,30,GND*%
%TO.N,GND*%
X85070000Y-109680000D03*
%TO.P,U1,31,BCM_6*%
%TO.N,unconnected-(U1-BCM_6-Pad31)*%
X82530000Y-112220000D03*
%TO.P,U1,32,BCM_12_(PWM0)*%
%TO.N,unconnected-(U1-BCM_12_(PWM0)-Pad32)*%
X82530000Y-109680000D03*
%TO.P,U1,33,BCM_13_(PWM1)*%
%TO.N,unconnected-(U1-BCM_13_(PWM1)-Pad33)*%
X79990000Y-112220000D03*
%TO.P,U1,34,GND*%
%TO.N,unconnected-(U1-GND-Pad34)*%
X79990000Y-109680000D03*
%TO.P,U1,35,BCM_19_(MISO)*%
%TO.N,unconnected-(U1-BCM_19_(MISO)-Pad35)*%
X77450000Y-112220000D03*
%TO.P,U1,36,BCM_16*%
%TO.N,H2_24*%
X77450000Y-109680000D03*
%TO.P,U1,37,BCM_26*%
%TO.N,BCM_26*%
X74910000Y-112220000D03*
%TO.P,U1,38,BCM_20_(MOSI)*%
%TO.N,H2_22*%
X74910000Y-109680000D03*
%TO.P,U1,39,GND*%
%TO.N,GND*%
X72370000Y-112220000D03*
%TO.P,U1,40,BCM_21_(SCLK)*%
%TO.N,H2_10*%
X72370000Y-109680000D03*
%TD*%
D13*
%TO.P,U7,*%
%TO.N,*%
X110233128Y-117086662D03*
X110233128Y-89586662D03*
D14*
X103333128Y-89586662D03*
X100793128Y-89586662D03*
X98253128Y-89586662D03*
X95713128Y-89586662D03*
X93173128Y-89586662D03*
D13*
X82733128Y-117086662D03*
X82733128Y-89586662D03*
D14*
%TO.P,U7,1,+5v*%
%TO.N,+5V*%
X93211462Y-87069142D03*
%TO.P,U7,2,Tx*%
%TO.N,Tx*%
X95751462Y-87069142D03*
%TO.P,U7,3,Rx*%
%TO.N,Rx*%
X98291462Y-87069142D03*
%TO.P,U7,4,GND*%
%TO.N,GND*%
X100831462Y-87069142D03*
%TO.P,U7,5,RST*%
%TO.N,BCM_23*%
X103371462Y-87069142D03*
%TD*%
D11*
%TO.P,J1,1,Pin_1*%
%TO.N,+5V*%
X136580000Y-111370000D03*
D12*
%TO.P,J1,2,Pin_2*%
%TO.N,+3V3*%
X136580000Y-113910000D03*
%TO.P,J1,3,Pin_3*%
%TO.N,H2_24*%
X136580000Y-116450000D03*
%TO.P,J1,4,Pin_4*%
%TO.N,H2_22*%
X136580000Y-118990000D03*
%TO.P,J1,5,Pin_5*%
%TO.N,H2_10*%
X136580000Y-121530000D03*
%TO.P,J1,6,Pin_6*%
%TO.N,BCM_14_(TxD)*%
X136580000Y-124070000D03*
%TO.P,J1,7,Pin_7*%
%TO.N,BCM_15_(RxD)*%
X136580000Y-126610000D03*
%TO.P,J1,8,Pin_8*%
%TO.N,GND*%
X136580000Y-129150000D03*
%TD*%
D11*
%TO.P,H1,1,Pin_1*%
%TO.N,unconnected-(H1-Pin_1-Pad1)*%
X65448128Y-68081662D03*
D12*
%TO.P,H1,2,Pin_2*%
%TO.N,unconnected-(H1-Pin_2-Pad2)*%
X65448128Y-65541662D03*
%TO.P,H1,3,Pin_3*%
%TO.N,GND*%
X67988128Y-68081662D03*
%TO.P,H1,4,Pin_4*%
%TO.N,unconnected-(H1-Pin_4-Pad4)*%
X67988128Y-65531662D03*
%TO.P,H1,5,Pin_5*%
%TO.N,H1_5*%
X70528128Y-68081662D03*
%TO.P,H1,6,Pin_6*%
%TO.N,H1_6*%
X70528128Y-65531662D03*
%TO.P,H1,7,Pin_7*%
%TO.N,H1_7*%
X73068128Y-68081662D03*
%TO.P,H1,8,Pin_8*%
%TO.N,H1_8*%
X73068128Y-65531662D03*
%TO.P,H1,9,Pin_9*%
%TO.N,unconnected-(H1-Pin_9-Pad9)*%
X75608128Y-68081662D03*
%TO.P,H1,10,Pin_10*%
%TO.N,unconnected-(H1-Pin_10-Pad10)*%
X75608128Y-65531662D03*
%TO.P,H1,11,Pin_11*%
%TO.N,unconnected-(H1-Pin_11-Pad11)*%
X78148128Y-68081662D03*
%TO.P,H1,12,Pin_12*%
%TO.N,unconnected-(H1-Pin_12-Pad12)*%
X78148128Y-65531662D03*
%TO.P,H1,13,Pin_13*%
%TO.N,GND*%
X80688128Y-68081662D03*
%TO.P,H1,14,Pin_14*%
%TO.N,unconnected-(H1-Pin_14-Pad14)*%
X80688128Y-65531662D03*
%TO.P,H1,15,Pin_15*%
%TO.N,unconnected-(H1-Pin_15-Pad15)*%
X83228128Y-68081662D03*
%TO.P,H1,16,Pin_16*%
%TO.N,unconnected-(H1-Pin_16-Pad16)*%
X83228128Y-65531662D03*
%TO.P,H1,17,Pin_17*%
%TO.N,unconnected-(H1-Pin_17-Pad17)*%
X85768128Y-68081662D03*
%TO.P,H1,18,Pin_18*%
%TO.N,unconnected-(H1-Pin_18-Pad18)*%
X85768128Y-65531662D03*
%TO.P,H1,19,Pin_19*%
%TO.N,unconnected-(H1-Pin_19-Pad19)*%
X88308128Y-68081662D03*
%TO.P,H1,20,Pin_20*%
%TO.N,unconnected-(H1-Pin_20-Pad20)*%
X88308128Y-65531662D03*
%TO.P,H1,21,Pin_21*%
%TO.N,unconnected-(H1-Pin_21-Pad21)*%
X90848128Y-68081662D03*
%TO.P,H1,22,Pin_22*%
%TO.N,unconnected-(H1-Pin_22-Pad22)*%
X90848128Y-65531662D03*
%TO.P,H1,23,Pin_23*%
%TO.N,unconnected-(H1-Pin_23-Pad23)*%
X93388128Y-68081662D03*
%TO.P,H1,24,Pin_24*%
%TO.N,unconnected-(H1-Pin_24-Pad24)*%
X93388128Y-65531662D03*
%TO.P,H1,25,Pin_25*%
%TO.N,unconnected-(H1-Pin_25-Pad25)*%
X95928128Y-68081662D03*
%TO.P,H1,26,Pin_26*%
%TO.N,unconnected-(H1-Pin_26-Pad26)*%
X95928128Y-65531662D03*
%TO.P,H1,27,Pin_27*%
%TO.N,unconnected-(H1-Pin_27-Pad27)*%
X98468128Y-68081662D03*
%TO.P,H1,28,Pin_28*%
%TO.N,unconnected-(H1-Pin_28-Pad28)*%
X98468128Y-65531662D03*
%TO.P,H1,29,Pin_29*%
%TO.N,unconnected-(H1-Pin_29-Pad29)*%
X101008128Y-68081662D03*
%TO.P,H1,30,Pin_30*%
%TO.N,unconnected-(H1-Pin_30-Pad30)*%
X101008128Y-65531662D03*
%TO.P,H1,31,Pin_31*%
%TO.N,unconnected-(H1-Pin_31-Pad31)*%
X103548128Y-68081662D03*
%TO.P,H1,32,Pin_32*%
%TO.N,unconnected-(H1-Pin_32-Pad32)*%
X103548128Y-65531662D03*
%TO.P,H1,33,Pin_33*%
%TO.N,unconnected-(H1-Pin_33-Pad33)*%
X106088128Y-68081662D03*
%TO.P,H1,34,Pin_34*%
%TO.N,unconnected-(H1-Pin_34-Pad34)*%
X106088128Y-65531662D03*
%TO.P,H1,35,Pin_35*%
%TO.N,unconnected-(H1-Pin_35-Pad35)*%
X108628128Y-68081662D03*
%TO.P,H1,36,Pin_36*%
%TO.N,unconnected-(H1-Pin_36-Pad36)*%
X108628128Y-65531662D03*
%TO.P,H1,37,Pin_37*%
%TO.N,unconnected-(H1-Pin_37-Pad37)*%
X111168128Y-68081662D03*
%TO.P,H1,38,Pin_38*%
%TO.N,unconnected-(H1-Pin_38-Pad38)*%
X111168128Y-65531662D03*
%TO.P,H1,39,Pin_39*%
%TO.N,unconnected-(H1-Pin_39-Pad39)*%
X113708128Y-68081662D03*
%TO.P,H1,40,Pin_40*%
%TO.N,unconnected-(H1-Pin_40-Pad40)*%
X113708128Y-65531662D03*
%TO.P,H1,41,Pin_41*%
%TO.N,unconnected-(H1-Pin_41-Pad41)*%
X116248128Y-68081662D03*
%TO.P,H1,42,Pin_42*%
%TO.N,GND*%
X116248128Y-65531662D03*
%TO.P,H1,43,Pin_43*%
%TO.N,unconnected-(H1-Pin_43-Pad43)*%
X118788128Y-68081662D03*
%TO.P,H1,44,Pin_44*%
%TO.N,unconnected-(H1-Pin_44-Pad44)*%
X118788128Y-65531662D03*
%TO.P,H1,45,Pin_45*%
%TO.N,H1_45*%
X121328128Y-68081662D03*
%TO.P,H1,46,Pin_46*%
%TO.N,GND*%
X121328128Y-65531662D03*
%TO.P,H1,47,Pin_47*%
%TO.N,H1_47*%
X123868128Y-68081662D03*
%TO.P,H1,48,Pin_48*%
%TO.N,unconnected-(H1-Pin_48-Pad48)*%
X123868128Y-65531662D03*
%TO.P,H1,49,Pin_49*%
%TO.N,unconnected-(H1-Pin_49-Pad49)*%
X126408128Y-68081662D03*
%TO.P,H1,50,Pin_50*%
%TO.N,GND*%
X126408128Y-65531662D03*
%TO.P,H1,51,Pin_51*%
%TO.N,5v_IC_power*%
X128948128Y-68081662D03*
%TO.P,H1,52,Pin_52*%
%TO.N,unconnected-(H1-Pin_52-Pad52)*%
X128948128Y-65531662D03*
%TD*%
D11*
%TO.P,H2,1,Pin_1*%
%TO.N,unconnected-(H2-Pin_1-Pad1)*%
X65448128Y-63001662D03*
D12*
%TO.P,H2,2,Pin_2*%
%TO.N,GND*%
X65448128Y-60461662D03*
%TO.P,H2,3,Pin_3*%
%TO.N,unconnected-(H2-Pin_3-Pad3)*%
X67988128Y-63001662D03*
%TO.P,H2,4,Pin_4*%
%TO.N,unconnected-(H2-Pin_4-Pad4)*%
X67988128Y-60451662D03*
%TO.P,H2,5,Pin_5*%
%TO.N,unconnected-(H2-Pin_5-Pad5)*%
X70528128Y-63001662D03*
%TO.P,H2,6,Pin_6*%
%TO.N,unconnected-(H2-Pin_6-Pad6)*%
X70528128Y-60451662D03*
%TO.P,H2,7,Pin_7*%
%TO.N,unconnected-(H2-Pin_7-Pad7)*%
X73068128Y-63001662D03*
%TO.P,H2,8,Pin_8*%
%TO.N,unconnected-(H2-Pin_8-Pad8)*%
X73068128Y-60451662D03*
%TO.P,H2,9,Pin_9*%
%TO.N,H2_9*%
X75608128Y-63001662D03*
%TO.P,H2,10,Pin_10*%
%TO.N,H2_10*%
X75608128Y-60451662D03*
%TO.P,H2,11,Pin_11*%
%TO.N,H2_11*%
X78148128Y-63001662D03*
%TO.P,H2,12,Pin_12*%
%TO.N,unconnected-(H2-Pin_12-Pad12)*%
X78148128Y-60451662D03*
%TO.P,H2,13,Pin_13*%
%TO.N,H2_13*%
X80688128Y-63001662D03*
%TO.P,H2,14,Pin_14*%
%TO.N,unconnected-(H2-Pin_14-Pad14)*%
X80688128Y-60451662D03*
%TO.P,H2,15,Pin_15*%
%TO.N,GND*%
X83228128Y-63001662D03*
%TO.P,H2,16,Pin_16*%
%TO.N,H2_16*%
X83228128Y-60451662D03*
%TO.P,H2,17,Pin_17*%
%TO.N,H2_17*%
X85768128Y-63001662D03*
%TO.P,H2,18,Pin_18*%
%TO.N,H2_18*%
X85768128Y-60451662D03*
%TO.P,H2,19,Pin_19*%
%TO.N,unconnected-(H2-Pin_19-Pad19)*%
X88308128Y-63001662D03*
%TO.P,H2,20,Pin_20*%
%TO.N,H2_20*%
X88308128Y-60451662D03*
%TO.P,H2,21,Pin_21*%
%TO.N,unconnected-(H2-Pin_21-Pad21)*%
X90848128Y-63001662D03*
%TO.P,H2,22,Pin_22*%
%TO.N,H2_22*%
X90848128Y-60451662D03*
%TO.P,H2,23,Pin_23*%
%TO.N,unconnected-(H2-Pin_23-Pad23)*%
X93388128Y-63001662D03*
%TO.P,H2,24,Pin_24*%
%TO.N,H2_24*%
X93388128Y-60451662D03*
%TO.P,H2,25,Pin_25*%
%TO.N,unconnected-(H2-Pin_25-Pad25)*%
X95928128Y-63001662D03*
%TO.P,H2,26,Pin_26*%
%TO.N,unconnected-(H2-Pin_26-Pad26)*%
X95928128Y-60451662D03*
%TO.P,H2,27,Pin_27*%
%TO.N,unconnected-(H2-Pin_27-Pad27)*%
X98468128Y-63001662D03*
%TO.P,H2,28,Pin_28*%
%TO.N,unconnected-(H2-Pin_28-Pad28)*%
X98468128Y-60451662D03*
%TO.P,H2,29,Pin_29*%
%TO.N,GND*%
X101008128Y-63001662D03*
%TO.P,H2,30,Pin_30*%
X101008128Y-60451662D03*
%TO.P,H2,31,Pin_31*%
X103548128Y-63001662D03*
%TO.P,H2,32,Pin_32*%
X103548128Y-60451662D03*
%TO.P,H2,33,Pin_33*%
%TO.N,unconnected-(H2-Pin_33-Pad33)*%
X106088128Y-63001662D03*
%TO.P,H2,34,Pin_34*%
%TO.N,unconnected-(H2-Pin_34-Pad34)*%
X106088128Y-60451662D03*
%TO.P,H2,35,Pin_35*%
%TO.N,unconnected-(H2-Pin_35-Pad35)*%
X108628128Y-63001662D03*
%TO.P,H2,36,Pin_36*%
%TO.N,unconnected-(H2-Pin_36-Pad36)*%
X108628128Y-60451662D03*
%TO.P,H2,37,Pin_37*%
%TO.N,unconnected-(H2-Pin_37-Pad37)*%
X111168128Y-63001662D03*
%TO.P,H2,38,Pin_38*%
%TO.N,unconnected-(H2-Pin_38-Pad38)*%
X111168128Y-60451662D03*
%TO.P,H2,39,Pin_39*%
%TO.N,unconnected-(H2-Pin_39-Pad39)*%
X113708128Y-63001662D03*
%TO.P,H2,40,Pin_40*%
%TO.N,unconnected-(H2-Pin_40-Pad40)*%
X113708128Y-60451662D03*
%TO.P,H2,41,Pin_41*%
%TO.N,unconnected-(H2-Pin_41-Pad41)*%
X116248128Y-63001662D03*
%TO.P,H2,42,Pin_42*%
%TO.N,unconnected-(H2-Pin_42-Pad42)*%
X116248128Y-60451662D03*
%TO.P,H2,43,Pin_43*%
%TO.N,unconnected-(H2-Pin_43-Pad43)*%
X118788128Y-63001662D03*
%TO.P,H2,44,Pin_44*%
%TO.N,unconnected-(H2-Pin_44-Pad44)*%
X118788128Y-60451662D03*
%TO.P,H2,45,Pin_45*%
%TO.N,unconnected-(H2-Pin_45-Pad45)*%
X121328128Y-63001662D03*
%TO.P,H2,46,Pin_46*%
%TO.N,unconnected-(H2-Pin_46-Pad46)*%
X121328128Y-60451662D03*
%TO.P,H2,47,Pin_47*%
%TO.N,unconnected-(H2-Pin_47-Pad47)*%
X123868128Y-63001662D03*
%TO.P,H2,48,Pin_48*%
%TO.N,unconnected-(H2-Pin_48-Pad48)*%
X123868128Y-60451662D03*
%TO.P,H2,49,Pin_49*%
%TO.N,unconnected-(H2-Pin_49-Pad49)*%
X126408128Y-63001662D03*
%TO.P,H2,50,Pin_50*%
%TO.N,unconnected-(H2-Pin_50-Pad50)*%
X126408128Y-60451662D03*
%TO.P,H2,51,Pin_51*%
%TO.N,unconnected-(H2-Pin_51-Pad51)*%
X128948128Y-63001662D03*
%TO.P,H2,52,Pin_52*%
%TO.N,unconnected-(H2-Pin_52-Pad52)*%
X128948128Y-60451662D03*
%TD*%
D15*
%TO.P,M4,*%
%TO.N,GND*%
X134028128Y-60461662D03*
%TD*%
D16*
%TO.P,M3,*%
%TO.N,GND*%
X60368128Y-60461662D03*
%TD*%
D17*
%TO.P,D3,1,K*%
%TO.N,Tx*%
X54673334Y-128972480D03*
D18*
%TO.P,D3,2,A*%
%TO.N,Net-(D3-A)*%
X57213334Y-128972480D03*
%TD*%
D16*
%TO.P,M1,*%
%TO.N,GND*%
X56558128Y-146186662D03*
%TD*%
D17*
%TO.P,D1,1,K*%
%TO.N,BCM_14_(TxD)*%
X54773334Y-117322480D03*
D18*
%TO.P,D1,2,A*%
%TO.N,Net-(D1-A)*%
X57313334Y-117322480D03*
%TD*%
D16*
%TO.P,M2,*%
%TO.N,GND*%
X136603128Y-146126662D03*
%TD*%
D17*
%TO.P,D2,1,K*%
%TO.N,BCM_15_(RxD)*%
X54743334Y-123062480D03*
D18*
%TO.P,D2,2,A*%
%TO.N,Net-(D2-A)*%
X57283334Y-123062480D03*
%TD*%
D17*
%TO.P,D4,1,K*%
%TO.N,Rx*%
X54593334Y-134412480D03*
D18*
%TO.P,D4,2,A*%
%TO.N,Net-(D4-A)*%
X57133334Y-134412480D03*
%TD*%
D19*
%TO.N,GND*%
X124050000Y-99730000D03*
X56718323Y-105002480D03*
X79288334Y-103622480D03*
X59740000Y-83730000D03*
X98858128Y-76986662D03*
X61247154Y-91359422D03*
X90303128Y-84481662D03*
X133658128Y-101286662D03*
X101803128Y-84481662D03*
X97703128Y-76776662D03*
X61358128Y-64286662D03*
X124150000Y-87350000D03*
X56108334Y-69712480D03*
X83268334Y-97622480D03*
X57308128Y-63486662D03*
X134008128Y-76861662D03*
X69428334Y-97752480D03*
X73280000Y-88970000D03*
X55332834Y-75872480D03*
X124020000Y-75260000D03*
X133558128Y-88386662D03*
X73470000Y-75350000D03*
%TO.N,+3V3*%
X87458128Y-80586662D03*
X79018334Y-73772480D03*
X76964500Y-99402480D03*
X134033128Y-75311662D03*
X133458128Y-86886662D03*
X84058128Y-74586662D03*
X122503128Y-96281662D03*
X60858334Y-127202480D03*
X60818334Y-132262480D03*
X69140000Y-76090000D03*
X60948334Y-121212480D03*
X122903128Y-84481662D03*
X60948334Y-115572480D03*
X55332834Y-74772480D03*
X70550000Y-73950000D03*
X128203128Y-72881662D03*
X72440000Y-100050000D03*
X133758128Y-99686662D03*
X75150000Y-99390000D03*
X101264930Y-74379860D03*
X70390000Y-87730000D03*
%TO.N,H1_8*%
X74362548Y-70597242D03*
X74373949Y-74155641D03*
%TO.N,Tx*%
X94978334Y-98772480D03*
X97903128Y-80681662D03*
X96658334Y-124142480D03*
X94503128Y-90881662D03*
%TO.N,Rx*%
X95578334Y-97784500D03*
X89258128Y-79786662D03*
X97708334Y-91672480D03*
X97978334Y-124362480D03*
%TO.N,H1_5*%
X65608334Y-84463480D03*
%TO.N,BCM_23*%
X102060000Y-91850000D03*
%TO.N,H1_45*%
X59600000Y-90040000D03*
X63258128Y-65886662D03*
%TO.N,Net-(U10-Pad6)*%
X81938334Y-103352480D03*
X80488334Y-96456980D03*
%TO.N,Net-(U10-Pad1)*%
X58888334Y-94592480D03*
X56738334Y-100962480D03*
%TO.N,H1_47*%
X76918334Y-79482480D03*
X125768334Y-82012480D03*
X77108334Y-90102480D03*
%TO.N,5v_IC_power*%
X63168334Y-73922480D03*
X80518334Y-104922480D03*
X65268334Y-98947480D03*
X72325541Y-71337815D03*
X61668334Y-112122480D03*
X63243334Y-95622480D03*
X67668334Y-72722480D03*
%TO.N,H2_9*%
X119690000Y-76410000D03*
X76358128Y-71729980D03*
X119172395Y-70404500D03*
%TO.N,H2_10*%
X71060000Y-103470000D03*
X75260000Y-80550000D03*
X81040000Y-80550000D03*
%TO.N,H2_11*%
X118965000Y-88740000D03*
%TO.N,H2_13*%
X116698629Y-71129500D03*
X119725000Y-100540000D03*
%TO.N,H2_16*%
X55258334Y-102712480D03*
X55168334Y-94412480D03*
X56718334Y-102272480D03*
X54720480Y-61124898D03*
%TO.N,H2_17*%
X60878334Y-70982480D03*
X64958128Y-56786662D03*
%TO.N,H2_18*%
X61832834Y-106522480D03*
X58128334Y-106892480D03*
X56012834Y-99176980D03*
X54543334Y-83722480D03*
X53018334Y-83672480D03*
X53958334Y-60312480D03*
%TO.N,H2_20*%
X54608334Y-81312480D03*
X61118334Y-95995540D03*
X53889162Y-58968308D03*
X55269406Y-92272480D03*
%TO.N,BCM_25*%
X78090000Y-90510000D03*
X77998334Y-97784500D03*
X76818334Y-77947480D03*
X77203128Y-88181662D03*
%TO.N,H1_6*%
X73250000Y-74250000D03*
%TO.N,+5V*%
X63795322Y-71449468D03*
X86643334Y-87547480D03*
X100428334Y-99032480D03*
X95908334Y-91802480D03*
%TO.N,BCM_2_(SDA)*%
X116340000Y-90880000D03*
X60660000Y-89950000D03*
X60248450Y-91399501D03*
%TO.N,BCM_3_(SCL)*%
X79708026Y-94029511D03*
X78890000Y-91420000D03*
X115450000Y-91615000D03*
%TO.N,H2_22*%
X73650000Y-103410000D03*
X81810000Y-81790000D03*
X75310000Y-81810000D03*
%TO.N,H2_24*%
X82620000Y-82830000D03*
X75388334Y-83142480D03*
X76240000Y-103330000D03*
%TO.N,Net-(IC1-EN)*%
X58528334Y-72512480D03*
X75398334Y-86452480D03*
X79298334Y-100582480D03*
X58290499Y-85912480D03*
%TO.N,BCM_15_(RxD)*%
X111460000Y-97060000D03*
X90369790Y-86115000D03*
X105738334Y-122062480D03*
X92303128Y-84481662D03*
%TO.N,BCM_14_(TxD)*%
X86303128Y-91981662D03*
X88703128Y-81381662D03*
X89903128Y-90481662D03*
X115300000Y-95700000D03*
X78815000Y-94479031D03*
%TO.N,BCM_17*%
X108980000Y-98720000D03*
%TO.N,BCM_27*%
X114240000Y-106530000D03*
X114174919Y-89934801D03*
%TO.N,BCM_22*%
X120415000Y-73900000D03*
X119189154Y-91630846D03*
X105460000Y-94760000D03*
%TO.N,BCM_26*%
X85103128Y-84181662D03*
X74103128Y-106381662D03*
%TO.N,BCM_29_(RxD)*%
X62403128Y-92981662D03*
X90403128Y-93281662D03*
X88603128Y-83481662D03*
X57903128Y-92881662D03*
%TO.N,BCM_28_(TxD)*%
X60203128Y-77181662D03*
X71403128Y-83981662D03*
X99903128Y-81581662D03*
X68603128Y-87781662D03*
X63103128Y-87881662D03*
X81503128Y-84081662D03*
%TO.N,Net-(U10-Pad3)*%
X69848334Y-102142480D03*
X70423113Y-97655428D03*
%TD*%
D20*
%TO.N,GND*%
X100878334Y-85406456D02*
X100878334Y-87072480D01*
X101803128Y-84481662D02*
X100878334Y-85406456D01*
%TO.N,H1_8*%
X74373949Y-74155641D02*
X74373949Y-70608643D01*
X74373949Y-70608643D02*
X74362548Y-70597242D01*
%TO.N,Tx*%
X94503128Y-90881662D02*
X94503128Y-98297274D01*
X95798334Y-87072480D02*
X95933270Y-87072480D01*
X95933270Y-87072480D02*
X97135802Y-85869948D01*
X54673334Y-128972480D02*
X59503334Y-124142480D01*
X97135802Y-84908804D02*
X97135802Y-85869948D01*
X97135802Y-84908804D02*
X97135802Y-81448988D01*
X94503128Y-98297274D02*
X94978334Y-98772480D01*
X97135802Y-81448988D02*
X97903128Y-80681662D01*
X59503334Y-124142480D02*
X96658334Y-124142480D01*
X94978334Y-98772480D02*
X94585489Y-98379635D01*
%TO.N,Rx*%
X97113823Y-91077969D02*
X97708334Y-91672480D01*
X95522845Y-91077969D02*
X97113823Y-91077969D01*
X89853128Y-80381662D02*
X90274664Y-80381662D01*
X95578334Y-97784500D02*
X95183823Y-97389989D01*
X97473823Y-124866991D02*
X97978334Y-124362480D01*
X95183823Y-97389989D02*
X95183823Y-91416991D01*
X55401613Y-134412480D02*
X64947102Y-124866991D01*
X90274664Y-80381662D02*
X94274664Y-84381662D01*
X94274664Y-84381662D02*
X94303128Y-84381662D01*
X54593334Y-134412480D02*
X55401613Y-134412480D01*
X64947102Y-124866991D02*
X97473823Y-124866991D01*
X97163334Y-88247480D02*
X98338334Y-87072480D01*
X95183823Y-91416991D02*
X95522845Y-91077969D01*
X94623334Y-87559181D02*
X95311633Y-88247480D01*
X94623334Y-84701868D02*
X94623334Y-87559181D01*
X94303128Y-84381662D02*
X94623334Y-84701868D01*
X95311633Y-88247480D02*
X97163334Y-88247480D01*
X89258128Y-79786662D02*
X89853128Y-80381662D01*
%TO.N,H1_5*%
X65608334Y-84463480D02*
X65608334Y-73001456D01*
X70528128Y-68081662D02*
X65608334Y-73001456D01*
%TO.N,BCM_23*%
X102060000Y-108890000D02*
X102850000Y-109680000D01*
X102060000Y-91850000D02*
X102060000Y-108890000D01*
%TO.N,H1_45*%
X62200000Y-72870814D02*
X59184999Y-75885815D01*
X59184999Y-75885815D02*
X59184999Y-83211999D01*
X59014999Y-89454999D02*
X59600000Y-90040000D01*
X59184999Y-83211999D02*
X59014999Y-83381999D01*
X59014999Y-83381999D02*
X59014999Y-89454999D01*
X62200000Y-66944790D02*
X62200000Y-72870814D01*
X59600000Y-90040000D02*
X59184999Y-89624999D01*
X63258128Y-65886662D02*
X62200000Y-66944790D01*
%TO.N,Net-(U10-Pad6)*%
X80488334Y-98932480D02*
X80488334Y-96456980D01*
X81938334Y-103352480D02*
X81938334Y-100382480D01*
X81938334Y-100382480D02*
X80488334Y-98932480D01*
%TO.N,Net-(U10-Pad1)*%
X58888334Y-94592480D02*
X56778334Y-94592480D01*
X56778334Y-94592480D02*
X56738334Y-94632480D01*
X56738334Y-94632480D02*
X56738334Y-100962480D01*
%TO.N,H1_47*%
X77108334Y-90102480D02*
X77023334Y-90102480D01*
X76193334Y-80207480D02*
X76918334Y-79482480D01*
X76193334Y-89272480D02*
X76193334Y-80207480D01*
X125768334Y-69402616D02*
X124157754Y-67792036D01*
X77023334Y-90102480D02*
X76193334Y-89272480D01*
X125768334Y-82012480D02*
X125768334Y-69402616D01*
D21*
%TO.N,5v_IC_power*%
X80148334Y-105042480D02*
X80398334Y-105042480D01*
X72325541Y-71337815D02*
X69052999Y-71337815D01*
X65268334Y-98947480D02*
X65268334Y-103147480D01*
X63856803Y-73972480D02*
X63806803Y-73922480D01*
X63243334Y-95622480D02*
X63243334Y-94172480D01*
X64818334Y-92597480D02*
X64818334Y-86177670D01*
X63890739Y-85250075D02*
X63856803Y-85216138D01*
X63243334Y-94172480D02*
X64818334Y-92597480D01*
X63856803Y-85216138D02*
X63856803Y-73972480D01*
X64818334Y-86177670D02*
X63890739Y-85250075D01*
X65268334Y-103147480D02*
X67163334Y-105042480D01*
X80398334Y-105042480D02*
X80518334Y-104922480D01*
D20*
X63638334Y-106522480D02*
X70127866Y-106522480D01*
D21*
X69052999Y-71337815D02*
X67668334Y-72722480D01*
D20*
X70127866Y-106522480D02*
X71607866Y-105042480D01*
D21*
X67163334Y-105042480D02*
X70848334Y-105042480D01*
X70848334Y-105042480D02*
X71607866Y-105042480D01*
X63806803Y-73922480D02*
X63168334Y-73922480D01*
X70848334Y-105042480D02*
X80148334Y-105042480D01*
D20*
X61668334Y-112122480D02*
X61668334Y-108492480D01*
X61668334Y-108492480D02*
X63638334Y-106522480D01*
%TO.N,H2_9*%
X74433127Y-64176663D02*
X75608128Y-63001662D01*
X119690000Y-70922105D02*
X119690000Y-76410000D01*
X76358128Y-71729980D02*
X76358128Y-70570664D01*
X119172395Y-70404500D02*
X119690000Y-70922105D01*
X74433127Y-68645663D02*
X74433127Y-64176663D01*
X76358128Y-70570664D02*
X74433127Y-68645663D01*
%TO.N,H2_10*%
X77815474Y-69680000D02*
X76783129Y-68647655D01*
X76783129Y-61626663D02*
X75608128Y-60451662D01*
X72317927Y-83492073D02*
X75260000Y-80550000D01*
X77815474Y-70121296D02*
X77815474Y-69680000D01*
X71060000Y-103470000D02*
X71459999Y-103070001D01*
X81040000Y-80550000D02*
X81040000Y-73345822D01*
X71459999Y-100005387D02*
X72317927Y-99147459D01*
X72317927Y-99147459D02*
X72317927Y-83492073D01*
X81040000Y-73345822D02*
X77815474Y-70121296D01*
X76783129Y-68647655D02*
X76783129Y-61626663D01*
X71459999Y-103070001D02*
X71459999Y-100005387D01*
%TO.N,H2_11*%
X118965000Y-88740000D02*
X118965000Y-73035000D01*
X118965000Y-73035000D02*
X117423129Y-71493129D01*
X76918334Y-61125458D02*
X78148128Y-62355252D01*
X116812129Y-59276661D02*
X77584127Y-59276661D01*
X77584127Y-59276661D02*
X76918334Y-59942454D01*
X76918334Y-59942454D02*
X76918334Y-61125458D01*
X78148128Y-62355252D02*
X78148128Y-63001662D01*
X117423129Y-71493129D02*
X117423129Y-59887661D01*
X117423129Y-59887661D02*
X116812129Y-59276661D01*
%TO.N,H2_13*%
X118240000Y-91706998D02*
X118240000Y-73540000D01*
X119725000Y-93191998D02*
X118240000Y-91706998D01*
X116568334Y-71259795D02*
X116568334Y-73447480D01*
X116660854Y-73540000D02*
X118240000Y-73540000D01*
X116698629Y-71129500D02*
X116568334Y-71259795D01*
X119725000Y-100540000D02*
X119725000Y-93191998D01*
X116568334Y-73447480D02*
X116660854Y-73540000D01*
%TO.N,H2_16*%
X53748334Y-92992480D02*
X55168334Y-94412480D01*
X53748334Y-81802480D02*
X53748334Y-92992480D01*
X55698334Y-102272480D02*
X55258334Y-102712480D01*
X53748334Y-62097044D02*
X54720480Y-61124898D01*
X53748334Y-81802480D02*
X53748334Y-62097044D01*
X56718334Y-102272480D02*
X55698334Y-102272480D01*
%TO.N,H2_17*%
X61728334Y-70132480D02*
X61728334Y-64982480D01*
X64208334Y-62502480D02*
X64208334Y-57536456D01*
X60878334Y-70982480D02*
X61728334Y-70132480D01*
X64208334Y-57536456D02*
X64958128Y-56786662D01*
X61728334Y-64982480D02*
X64208334Y-62502480D01*
%TO.N,H2_18*%
X56012834Y-94216980D02*
X54544895Y-92749041D01*
X54544895Y-92749041D02*
X54544895Y-83724041D01*
X53958334Y-60312480D02*
X52948334Y-61322480D01*
X56012834Y-99176980D02*
X56012834Y-94216980D01*
X54544895Y-83724041D02*
X54543334Y-83722480D01*
X58128334Y-106892480D02*
X58498334Y-106522480D01*
X58498334Y-106522480D02*
X61832834Y-106522480D01*
X52948334Y-83602480D02*
X53018334Y-83672480D01*
X52948334Y-61322480D02*
X52948334Y-83602480D01*
%TO.N,H2_20*%
X54608334Y-81312480D02*
X54608334Y-62872480D01*
X59828334Y-94705540D02*
X59828334Y-94012480D01*
X55444991Y-62035823D02*
X55444991Y-60524137D01*
X59668334Y-93852480D02*
X56849406Y-93852480D01*
X59828334Y-94012480D02*
X59668334Y-93852480D01*
X56849406Y-93852480D02*
X55269406Y-92272480D01*
X61118334Y-95995540D02*
X59828334Y-94705540D01*
X55444991Y-60524137D02*
X53889162Y-58968308D01*
X54608334Y-62872480D02*
X55444991Y-62035823D01*
%TO.N,BCM_25*%
X77203128Y-88181662D02*
X76917834Y-87896368D01*
X77693334Y-83072000D02*
X77693334Y-79127480D01*
X78090000Y-90510000D02*
X78090000Y-97692834D01*
X76917834Y-87896368D02*
X76917834Y-86046594D01*
X76642854Y-84122480D02*
X77693334Y-83072000D01*
X76818334Y-78252480D02*
X76818334Y-77947480D01*
X78090000Y-97692834D02*
X77998334Y-97784500D01*
X77693334Y-79127480D02*
X76818334Y-78252480D01*
X76917834Y-86046594D02*
X76642854Y-85771614D01*
X76642854Y-85771614D02*
X76642854Y-84122480D01*
%TO.N,H1_6*%
X71703129Y-66706663D02*
X70528128Y-65531662D01*
X73250000Y-74250000D02*
X73250000Y-70510000D01*
X71703129Y-68963129D02*
X71703129Y-66706663D01*
X73250000Y-70510000D02*
X71703129Y-68963129D01*
D21*
%TO.N,+5V*%
X66958128Y-85422480D02*
X75350628Y-77029980D01*
X64693334Y-72347480D02*
X64691323Y-72349491D01*
X64691323Y-84870469D02*
X65243334Y-85422480D01*
X100428334Y-99032480D02*
X100428334Y-96322480D01*
X78958128Y-78789733D02*
X78958128Y-85847480D01*
X75350628Y-77029980D02*
X77198375Y-77029980D01*
X85993334Y-85847480D02*
X86643334Y-86497480D01*
X86643334Y-86497480D02*
X86643334Y-87547480D01*
X78958128Y-85847480D02*
X85993334Y-85847480D01*
X64691323Y-72349491D02*
X64691323Y-84870469D01*
X65243334Y-85422480D02*
X66958128Y-85422480D01*
X100428334Y-96322480D02*
X95908334Y-91802480D01*
X77198375Y-77029980D02*
X78958128Y-78789733D01*
X63795322Y-71449468D02*
X64693334Y-72347480D01*
D20*
%TO.N,BCM_2_(SDA)*%
X60522643Y-91125310D02*
X60248450Y-91399501D01*
X116340000Y-90880000D02*
X119000000Y-93540000D01*
X119000000Y-93540000D02*
X119000000Y-108850998D01*
X119265001Y-109115999D02*
X119265001Y-111044999D01*
X119265001Y-111044999D02*
X118090000Y-112220000D01*
X60522643Y-90087357D02*
X60522643Y-91125310D01*
X119000000Y-108850998D02*
X119265001Y-109115999D01*
X60660000Y-89950000D02*
X60522643Y-90087357D01*
%TO.N,BCM_3_(SCL)*%
X116725001Y-111044999D02*
X115550000Y-112220000D01*
X78890000Y-93211485D02*
X78890000Y-91420000D01*
X79708026Y-94029511D02*
X78890000Y-93211485D01*
X116725001Y-92890001D02*
X116725001Y-111044999D01*
X115450000Y-91615000D02*
X116725001Y-92890001D01*
%TO.N,H2_22*%
X80321427Y-66786662D02*
X86174829Y-66786662D01*
X89673128Y-63298363D02*
X89673128Y-61626662D01*
X87058128Y-65903363D02*
X87058128Y-65119961D01*
X79323129Y-68565275D02*
X79323129Y-67784960D01*
X74049999Y-103010001D02*
X74049999Y-83070001D01*
X89673128Y-61626662D02*
X90848128Y-60451662D01*
X74049999Y-83070001D02*
X75310000Y-81810000D01*
X88794829Y-64176662D02*
X89673128Y-63298363D01*
X87058128Y-65119961D02*
X88001427Y-64176662D01*
X79139999Y-68748405D02*
X79323129Y-68565275D01*
X81810000Y-73479412D02*
X79139999Y-70809411D01*
X79139999Y-70809411D02*
X79139999Y-68748405D01*
X88001427Y-64176662D02*
X88794829Y-64176662D01*
X86174829Y-66786662D02*
X87058128Y-65903363D01*
X73650000Y-103410000D02*
X74049999Y-103010001D01*
X79323129Y-67784960D02*
X80321427Y-66786662D01*
X81810000Y-81790000D02*
X81810000Y-73479412D01*
%TO.N,H2_24*%
X86254829Y-69256662D02*
X87058128Y-68453363D01*
X75388334Y-83142480D02*
X75238334Y-83142480D01*
X82620000Y-82830000D02*
X82620000Y-69402534D01*
X88638128Y-66906662D02*
X89673128Y-65871662D01*
X82765872Y-69256662D02*
X86254829Y-69256662D01*
X74588334Y-89761336D02*
X76240000Y-91413002D01*
X75238334Y-83142480D02*
X74588334Y-83792480D01*
X89673128Y-65044961D02*
X90541427Y-64176662D01*
X92213128Y-61626662D02*
X93388128Y-60451662D01*
X82620000Y-69402534D02*
X82765872Y-69256662D01*
X74588334Y-83792480D02*
X74588334Y-89761336D01*
X91768128Y-64176662D02*
X92213128Y-63731662D01*
X87438128Y-66906662D02*
X88638128Y-66906662D01*
X87058128Y-68453363D02*
X87058128Y-67286662D01*
X76240000Y-91413002D02*
X76240000Y-103330000D01*
X87058128Y-67286662D02*
X87438128Y-66906662D01*
X89673128Y-65871662D02*
X89673128Y-65044961D01*
X90541427Y-64176662D02*
X91768128Y-64176662D01*
X92213128Y-63731662D02*
X92213128Y-61626662D01*
%TO.N,Net-(IC1-EN)*%
X75398334Y-86452480D02*
X75398334Y-89935618D01*
X78608334Y-100492480D02*
X78698334Y-100582480D01*
X75398334Y-89935618D02*
X77228334Y-91765618D01*
X77228334Y-91765618D02*
X77228334Y-98022480D01*
X58528334Y-85674645D02*
X58290499Y-85912480D01*
X78698334Y-100582480D02*
X79298334Y-100582480D01*
X58528334Y-72512480D02*
X58528334Y-85674645D01*
X77228334Y-98039114D02*
X78608334Y-99419114D01*
X77228334Y-98022480D02*
X77228334Y-98039114D01*
X78608334Y-99419114D02*
X78608334Y-100492480D01*
%TO.N,BCM_15_(RxD)*%
X54743334Y-123062480D02*
X55967845Y-121837969D01*
X92303128Y-84481662D02*
X91463128Y-84481662D01*
X111460000Y-108690000D02*
X110470000Y-109680000D01*
X57790544Y-121837969D02*
X58015055Y-122062480D01*
X55967845Y-121837969D02*
X57790544Y-121837969D01*
X111460000Y-97060000D02*
X111460000Y-108690000D01*
X90369790Y-85575000D02*
X91463128Y-84481662D01*
X90369790Y-86115000D02*
X90369790Y-85575000D01*
X58015055Y-122062480D02*
X105738334Y-122062480D01*
%TO.N,BCM_14_(TxD)*%
X55997845Y-118546991D02*
X79142845Y-118546991D01*
X87803128Y-82281662D02*
X87803128Y-85245266D01*
X109105000Y-112706701D02*
X109105000Y-111923299D01*
X110173299Y-110855000D02*
X111835000Y-110855000D01*
X88703128Y-81381662D02*
X87803128Y-82281662D01*
X79142845Y-118546991D02*
X81160365Y-120564511D01*
X115300000Y-95700000D02*
X115300000Y-107390000D01*
X89903128Y-90381662D02*
X89903128Y-90481662D01*
X111835000Y-110855000D02*
X113010000Y-109680000D01*
X81160365Y-120564511D02*
X101247190Y-120564511D01*
X82903128Y-95481662D02*
X86303128Y-92081662D01*
X115300000Y-107390000D02*
X113010000Y-109680000D01*
X55997845Y-118546991D02*
X54773334Y-117322480D01*
X86303128Y-92081662D02*
X86303128Y-91981662D01*
X78815000Y-94479031D02*
X79817631Y-95481662D01*
X87853128Y-85295266D02*
X87853128Y-85668058D01*
X87818334Y-85702852D02*
X87818334Y-88296868D01*
X86403128Y-91981662D02*
X86303128Y-92081662D01*
X87818334Y-88296868D02*
X89903128Y-90381662D01*
X79817631Y-95481662D02*
X82903128Y-95481662D01*
X86303128Y-91981662D02*
X86403128Y-91981662D01*
X87853128Y-85668058D02*
X87818334Y-85702852D01*
X101247190Y-120564511D02*
X109105000Y-112706701D01*
X87803128Y-85245266D02*
X87853128Y-85295266D01*
X109105000Y-111923299D02*
X110173299Y-110855000D01*
%TO.N,BCM_17*%
X106754999Y-111044999D02*
X107930000Y-112220000D01*
X106754999Y-100945001D02*
X106754999Y-111044999D01*
X108980000Y-98720000D02*
X106754999Y-100945001D01*
%TO.N,BCM_27*%
X114174919Y-89934801D02*
X114174919Y-106464919D01*
X114174919Y-106464919D02*
X114240000Y-106530000D01*
%TO.N,BCM_22*%
X120415000Y-73900000D02*
X120415000Y-76758002D01*
X104214999Y-110855001D02*
X102850000Y-112220000D01*
X104214999Y-96005001D02*
X104214999Y-110855001D01*
X120415000Y-76758002D02*
X120038001Y-77135001D01*
X120038001Y-90781999D02*
X119189154Y-91630846D01*
X105460000Y-94760000D02*
X104214999Y-96005001D01*
X120038001Y-77135001D02*
X120038001Y-90781999D01*
%TO.N,BCM_26*%
X87403128Y-85481662D02*
X87403128Y-85512074D01*
X87403128Y-85512074D02*
X87368334Y-85546868D01*
X87368334Y-85546868D02*
X87368334Y-99097785D01*
X86103128Y-84181662D02*
X87403128Y-85481662D01*
X85103128Y-84181662D02*
X86103128Y-84181662D01*
X80084457Y-106381662D02*
X74103128Y-106381662D01*
X87368334Y-99097785D02*
X80084457Y-106381662D01*
%TO.N,BCM_29_(RxD)*%
X90628128Y-87556662D02*
X88603128Y-85531662D01*
X90628128Y-93056662D02*
X90628128Y-87556662D01*
X88603128Y-85531662D02*
X88603128Y-83481662D01*
X59333912Y-92881662D02*
X59433912Y-92981662D01*
X59433912Y-92981662D02*
X62403128Y-92981662D01*
X90403128Y-93281662D02*
X90628128Y-93056662D01*
X57903128Y-92881662D02*
X59333912Y-92881662D01*
%TO.N,BCM_28_(TxD)*%
X81503128Y-84081662D02*
X82393643Y-84081662D01*
X99903128Y-73181662D02*
X99903128Y-81581662D01*
X83345000Y-77639790D02*
X88903128Y-72081662D01*
X98803128Y-72081662D02*
X99903128Y-73181662D01*
X60203128Y-77181662D02*
X63103128Y-80081662D01*
X71603128Y-85346461D02*
X71403128Y-83981662D01*
X82393643Y-84081662D02*
X83345000Y-83130305D01*
X63103128Y-80081662D02*
X63103128Y-87881662D01*
X88903128Y-72081662D02*
X98803128Y-72081662D01*
X83345000Y-83130305D02*
X83345000Y-77639790D01*
X68603128Y-87781662D02*
X69167927Y-87781662D01*
X69167927Y-87781662D02*
X71603128Y-85346461D01*
%TO.N,Net-(U10-Pad3)*%
X69848334Y-102142480D02*
X70423113Y-101567701D01*
X70423113Y-101567701D02*
X70423113Y-97655428D01*
%TD*%
M02*
