%TF.GenerationSoftware,KiCad,Pcbnew,(6.0.5-0)*%
%TF.CreationDate,2022-05-22T21:56:00-04:00*%
%TF.ProjectId,Payload Board,5061796c-6f61-4642-9042-6f6172642e6b,rev?*%
%TF.SameCoordinates,Original*%
%TF.FileFunction,Profile,NP*%
%FSLAX46Y46*%
G04 Gerber Fmt 4.6, Leading zero omitted, Abs format (unit mm)*
G04 Created by KiCad (PCBNEW (6.0.5-0)) date 2022-05-22 21:56:00*
%MOMM*%
%LPD*%
G01*
G04 APERTURE LIST*
%TA.AperFunction,Profile*%
%ADD10C,0.200000*%
%TD*%
G04 APERTURE END LIST*
D10*
X107863128Y-149539462D02*
X107863128Y-150072862D01*
X51478138Y-150072862D02*
G75*
G03*
X52671928Y-151266662I1193762J-38D01*
G01*
X107863128Y-56575462D02*
X107863128Y-57108862D01*
X53383128Y-94357962D02*
X53383128Y-112290362D01*
X51478128Y-92019644D02*
X51478128Y-56575462D01*
X87543138Y-56575462D02*
G75*
G03*
X86349328Y-55381662I-1193838J-38D01*
G01*
X88736928Y-148345662D02*
X106669328Y-148345662D01*
X87543128Y-57108862D02*
X87543128Y-56575462D01*
X88736928Y-148345728D02*
G75*
G03*
X87543128Y-149539462I-28J-1193772D01*
G01*
X106669328Y-58302662D02*
X88736928Y-58302662D01*
X52671928Y-55381662D02*
X86349328Y-55381662D01*
X87543128Y-150072862D02*
X87543128Y-149539462D01*
X51478063Y-92019644D02*
G75*
G03*
X52430628Y-93188803I1193837J44D01*
G01*
X137076138Y-77174862D02*
G75*
G03*
X138269928Y-78368662I1193762J-38D01*
G01*
X86349328Y-151266728D02*
G75*
G03*
X87543128Y-150072862I-28J1193828D01*
G01*
X52671928Y-55381728D02*
G75*
G03*
X51478128Y-56575462I-28J-1193772D01*
G01*
X109056928Y-55381728D02*
G75*
G03*
X107863128Y-56575462I-28J-1193772D01*
G01*
X52430640Y-113459579D02*
G75*
G03*
X53383128Y-112290362I-241340J1169179D01*
G01*
X137076128Y-77174862D02*
X137076128Y-56575462D01*
X106669328Y-58302728D02*
G75*
G03*
X107863128Y-57108862I-28J1193828D01*
G01*
X137076138Y-56575462D02*
G75*
G03*
X135882328Y-55381662I-1193838J-38D01*
G01*
X141647946Y-79557901D02*
G75*
G03*
X140454328Y-78368662I-1189246J1D01*
G01*
X109056928Y-55381662D02*
X135882328Y-55381662D01*
X107863138Y-149539462D02*
G75*
G03*
X106669328Y-148345662I-1193838J-38D01*
G01*
X141647975Y-79557901D02*
X141647975Y-150068301D01*
X140454328Y-78368662D02*
X138269928Y-78368662D01*
X86349328Y-151266662D02*
X52671928Y-151266662D01*
X51478128Y-150072862D02*
X51478128Y-114628680D01*
X53383143Y-94357962D02*
G75*
G03*
X52430628Y-93188803I-1193843J-38D01*
G01*
X52430636Y-113459562D02*
G75*
G03*
X51478128Y-114628680I241264J-1169138D01*
G01*
X87543138Y-57108862D02*
G75*
G03*
X88736928Y-58302662I1193762J-38D01*
G01*
X107863138Y-150072862D02*
G75*
G03*
X109056928Y-151266662I1193762J-38D01*
G01*
X140454328Y-151266662D02*
X109056928Y-151266662D01*
X140454328Y-151266666D02*
G75*
G03*
X141647975Y-150068301I-4628J1198266D01*
G01*
M02*
